SplineFontDB: 3.2
FontName: monofurx
FullName: monofurx
FamilyName: monofurx
Weight: Regular
Copyright: a mod to monofur (c) 2000 tobias b ko:hler (unci@tigerden.com)
Version: 5.1 2100-1-1
ItalicAngle: 0
UnderlinePosition: -664
UnderlineWidth: 92
Ascent: 1236
Descent: 764
InvalidEm: 0
sfntRevision: 0x00010000
LayerCount: 2
Layer: 0 1 "Back" 1
Layer: 1 1 "Fore" 0
XUID: [1021 173 -1185058930 25849]
StyleMap: 0x0040
FSType: 0
OS2Version: 0
OS2_WeightWidthSlopeOnly: 0
OS2_UseTypoMetrics: 0
CreationTime: 957547416
ModificationTime: 1602031894
PfmFamily: 49
TTFWeight: 400
TTFWidth: 5
LineGap: 0
VLineGap: 0
Panose: 2 15 4 9 2 2 3 2 2 4
OS2TypoAscent: 1236
OS2TypoAOffset: 0
OS2TypoDescent: -764
OS2TypoDOffset: 0
OS2TypoLinegap: 0
OS2WinAscent: 1236
OS2WinAOffset: 0
OS2WinDescent: 764
OS2WinDOffset: 0
HheadAscent: 1236
HheadAOffset: 0
HheadDescent: -764
HheadDOffset: 0
OS2SubXSize: 1400
OS2SubYSize: 1300
OS2SubXOff: 0
OS2SubYOff: 286
OS2SupXSize: 1400
OS2SupYSize: 1300
OS2SupXOff: 0
OS2SupYOff: 906
OS2StrikeYSize: 100
OS2StrikeYPos: 518
OS2FamilyClass: 1285
OS2Vendor: 'unci'
OS2UnicodeRanges: 00000000.00000000.00000000.00000000
MarkAttachClasses: 1
DEI: 91125
TtTable: prep
NPUSHB
 51
 28
 28
 27
 27
 26
 26
 25
 25
 24
 24
 23
 23
 22
 22
 21
 21
 20
 20
 19
 19
 18
 18
 17
 17
 16
 16
 15
 15
 14
 14
 13
 13
 12
 12
 11
 11
 10
 10
 9
 9
 8
 8
 3
 3
 2
 2
 1
 1
 0
 0
 1
SCANTYPE
PUSHW_1
 511
SCANCTRL
RCVT
ROUND[Grey]
WCVTP
RCVT
ROUND[Grey]
WCVTP
RCVT
ROUND[Grey]
WCVTP
RCVT
ROUND[Grey]
WCVTP
RCVT
ROUND[Grey]
WCVTP
RCVT
ROUND[Grey]
WCVTP
RCVT
ROUND[Grey]
WCVTP
RCVT
ROUND[Grey]
WCVTP
RCVT
ROUND[Grey]
WCVTP
RCVT
ROUND[Grey]
WCVTP
RCVT
ROUND[Grey]
WCVTP
RCVT
ROUND[Grey]
WCVTP
RCVT
ROUND[Grey]
WCVTP
RCVT
ROUND[Grey]
WCVTP
RCVT
ROUND[Grey]
WCVTP
RCVT
ROUND[Grey]
WCVTP
RCVT
ROUND[Grey]
WCVTP
RCVT
ROUND[Grey]
WCVTP
RCVT
ROUND[Grey]
WCVTP
RCVT
ROUND[Grey]
WCVTP
RCVT
ROUND[Grey]
WCVTP
RCVT
ROUND[Grey]
WCVTP
RCVT
ROUND[Grey]
WCVTP
RCVT
ROUND[Grey]
WCVTP
RCVT
ROUND[Grey]
WCVTP
PUSHB_4

StartChar: space
Encoding: 256 32 0
Width: 1000
VWidth: 4800
InSpiro: 1
Flags: MW
LayerCount: 2
Back
SplineSet
0 472 m 1,0,-1
 1000 472 l 1025,1,2
  Spiro
    0 472 {
    1000 472 v
    0 0 z
  EndSpiro
  Named: "G1GoldSplit"
0 618 m 1,0,-1
 1000 618 l 1025,1,2
  Spiro
    0 618 {
    1000 618 v
    0 0 z
  EndSpiro
  Named: "G1Center"
736 1236 m 1,5,-1
 736 -764 l 1025
  Spiro
    736 1236 {
    736 -764 v
    0 0 z
  EndSpiro
  Named: "GCEnd"
264 1236 m 1,5,-1
 264 -764 l 1025
  Spiro
    264 1236 {
    264 -764 v
    0 0 z
  EndSpiro
  Named: "GCStart"
0 146 m 1,0,-1
 1000 146 l 1025,1,2
  Spiro
    0 146 {
    1000 146 v
    0 0 z
  EndSpiro
  Named: "G2Center"
0 -472 m 1,0,-1
 1000 -472 l 1025,1,2
  Spiro
    0 -472 {
    1000 -472 v
    0 0 z
  EndSpiro
  Named: "G2Bottom"
0 764 m 1,0,-1
 1000 764 l 1025,1,2
  Spiro
    0 764 {
    1000 764 v
    0 0 z
  EndSpiro
  Named: "G2Top"
118 1236 m 1,3,-1
 118 -764 l 1025
  Spiro
    118 1236 {
    118 -764 v
    0 0 z
  EndSpiro
  Named: "GLeft"
882 1236 m 1,5,-1
 882 -764 l 1025
  Spiro
    882 1236 {
    882 -764 v
    0 0 z
  EndSpiro
  Named: "GRight"
500 1236 m 1,0,-1
 500 -764 l 1025
  Spiro
    500 1236 {
    500 -764 v
    0 0 z
  EndSpiro
0 618 m 1,0,-1
 1000 618 l 1025,1,2
  Spiro
    0 618 {
    1000 618 v
    0 0 z
  EndSpiro
  Named: "G1Center"
590 1236 m 1,3,-1
 590 -764 l 1025
  Spiro
    590 1236 {
    590 -764 v
    0 0 z
  EndSpiro
  Named: "GLR"
410 1236 m 1,5,-1
 410 -764 l 1025
  Spiro
    410 1236 {
    410 -764 v
    0 0 z
  EndSpiro
  Named: "GRR"
0 236 m 1,0,-1
 1000 236 l 1025,1,2
  Spiro
    0 236 {
    1000 236 v
    0 0 z
  EndSpiro
  Named: "EMSquareCenter"
EndSplineSet
Fore
Validated: 1
EndChar

StartChar: exclam
Encoding: 257 33 1
Width: 1000
VWidth: 1704
Flags: MW
LayerCount: 2
Back
SplineSet
736 1236 m 5,5,-1
 736 -764 l 1029
  Named: "GCEnd"
264 1236 m 5,5,-1
 264 -764 l 1029
  Named: "GCStart"
0 146 m 5,0,-1
 1000 146 l 1029,1,2
  Named: "G2Center"
0 -472 m 5,0,-1
 1000 -472 l 1029,1,2
  Named: "G2Bottom"
0 764 m 5,0,-1
 1000 764 l 1029,1,2
  Named: "G2Top"
118 1236 m 5,3,-1
 118 -764 l 1029
  Named: "GLeft"
882 1236 m 5,5,-1
 882 -764 l 1029
  Named: "GRight"
500 1236 m 5,0,-1
 500 -764 l 1029
0 618 m 5,0,-1
 1000 618 l 1029,1,2
  Named: "G1Center"
590 1236 m 5,3,-1
 590 -764 l 1029
  Named: "GLR"
410 1236 m 5,5,-1
 410 -764 l 1029
  Named: "GRR"
0 236 m 5,0,-1
 1000 236 l 1029,1,2
  Named: "EMSquareCenter"
EndSplineSet
Fore
SplineSet
646 -146 m 256,0,1
 646 -204 646 -204 604 -248 c 128,-1,2
 562 -292 562 -292 500 -292 c 256,3,4
 442 -292 442 -292 398 -250 c 128,-1,5
 354 -208 354 -208 354 -146 c 256,6,7
 354 -88 354 -88 396 -44 c 128,-1,8
 438 0 438 0 500 0 c 256,9,10
 558 0 558 0 602 -44 c 128,-1,11
 646 -88 646 -88 646 -146 c 256,0,1
546 194 m 1,12,13
 546 140 546 140 500 140 c 256,14,15
 454 140 454 140 454 194 c 0,16,17
 454 680 454 680 454 1180 c 0,18,19
 454 1236 454 1236 500 1236 c 256,20,21
 546 1236 546 1236 546 1180 c 2,22,-1
 546 194 l 1,12,13
EndSplineSet
Validated: 1
EndChar

StartChar: quotedbl
Encoding: 258 34 2
Width: 1000
VWidth: 1704
Flags: W
LayerCount: 2
Back
SplineSet
736 1236 m 1,5,-1
 736 -764 l 1025
  Named: "GCEnd"
264 1236 m 1,5,-1
 264 -764 l 1025
  Named: "GCStart"
0 146 m 1,0,-1
 1000 146 l 1025,1,2
  Named: "G2Center"
0 -472 m 1,0,-1
 1000 -472 l 1025,1,2
  Named: "G2Bottom"
0 764 m 1,0,-1
 1000 764 l 1025,1,2
  Named: "G2Top"
118 1236 m 1,3,-1
 118 -764 l 1025
  Named: "GLeft"
882 1236 m 1,5,-1
 882 -764 l 1025
  Named: "GRight"
500 1236 m 1,0,-1
 500 -764 l 1025
0 618 m 1,0,-1
 1000 618 l 1025,1,2
  Named: "G1Center"
590 1236 m 1,3,-1
 590 -764 l 1025
  Named: "GLR"
410 1236 m 1,5,-1
 410 -764 l 1025
  Named: "GRR"
0 236 m 1,0,-1
 1000 236 l 1025,1,2
  Named: "EMSquareCenter"
EndSplineSet
Fore
SplineSet
594 804 m 2,0,1
 574 764 574 764 546 764 c 0,2,3
 536 764 536 764 526 768 c 0,4,5
 500 778 500 778 500 804 c 0,6,7
 500 820 500 820 510 840 c 2,8,-1
 690 1208 l 2,9,10
 704 1236 704 1236 722 1236 c 0,11,12
 732 1236 732 1236 750 1228 c 256,13,14
 782 1214 782 1214 782 1194 c 0,15,16
 782 1188 782 1188 774 1172 c 2,17,-1
 594 804 l 2,0,1
312 804 m 2,18,19
 292 764 292 764 264 764 c 0,20,21
 254 764 254 764 244 768 c 0,22,23
 218 778 218 778 218 804 c 0,24,25
 218 820 218 820 228 840 c 2,26,-1
 408 1208 l 2,27,28
 422 1236 422 1236 440 1236 c 0,29,30
 450 1236 450 1236 468 1228 c 256,31,32
 500 1214 500 1214 500 1194 c 0,33,34
 500 1188 500 1188 492 1172 c 2,35,-1
 312 804 l 2,18,19
EndSplineSet
Validated: 1
EndChar

StartChar: numbersign
Encoding: 259 35 3
Width: 1000
VWidth: 1704
Flags: MW
LayerCount: 2
Back
SplineSet
0 472 m 5,0,-1
 1000 472 l 1029,1,2
  Named: "G1GoldSplit"
0 618 m 5,0,-1
 1000 618 l 1029,1,2
  Named: "G1Center"
736 1236 m 5,5,-1
 736 -764 l 1029
  Named: "GCEnd"
264 1236 m 5,5,-1
 264 -764 l 1029
  Named: "GCStart"
0 146 m 5,0,-1
 1000 146 l 1029,1,2
  Named: "G2Center"
0 -472 m 5,0,-1
 1000 -472 l 1029,1,2
  Named: "G2Bottom"
0 764 m 5,0,-1
 1000 764 l 1029,1,2
  Named: "G2Top"
118 1236 m 5,3,-1
 118 -764 l 1029
  Named: "GLeft"
882 1236 m 5,5,-1
 882 -764 l 1029
  Named: "GRight"
500 1236 m 5,0,-1
 500 -764 l 1029
0 618 m 5,0,-1
 1000 618 l 1029,1,2
  Named: "G1Center"
590 1236 m 5,3,-1
 590 -764 l 1029
  Named: "GLR"
410 1236 m 5,5,-1
 410 -764 l 1029
  Named: "GRR"
0 236 m 5,0,-1
 1000 236 l 1029,1,2
  Named: "EMSquareCenter"
EndSplineSet
Fore
SplineSet
836 856 m 2,0,1
 882 856 882 856 882 808 c 0,2,3
 882 764 882 764 840 764 c 2,4,-1
 682 764 l 1,5,-1
 682 472 l 1,6,-1
 836 472 l 2,7,8
 880 472 880 472 880 426 c 256,9,10
 880 378 880 378 836 378 c 2,11,-1
 682 378 l 1,12,-1
 682 48 l 2,13,14
 682 2 682 2 634 2 c 256,15,16
 590 2 590 2 590 48 c 2,17,-1
 590 378 l 1,18,-1
 410 378 l 1,19,-1
 410 48 l 2,20,21
 410 2 410 2 368 2 c 256,22,23
 322 2 322 2 318 48 c 1,24,-1
 318 378 l 1,25,-1
 164 378 l 2,26,27
 118 378 118 378 118 425 c 128,-1,28
 118 472 118 472 164 472 c 2,29,-1
 318 472 l 1,30,-1
 318 764 l 1,31,-1
 164 764 l 2,32,33
 118 764 118 764 118 808 c 0,34,35
 118 856 118 856 164 856 c 2,36,-1
 318 856 l 1,37,-1
 318 1190 l 2,38,39
 318 1236 318 1236 368 1236 c 256,40,41
 410 1236 410 1236 410 1190 c 2,42,-1
 410 856 l 1,43,-1
 590 856 l 1,44,-1
 590 1190 l 2,45,46
 590 1236 590 1236 635 1236 c 128,-1,47
 680 1236 680 1236 682 1192 c 1,48,-1
 682 856 l 1,49,-1
 836 856 l 2,0,1
590 472 m 1,50,-1
 590 764 l 1,51,-1
 410 764 l 1,52,-1
 410 472 l 1,53,-1
 590 472 l 1,50,-1
EndSplineSet
Validated: 1
EndChar

StartChar: dollar
Encoding: 260 36 4
Width: 1000
VWidth: 1704
Flags: MW
LayerCount: 2
Back
SplineSet
0 472 m 5,0,-1
 1000 472 l 1029,1,2
  Named: "G1GoldSplit"
0 618 m 5,0,-1
 1000 618 l 1029,1,2
  Named: "G1Center"
736 1236 m 5,5,-1
 736 -764 l 1029
  Named: "GCEnd"
264 1236 m 5,5,-1
 264 -764 l 1029
  Named: "GCStart"
0 146 m 5,0,-1
 1000 146 l 1029,1,2
  Named: "G2Center"
0 -472 m 5,0,-1
 1000 -472 l 1029,1,2
  Named: "G2Bottom"
0 764 m 5,0,-1
 1000 764 l 1029,1,2
  Named: "G2Top"
118 1236 m 5,3,-1
 118 -764 l 1029
  Named: "GLeft"
882 1236 m 5,5,-1
 882 -764 l 1029
  Named: "GRight"
500 1236 m 5,0,-1
 500 -764 l 1029
0 618 m 5,0,-1
 1000 618 l 1029,1,2
  Named: "G1Center"
590 1236 m 5,3,-1
 590 -764 l 1029
  Named: "GLR"
410 1236 m 5,5,-1
 410 -764 l 1029
  Named: "GRR"
0 236 m 5,0,-1
 1000 236 l 1029,1,2
  Named: "EMSquareCenter"
EndSplineSet
Fore
SplineSet
882 444 m 256,0,1
 882 338 882 338 775 267 c 128,-1,2
 668 196 668 196 546 184 c 1,3,-1
 546 42 l 2,4,5
 546 0 546 0 500 0 c 256,6,7
 454 0 454 0 454 42 c 2,8,-1
 454 184 l 1,9,10
 206 206 206 206 130 308 c 0,11,12
 118 324 118 324 118 338 c 128,-1,13
 118 352 118 352 136 366 c 128,-1,14
 154 380 154 380 183 380 c 128,-1,15
 212 380 212 380 254 332 c 1,16,17
 322 284 322 284 454 272 c 1,18,-1
 454 622 l 1,19,20
 340 636 340 636 251 692 c 128,-1,21
 162 748 162 748 162 836 c 256,22,23
 162 922 162 922 251 979 c 128,-1,24
 340 1036 340 1036 454 1050 c 1,25,-1
 454 1192 l 2,26,27
 454 1236 454 1236 500 1236 c 256,28,29
 544 1236 544 1236 546 1194 c 1,30,-1
 546 1050 l 1,31,32
 722 1032 722 1032 786 950 c 0,33,34
 798 934 798 934 799 917 c 128,-1,35
 800 900 800 900 781 889 c 128,-1,36
 762 878 762 878 740 878 c 128,-1,37
 718 878 718 878 698 896 c 0,38,39
 628 952 628 952 546 964 c 1,40,-1
 546 704 l 1,41,42
 670 692 670 692 776 621 c 128,-1,43
 882 550 882 550 882 444 c 256,0,1
454 710 m 1,44,-1
 454 962 l 1,45,46
 386 952 386 952 320 918 c 128,-1,47
 254 884 254 884 254 836 c 256,48,49
 254 784 254 784 320 752 c 128,-1,50
 386 720 386 720 454 710 c 1,44,-1
790 444 m 256,51,52
 790 514 790 514 707 559 c 128,-1,53
 624 604 624 604 546 614 c 1,54,-1
 546 272 l 1,55,56
 624 282 624 282 707 328 c 128,-1,57
 790 374 790 374 790 444 c 256,51,52
EndSplineSet
Validated: 1
EndChar

StartChar: percent
Encoding: 261 37 5
Width: 1000
VWidth: 1704
Flags: MW
LayerCount: 2
Back
SplineSet
736 1236 m 5,5,-1
 736 -764 l 1029
  Named: "GCEnd"
264 1236 m 5,5,-1
 264 -764 l 1029
  Named: "GCStart"
0 146 m 5,0,-1
 1000 146 l 1029,1,2
  Named: "G2Center"
0 -472 m 5,0,-1
 1000 -472 l 1029,1,2
  Named: "G1Bottom"
0 772 m 5,0,-1
 1000 772 l 1029,1,2
  Named: "G1Top"
118 1236 m 5,3,-1
 118 -764 l 1029
  Named: "GLeft"
882 1236 m 5,5,-1
 882 -764 l 1029
  Named: "GRight"
500 1236 m 5,0,-1
 500 -764 l 1029
0 618 m 5,0,-1
 1000 618 l 1029,1,2
  Named: "G1Center"
590 1236 m 5,3,-1
 590 -764 l 1029
  Named: "GLR"
410 1236 m 5,5,-1
 410 -764 l 1029
  Named: "GRR"
0 236 m 5,0,-1
 1000 236 l 1029,1,2
  Named: "EMSquareCenter"
EndSplineSet
Fore
SplineSet
210 1046 m 128,-1,1
 210 1004 210 1004 239 975 c 128,-1,2
 268 946 268 946 310 946 c 128,-1,3
 352 946 352 946 380 975 c 128,-1,4
 408 1004 408 1004 408 1046 c 128,-1,5
 408 1088 408 1088 379 1116 c 128,-1,6
 350 1144 350 1144 308 1144 c 128,-1,7
 266 1144 266 1144 238 1116 c 128,-1,0
 210 1088 210 1088 210 1046 c 128,-1,1
118 1046 m 128,-1,9
 118 1126 118 1126 173 1181 c 128,-1,10
 228 1236 228 1236 308 1236 c 128,-1,11
 388 1236 388 1236 444 1181 c 128,-1,12
 500 1126 500 1126 500 1046 c 128,-1,13
 500 966 500 966 445 910 c 128,-1,14
 390 854 390 854 310 854 c 128,-1,15
 230 854 230 854 174 910 c 128,-1,8
 118 966 118 966 118 1046 c 128,-1,9
214 42 m 2,16,17
 190 0 190 0 162 0 c 0,18,19
 148 0 148 0 136 8 c 0,20,21
 118 20 118 20 118 42 c 0,22,23
 118 60 118 60 134 88 c 2,24,-1
 792 1210 l 2,25,26
 808 1236 808 1236 828 1236 c 0,27,28
 840 1236 840 1236 856 1226 c 256,29,30
 882 1210 882 1210 882 1190 c 0,31,32
 882 1178 882 1178 874 1164 c 2,33,-1
 214 42 l 2,16,17
592 192 m 128,-1,35
 592 150 592 150 621 121 c 128,-1,36
 650 92 650 92 692 92 c 128,-1,37
 734 92 734 92 762 121 c 128,-1,38
 790 150 790 150 790 192 c 128,-1,39
 790 234 790 234 761 262 c 128,-1,40
 732 290 732 290 690 290 c 128,-1,41
 648 290 648 290 620 262 c 128,-1,34
 592 234 592 234 592 192 c 128,-1,35
500 192 m 128,-1,43
 500 272 500 272 555 327 c 128,-1,44
 610 382 610 382 690 382 c 128,-1,45
 770 382 770 382 826 327 c 128,-1,46
 882 272 882 272 882 192 c 128,-1,47
 882 112 882 112 827 56 c 128,-1,48
 772 0 772 0 692 0 c 128,-1,49
 612 0 612 0 556 56 c 128,-1,42
 500 112 500 112 500 192 c 128,-1,43
EndSplineSet
Validated: 1
EndChar

StartChar: ampersand
Encoding: 262 38 6
Width: 1000
VWidth: 1704
Flags: MW
LayerCount: 2
Back
SplineSet
736 1236 m 5,5,-1
 736 -764 l 1029
  Named: "GCEnd"
264 1236 m 5,5,-1
 264 -764 l 1029
  Named: "GCStart"
0 146 m 5,0,-1
 1000 146 l 1029,1,2
  Named: "G2Center"
0 -472 m 5,0,-1
 1000 -472 l 1029,1,2
  Named: "G1Bottom"
0 772 m 5,0,-1
 1000 772 l 1029,1,2
  Named: "G1Top"
118 1236 m 5,3,-1
 118 -764 l 1029
  Named: "GLeft"
882 1236 m 5,5,-1
 882 -764 l 1029
  Named: "GRight"
500 1236 m 5,0,-1
 500 -764 l 1029
0 618 m 5,0,-1
 1000 618 l 1029,1,2
  Named: "G1Center"
590 1236 m 5,3,-1
 590 -764 l 1029
  Named: "GLR"
410 1236 m 5,5,-1
 410 -764 l 1029
  Named: "GRR"
0 236 m 5,0,-1
 1000 236 l 1029,1,2
  Named: "EMSquareCenter"
EndSplineSet
Fore
SplineSet
872 14 m 256,0,1
 856 0 856 0 846 0 c 0,2,3
 828 0 828 0 810 22 c 2,4,-1
 672 194 l 1,5,6
 564 0 564 0 418 0 c 0,7,8
 292 0 292 0 202 120 c 0,9,10
 118 232 118 232 118 380 c 0,11,12
 118 588 118 588 260 694 c 1,13,14
 170 806 170 806 170 928 c 0,15,16
 170 1056 170 1056 239 1146 c 128,-1,17
 308 1236 308 1236 418 1236 c 0,18,19
 526 1236 526 1236 596 1146 c 0,20,21
 668 1054 668 1054 668 928 c 0,22,23
 668 824 668 824 608 734 c 0,24,25
 564 666 564 666 414 640 c 1,26,-1
 870 68 l 2,27,28
 882 52 882 52 882 42 c 0,29,30
 882 22 882 22 872 14 c 256,0,1
576 928 m 256,31,32
 576 1018 576 1018 532 1080 c 0,33,34
 488 1144 488 1144 418 1144 c 256,35,36
 348 1144 348 1144 304 1080 c 0,37,38
 262 1018 262 1018 262 928 c 0,39,40
 262 860 262 860 290 808 c 0,41,42
 304 784 304 784 358 712 c 1,43,44
 404 722 404 722 418 722 c 0,45,46
 490 726 490 726 532 786 c 0,47,48
 576 848 576 848 576 928 c 256,31,32
610 270 m 1,49,-1
 318 634 l 1,50,51
 206 558 206 558 206 380 c 0,52,53
 206 262 206 262 264 184 c 0,54,55
 336 84 336 84 420 84 c 0,56,57
 544 84 544 84 610 270 c 1,49,-1
EndSplineSet
Validated: 1
EndChar

StartChar: quotesingle
Encoding: 263 39 7
Width: 1000
VWidth: 1704
Flags: MW
LayerCount: 2
Back
SplineSet
0 -236 m 1,0,-1
 1000 -236 l 1025,1,2
  Spiro
    0 -236 {
    1000 -236 v
    0 0 z
  EndSpiro
  Named: "GBottom-500-500"
0 1000 m 1,0,-1
 1000 1000 l 1025,1,2
  Spiro
    0 1000 {
    1000 1000 v
    0 0 z
  EndSpiro
  Named: "G-500/500"
0 472 m 1,0,-1
 1000 472 l 1025,1,2
  Spiro
    0 472 {
    1000 472 v
    0 0 z
  EndSpiro
  Named: "G1GoldSplit"
0 618 m 1,0,-1
 1000 618 l 1025,1,2
  Spiro
    0 618 {
    1000 618 v
    0 0 z
  EndSpiro
  Named: "G1Center"
736 1236 m 1,5,-1
 736 -764 l 1025
  Spiro
    736 1236 {
    736 -764 v
    0 0 z
  EndSpiro
  Named: "GCEnd"
264 1236 m 1,5,-1
 264 -764 l 1025
  Spiro
    264 1236 {
    264 -764 v
    0 0 z
  EndSpiro
  Named: "GCStart"
0 146 m 1,0,-1
 1000 146 l 1025,1,2
  Spiro
    0 146 {
    1000 146 v
    0 0 z
  EndSpiro
  Named: "G2Center"
0 -472 m 1,0,-1
 1000 -472 l 1025,1,2
  Spiro
    0 -472 {
    1000 -472 v
    0 0 z
  EndSpiro
  Named: "G2Bottom"
0 764 m 1,0,-1
 1000 764 l 1025,1,2
  Spiro
    0 764 {
    1000 764 v
    0 0 z
  EndSpiro
  Named: "G2Top"
118 1236 m 1,3,-1
 118 -764 l 1025
  Spiro
    118 1236 {
    118 -764 v
    0 0 z
  EndSpiro
  Named: "GLeft"
882 1236 m 1,5,-1
 882 -764 l 1025
  Spiro
    882 1236 {
    882 -764 v
    0 0 z
  EndSpiro
  Named: "GRight"
500 1236 m 1,0,-1
 500 -764 l 1025
  Spiro
    500 1236 {
    500 -764 v
    0 0 z
  EndSpiro
0 618 m 1,0,-1
 1000 618 l 1025,1,2
  Spiro
    0 618 {
    1000 618 v
    0 0 z
  EndSpiro
  Named: "G1Center"
590 1236 m 1,3,-1
 590 -764 l 1025
  Spiro
    590 1236 {
    590 -764 v
    0 0 z
  EndSpiro
  Named: "GLR"
410 1236 m 1,5,-1
 410 -764 l 1025
  Spiro
    410 1236 {
    410 -764 v
    0 0 z
  EndSpiro
  Named: "GRR"
0 236 m 1,0,-1
 1000 236 l 1025,1,2
  Spiro
    0 236 {
    1000 236 v
    0 0 z
  EndSpiro
  Named: "EMSquareCenter"
EndSplineSet
Fore
SplineSet
546 678 m 2,0,1
 546 618 546 618 500 618 c 128,-1,2
 454 618 454 618 454 678 c 2,3,-1
 454 1196 l 2,4,5
 454 1236 454 1236 500 1236 c 256,6,7
 546 1236 546 1236 546 1196 c 2,8,-1
 546 678 l 2,0,1
EndSplineSet
Validated: 1
EndChar

StartChar: parenleft
Encoding: 264 40 8
Width: 1000
VWidth: 1704
Flags: MW
LayerCount: 2
Back
SplineSet
736 1236 m 1,5,-1
 736 -764 l 1025
  Named: "GCEnd"
264 1236 m 1,5,-1
 264 -764 l 1025
  Named: "GCStart"
0 146 m 1,0,-1
 1000 146 l 1025,1,2
  Named: "G2Center"
0 -472 m 1,0,-1
 1000 -472 l 1025,1,2
  Named: "G1Bottom"
0 772 m 1,0,-1
 1000 772 l 1025,1,2
  Named: "G1Top"
118 1236 m 1,3,-1
 118 -764 l 1025
  Named: "GLeft"
882 1236 m 1,5,-1
 882 -764 l 1025
  Named: "GRight"
500 1236 m 1,0,-1
 500 -764 l 1025
0 618 m 1,0,-1
 1000 618 l 1025,1,2
  Named: "G1Center"
590 1236 m 1,3,-1
 590 -764 l 1025
  Named: "GLR"
410 1236 m 1,5,-1
 410 -764 l 1025
  Named: "GRR"
0 236 m 1,0,-1
 1000 236 l 1025,1,2
  Named: "EMSquareCenter"
EndSplineSet
Fore
SplineSet
692 1236 m 0,0,1
 736 1236 736 1236 736 1194 c 0,2,3
 736 1156 736 1156 692 1146 c 0,4,5
 556 1116 556 1116 470 976 c 0,6,7
 354 788 354 788 354 616 c 0,8,9
 356 392 356 392 470 236 c 0,10,11
 556 118 556 118 692 80 c 0,12,13
 736 68 736 68 736 34 c 128,-1,14
 736 0 736 0 692 0 c 0,15,16
 538 0 538 0 402 178 c 0,17,18
 264 356 264 356 264 618 c 0,19,20
 264 846 264 846 402 1034 c 0,21,22
 548 1236 548 1236 692 1236 c 0,0,1
EndSplineSet
Validated: 1
EndChar

StartChar: parenright
Encoding: 265 41 9
Width: 1000
VWidth: 1704
Flags: MW
LayerCount: 2
Back
SplineSet
736 1236 m 1,5,-1
 736 -764 l 1025
  Named: "GCEnd"
264 1236 m 1,5,-1
 264 -764 l 1025
  Named: "GCStart"
0 146 m 1,0,-1
 1000 146 l 1025,1,2
  Named: "G2Center"
0 -472 m 1,0,-1
 1000 -472 l 1025,1,2
  Named: "G1Bottom"
0 764 m 1,0,-1
 1000 764 l 1025,1,2
  Named: "G1Top"
118 1236 m 1,3,-1
 118 -764 l 1025
  Named: "GLeft"
882 1236 m 1,5,-1
 882 -764 l 1025
  Named: "GRight"
500 1236 m 1,0,-1
 500 -764 l 1025
0 618 m 1,0,-1
 1000 618 l 1025,1,2
  Named: "G1Center"
590 1236 m 1,3,-1
 590 -764 l 1025
  Named: "GLR"
410 1236 m 1,5,-1
 410 -764 l 1025
  Named: "GRR"
0 236 m 1,0,-1
 1000 236 l 1025,1,2
  Named: "EMSquareCenter"
EndSplineSet
Fore
SplineSet
308 764 m 0,0,1
 452 764 452 764 598 562 c 0,2,3
 736 374 736 374 736 146 c 0,4,5
 736 -116 736 -116 598 -294 c 0,6,7
 462 -472 462 -472 308 -472 c 0,8,9
 264 -472 264 -472 264 -438 c 128,-1,10
 264 -404 264 -404 308 -392 c 0,11,12
 444 -354 444 -354 530 -236 c 0,13,14
 644 -80 644 -80 646 144 c 0,15,16
 646 316 646 316 530 504 c 0,17,18
 444 644 444 644 308 674 c 0,19,20
 264 684 264 684 264 722 c 0,21,22
 264 764 264 764 308 764 c 0,0,1
EndSplineSet
Validated: 1
EndChar

StartChar: asterisk
Encoding: 266 42 10
Width: 1000
VWidth: 1704
Flags: MW
LayerCount: 2
Back
SplineSet
736 1236 m 5,5,-1
 736 -764 l 1029
  Named: "GCEnd"
264 1236 m 5,5,-1
 264 -764 l 1029
  Named: "GCStart"
0 146 m 5,0,-1
 1000 146 l 1029,1,2
  Named: "G2Center"
0 -472 m 5,0,-1
 1000 -472 l 1029,1,2
  Named: "G1Bottom"
0 772 m 5,0,-1
 1000 772 l 1029,1,2
  Named: "G1Top"
118 1236 m 5,3,-1
 118 -764 l 1029
  Named: "GLeft"
882 1236 m 5,5,-1
 882 -764 l 1029
  Named: "GRight"
500 1236 m 5,0,-1
 500 -764 l 1029
0 618 m 5,0,-1
 1000 618 l 1029,1,2
  Named: "G1Center"
590 1236 m 5,3,-1
 590 -764 l 1029
  Named: "GLR"
410 1236 m 5,5,-1
 410 -764 l 1029
  Named: "GRR"
0 236 m 5,0,-1
 1000 236 l 1029,1,2
  Named: "EMSquareCenter"
EndSplineSet
Fore
SplineSet
882 618 m 256,0,1
 882 562 882 562 834 562 c 0,2,3
 796 562 796 562 598 574 c 1,4,-1
 772 420 l 2,5,6
 788 406 788 406 788 384 c 128,-1,7
 788 362 788 362 772 344 c 128,-1,8
 756 326 756 326 733 326 c 128,-1,9
 710 326 710 326 694 342 c 1,10,-1
 542 516 l 1,11,12
 552 284 552 284 552 276 c 0,13,14
 552 236 552 236 500 236 c 256,15,16
 446 236 446 236 446 278 c 0,17,18
 446 282 446 282 458 516 c 1,19,-1
 306 342 l 2,20,21
 292 326 292 326 268 326 c 128,-1,22
 244 326 244 326 228 344 c 128,-1,23
 212 362 212 362 212 384 c 128,-1,24
 212 406 212 406 228 420 c 2,25,-1
 402 574 l 1,26,27
 238 564 238 564 166 564 c 0,28,29
 118 564 118 564 118 618 c 0,30,31
 118 676 118 676 162 676 c 0,32,33
 164 676 164 676 166 676 c 0,34,35
 206 676 206 676 402 656 c 1,36,-1
 228 810 l 2,37,38
 212 824 212 824 212 846 c 128,-1,39
 212 868 212 868 228 886 c 128,-1,40
 244 904 244 904 270 904 c 256,41,42
 294 904 294 904 306 888 c 1,43,-1
 458 714 l 1,44,45
 446 916 446 916 446 946 c 0,46,47
 446 998 446 998 500 1000 c 256,48,49
 552 1000 552 1000 552 950 c 0,50,51
 552 948 552 948 542 714 c 1,52,-1
 694 888 l 2,53,54
 708 904 708 904 732 904 c 128,-1,55
 756 904 756 904 772 886 c 128,-1,56
 788 868 788 868 788 846 c 128,-1,57
 788 824 788 824 772 810 c 2,58,-1
 598 656 l 1,59,60
 820 674 820 674 834 674 c 0,61,62
 882 674 882 674 882 618 c 256,0,1
EndSplineSet
Validated: 1
EndChar

StartChar: plus
Encoding: 267 43 11
Width: 1000
VWidth: 1704
Flags: MW
LayerCount: 2
Back
SplineSet
0 472 m 5,0,-1
 1000 472 l 1029,1,2
  Named: "G1GoldSplit"
0 618 m 5,0,-1
 1000 618 l 1029,1,2
  Named: "G1Center"
736 1236 m 5,5,-1
 736 -764 l 1029
  Named: "GCEnd"
264 1236 m 5,5,-1
 264 -764 l 1029
  Named: "GCStart"
0 146 m 5,0,-1
 1000 146 l 1029,1,2
  Named: "G2Center"
0 -472 m 5,0,-1
 1000 -472 l 1029,1,2
  Named: "G2Bottom"
0 764 m 5,0,-1
 1000 764 l 1029,1,2
  Named: "G2Top"
118 1236 m 5,3,-1
 118 -764 l 1029
  Named: "GLeft"
882 1236 m 5,5,-1
 882 -764 l 1029
  Named: "GRight"
500 1236 m 5,0,-1
 500 -764 l 1029
0 618 m 5,0,-1
 1000 618 l 1029,1,2
  Named: "G1Center"
590 1236 m 5,3,-1
 590 -764 l 1029
  Named: "GLR"
410 1236 m 5,5,-1
 410 -764 l 1029
  Named: "GRR"
0 236 m 5,0,-1
 1000 236 l 1029,1,2
  Named: "EMSquareCenter"
EndSplineSet
Fore
SplineSet
882 618 m 260,0,1
 882 572 882 572 840 572 c 4,2,3
 692 572 692 572 544 572 c 5,4,-1
 544 282 l 6,5,6
 544 236 544 236 500 236 c 260,7,8
 454 236 454 236 454 280 c 6,9,10
 454 572 l 5,11,-1
 164 572 l 6,12,13
 118 572 118 572 118 618 c 132,-1,14
 118 664 118 664 162 664 c 6,15,-1
 454 664 l 5,16,-1
 454 954 l 6,17,18
 454 1000 454 1000 500 1000 c 260,19,20
 544 1000 544 1000 544 954 c 5,21,-1
 544 664 l 5,22,23
 692 664 692 664 840 664 c 4,24,25
 882 664 882 664 882 618 c 260,0,1
EndSplineSet
Validated: 1
EndChar

StartChar: comma
Encoding: 268 44 12
Width: 1000
VWidth: 1704
Flags: MW
LayerCount: 2
Back
SplineSet
736 1236 m 1,5,-1
 736 -764 l 1025
  Named: "GCEnd"
264 1236 m 1,5,-1
 264 -764 l 1025
  Named: "GCStart"
0 146 m 1,0,-1
 1000 146 l 1025,1,2
  Named: "G2Center"
0 -472 m 1,0,-1
 1000 -472 l 1025,1,2
  Named: "G2Bottom"
0 764 m 1,0,-1
 1000 764 l 1025,1,2
  Named: "G2Top"
118 1236 m 1,3,-1
 118 -764 l 1025
  Named: "GLeft"
882 1236 m 1,5,-1
 882 -764 l 1025
  Named: "GRight"
500 1236 m 1,0,-1
 500 -764 l 1025
0 618 m 1,0,-1
 1000 618 l 1025,1,2
  Named: "G1Center"
590 1236 m 1,3,-1
 590 -764 l 1025
  Named: "GLR"
410 1236 m 1,5,-1
 410 -764 l 1025
  Named: "GRR"
0 236 m 1,0,-1
 1000 236 l 1025,1,2
  Named: "EMSquareCenter"
EndSplineSet
Fore
SplineSet
344 -472 m 5,0,1
 118 -472 118 -472 118 -422 c 4,2,3
 118 -362 118 -362 344 -360 c 4,4,5
 690 -356 690 -356 690 106 c 4,6,7
 690 236 690 236 736 236 c 260,8,9
 782 236 782 236 782 106 c 4,10,11
 780 -472 780 -472 344 -472 c 5,0,1
EndSplineSet
Validated: 1
EndChar

StartChar: hyphen
Encoding: 269 45 13
AltUni2: 002010.ffffffff.0
Width: 1000
VWidth: 1704
Flags: MW
LayerCount: 2
Back
SplineSet
0 472 m 5,0,-1
 1000 472 l 1029,1,2
  Named: "G1GoldSplit"
0 618 m 5,0,-1
 1000 618 l 1029,1,2
  Named: "G1Center"
736 1236 m 5,5,-1
 736 -764 l 1029
  Named: "GCEnd"
264 1236 m 5,5,-1
 264 -764 l 1029
  Named: "GCStart"
0 146 m 5,0,-1
 1000 146 l 1029,1,2
  Named: "G2Center"
0 -472 m 5,0,-1
 1000 -472 l 1029,1,2
  Named: "G2Bottom"
0 764 m 5,0,-1
 1000 764 l 1029,1,2
  Named: "G2Top"
118 1236 m 5,3,-1
 118 -764 l 1029
  Named: "GLeft"
882 1236 m 5,5,-1
 882 -764 l 1029
  Named: "GRight"
500 1236 m 5,0,-1
 500 -764 l 1029
0 618 m 5,0,-1
 1000 618 l 1029,1,2
  Named: "G1Center"
590 1236 m 5,3,-1
 590 -764 l 1029
  Named: "GLR"
410 1236 m 5,5,-1
 410 -764 l 1029
  Named: "GRR"
0 236 m 5,0,-1
 1000 236 l 1029,1,2
  Named: "EMSquareCenter"
EndSplineSet
Fore
SplineSet
882 618 m 260,0,1
 882 572 882 572 810 572 c 6,2,-1
 190 572 l 6,3,4
 118 572 118 572 118 618 c 132,-1,5
 118 664 118 664 190 664 c 4,6,7
 504 664 504 664 816 664 c 4,8,9
 882 664 882 664 882 618 c 260,0,1
EndSplineSet
Validated: 1
EndChar

StartChar: period
Encoding: 270 46 14
Width: 1000
VWidth: 1704
Flags: MW
LayerCount: 2
Back
SplineSet
736 1236 m 1,5,-1
 736 -764 l 1025
  Named: "GCEnd"
264 1236 m 1,5,-1
 264 -764 l 1025
  Named: "GCStart"
0 146 m 1,0,-1
 1000 146 l 1025,1,2
  Named: "G2Center"
0 -472 m 1,0,-1
 1000 -472 l 1025,1,2
  Named: "G1Bottom"
0 772 m 1,0,-1
 1000 772 l 1025,1,2
  Named: "G1Top"
118 1236 m 1,3,-1
 118 -764 l 1025
  Named: "GLeft"
882 1236 m 1,5,-1
 882 -764 l 1025
  Named: "GRight"
500 1236 m 1,0,-1
 500 -764 l 1025
0 618 m 1,0,-1
 1000 618 l 1025,1,2
  Named: "G1Center"
590 1236 m 1,3,-1
 590 -764 l 1025
  Named: "GLR"
410 1236 m 1,5,-1
 410 -764 l 1025
  Named: "GRR"
0 236 m 1,0,-1
 1000 236 l 1025,1,2
  Named: "EMSquareCenter"
EndSplineSet
Fore
SplineSet
646 -144 m 260,0,1
 646 -204 646 -204 603 -246 c 132,-1,2
 560 -288 560 -288 502 -288 c 260,3,4
 442 -288 442 -288 398 -246 c 132,-1,5
 354 -204 354 -204 354 -144 c 260,6,7
 354 -84 354 -84 398 -42 c 132,-1,8
 442 0 442 0 502 0 c 260,9,10
 562 0 562 0 604 -42 c 132,-1,11
 646 -84 646 -84 646 -144 c 260,0,1
EndSplineSet
Validated: 1
EndChar

StartChar: slash
Encoding: 271 47 15
Width: 1000
VWidth: 1704
Flags: W
LayerCount: 2
Back
SplineSet
736 1236 m 5,5,-1
 736 -764 l 1029
  Named: "GCEnd"
264 1236 m 5,5,-1
 264 -764 l 1029
  Named: "GCStart"
0 146 m 5,0,-1
 1000 146 l 1029,1,2
  Named: "G2Center"
0 -472 m 5,0,-1
 1000 -472 l 1029,1,2
  Named: "G2Bottom"
0 764 m 5,0,-1
 1000 764 l 1029,1,2
  Named: "G2Top"
118 1236 m 5,3,-1
 118 -764 l 1029
  Named: "GLeft"
882 1236 m 5,5,-1
 882 -764 l 1029
  Named: "GRight"
500 1236 m 5,0,-1
 500 -764 l 1029
0 618 m 5,0,-1
 1000 618 l 1029,1,2
  Named: "G1Center"
590 1236 m 5,3,-1
 590 -764 l 1029
  Named: "GLR"
410 1236 m 5,5,-1
 410 -764 l 1029
  Named: "GRR"
0 236 m 5,0,-1
 1000 236 l 1029,1,2
  Named: "EMSquareCenter"
EndSplineSet
Fore
SplineSet
126 -394 m 2,0,1
 792 1210 l 2,2,3
 802 1236 802 1236 832 1236 c 0,4,5
 838 1236 838 1236 854 1230 c 256,6,7
 882 1218 882 1218 882 1194 c 0,8,9
 882 1190 882 1190 876 1176 c 2,10,-1
 210 -428 l 2,11,12
 192 -472 192 -472 164 -472 c 0,13,14
 154 -472 154 -472 146 -468 c 0,15,16
 118 -454 118 -454 118 -428 c 0,17,18
 118 -414 118 -414 126 -394 c 2,0,1
EndSplineSet
Validated: 1
EndChar

StartChar: zero
Encoding: 272 48 16
Width: 1000
VWidth: 1704
Flags: MW
LayerCount: 2
Back
SplineSet
0 1000 m 5,0,-1
 1000 1000 l 1029,1,2
  Spiro
    0 1000 {
    1000 1000 v
    0 0 z
  EndSpiro
  Named: "G-500/500"
0 472 m 5,0,-1
 1000 472 l 1029,1,2
  Spiro
    0 472 {
    1000 472 v
    0 0 z
  EndSpiro
  Named: "G1GoldSplit"
0 618 m 5,0,-1
 1000 618 l 1029,1,2
  Spiro
    0 618 {
    1000 618 v
    0 0 z
  EndSpiro
  Named: "G1Center"
736 1236 m 5,5,-1
 736 -764 l 1029
  Spiro
    736 1236 {
    736 -764 v
    0 0 z
  EndSpiro
  Named: "GCEnd"
264 1236 m 5,5,-1
 264 -764 l 1029
  Spiro
    264 1236 {
    264 -764 v
    0 0 z
  EndSpiro
  Named: "GCStart"
0 146 m 5,0,-1
 1000 146 l 1029,1,2
  Spiro
    0 146 {
    1000 146 v
    0 0 z
  EndSpiro
  Named: "G2Center"
0 -472 m 5,0,-1
 1000 -472 l 1029,1,2
  Spiro
    0 -472 {
    1000 -472 v
    0 0 z
  EndSpiro
  Named: "G2Bottom"
0 764 m 5,0,-1
 1000 764 l 1029,1,2
  Spiro
    0 764 {
    1000 764 v
    0 0 z
  EndSpiro
  Named: "G2Top"
118 1236 m 5,3,-1
 118 -764 l 1029
  Spiro
    118 1236 {
    118 -764 v
    0 0 z
  EndSpiro
  Named: "GLeft"
882 1236 m 5,5,-1
 882 -764 l 1029
  Spiro
    882 1236 {
    882 -764 v
    0 0 z
  EndSpiro
  Named: "GRight"
500 1236 m 5,0,-1
 500 -764 l 1029
  Spiro
    500 1236 {
    500 -764 v
    0 0 z
  EndSpiro
0 618 m 5,0,-1
 1000 618 l 1029,1,2
  Spiro
    0 618 {
    1000 618 v
    0 0 z
  EndSpiro
  Named: "G1Center"
590 1236 m 5,3,-1
 590 -764 l 1029
  Spiro
    590 1236 {
    590 -764 v
    0 0 z
  EndSpiro
  Named: "GLR"
410 1236 m 5,5,-1
 410 -764 l 1029
  Spiro
    410 1236 {
    410 -764 v
    0 0 z
  EndSpiro
  Named: "GRR"
0 236 m 5,0,-1
 1000 236 l 1029,1,2
  Spiro
    0 236 {
    1000 236 v
    0 0 z
  EndSpiro
  Named: "EMSquareCenter"
EndSplineSet
Fore
SplineSet
644 500 m 260,0,1
 644 440 644 440 601 398 c 132,-1,2
 558 356 558 356 500 356 c 260,3,4
 440 356 440 356 396 398 c 132,-1,5
 352 440 352 440 352 500 c 260,6,7
 352 560 352 560 396 602 c 132,-1,8
 440 644 440 644 500 644 c 260,9,10
 560 644 560 644 602 602 c 132,-1,11
 644 560 644 560 644 500 c 260,0,1
790 500 m 0,12,13
 790 662 790 662 712 784 c 0,14,15
 630 908 630 908 500 908 c 0,16,17
 366 908 366 908 284 778 c 0,18,19
 210 660 210 660 210 500 c 0,20,21
 210 344 210 344 284 228 c 0,22,23
 370 92 370 92 500 92 c 256,24,25
 628 92 628 92 714 228 c 0,26,27
 790 352 790 352 790 500 c 0,12,13
882 500 m 0,28,29
 882 318 882 318 782 166 c 0,30,31
 670 0 670 0 500 0 c 256,32,33
 330 0 330 0 216 166 c 0,34,35
 118 308 118 308 118 500 c 0,36,37
 118 696 118 696 216 840 c 0,38,39
 324 1000 324 1000 500 1000 c 0,40,41
 672 1000 672 1000 778 848 c 0,42,43
 882 698 882 698 882 500 c 0,28,29
EndSplineSet
Validated: 1
EndChar

StartChar: one
Encoding: 273 49 17
Width: 1000
VWidth: 1704
Flags: MW
LayerCount: 2
Back
SplineSet
0 1000 m 1,0,-1
 1000 1000 l 1025,1,2
  Spiro
    0 1000 {
    1000 1000 v
    0 0 z
  EndSpiro
  Named: "G-500/500"
0 472 m 1,0,-1
 1000 472 l 1025,1,2
  Spiro
    0 472 {
    1000 472 v
    0 0 z
  EndSpiro
  Named: "G1GoldSplit"
0 618 m 1,0,-1
 1000 618 l 1025,1,2
  Spiro
    0 618 {
    1000 618 v
    0 0 z
  EndSpiro
  Named: "G1Center"
736 1236 m 1,5,-1
 736 -764 l 1025
  Spiro
    736 1236 {
    736 -764 v
    0 0 z
  EndSpiro
  Named: "GCEnd"
264 1236 m 1,5,-1
 264 -764 l 1025
  Spiro
    264 1236 {
    264 -764 v
    0 0 z
  EndSpiro
  Named: "GCStart"
0 146 m 1,0,-1
 1000 146 l 1025,1,2
  Spiro
    0 146 {
    1000 146 v
    0 0 z
  EndSpiro
  Named: "G2Center"
0 -472 m 1,0,-1
 1000 -472 l 1025,1,2
  Spiro
    0 -472 {
    1000 -472 v
    0 0 z
  EndSpiro
  Named: "G2Bottom"
0 764 m 1,0,-1
 1000 764 l 1025,1,2
  Spiro
    0 764 {
    1000 764 v
    0 0 z
  EndSpiro
  Named: "G2Top"
118 1236 m 1,3,-1
 118 -764 l 1025
  Spiro
    118 1236 {
    118 -764 v
    0 0 z
  EndSpiro
  Named: "GLeft"
882 1236 m 1,5,-1
 882 -764 l 1025
  Spiro
    882 1236 {
    882 -764 v
    0 0 z
  EndSpiro
  Named: "GRight"
500 1236 m 1,0,-1
 500 -764 l 1025
  Spiro
    500 1236 {
    500 -764 v
    0 0 z
  EndSpiro
0 618 m 1,0,-1
 1000 618 l 1025,1,2
  Spiro
    0 618 {
    1000 618 v
    0 0 z
  EndSpiro
  Named: "G1Center"
590 1236 m 1,3,-1
 590 -764 l 1025
  Spiro
    590 1236 {
    590 -764 v
    0 0 z
  EndSpiro
  Named: "GLR"
410 1236 m 1,5,-1
 410 -764 l 1025
  Spiro
    410 1236 {
    410 -764 v
    0 0 z
  EndSpiro
  Named: "GRR"
0 236 m 1,0,-1
 1000 236 l 1025,1,2
  Spiro
    0 236 {
    1000 236 v
    0 0 z
  EndSpiro
  Named: "EMSquareCenter"
EndSplineSet
Fore
SplineSet
882 46 m 256,0,1
 882 0 882 0 820 0 c 2,2,-1
 276 0 l 2,3,4
 214 0 214 0 212 46 c 256,5,6
 212 90 212 90 274 92 c 0,7,8
 388 92 388 92 500 92 c 1,9,-1
 500 858 l 1,10,-1
 182 626 l 2,11,12
 172 618 172 618 160 618 c 0,13,14
 136 618 136 618 128 632 c 0,15,16
 118 650 118 650 118 660 c 0,17,18
 118 674 118 674 134 686 c 2,19,-1
 500 974 l 2,20,21
 534 1000 534 1000 546 1000 c 0,22,23
 592 1000 592 1000 592 930 c 2,24,-1
 592 92 l 1,25,26
 708 92 708 92 824 92 c 0,27,28
 882 92 882 92 882 46 c 256,0,1
EndSplineSet
Validated: 1
EndChar

StartChar: two
Encoding: 274 50 18
Width: 1000
VWidth: 1704
Flags: MW
LayerCount: 2
Back
SplineSet
0 1000 m 5,0,-1
 1000 1000 l 1029,1,2
  Spiro
    0 1000 {
    1000 1000 v
    0 0 z
  EndSpiro
  Named: "G-500/500"
0 472 m 5,0,-1
 1000 472 l 1029,1,2
  Spiro
    0 472 {
    1000 472 v
    0 0 z
  EndSpiro
  Named: "G1GoldSplit"
0 618 m 5,0,-1
 1000 618 l 1029,1,2
  Spiro
    0 618 {
    1000 618 v
    0 0 z
  EndSpiro
  Named: "G1Center"
736 1236 m 5,5,-1
 736 -764 l 1029
  Spiro
    736 1236 {
    736 -764 v
    0 0 z
  EndSpiro
  Named: "GCEnd"
264 1236 m 5,5,-1
 264 -764 l 1029
  Spiro
    264 1236 {
    264 -764 v
    0 0 z
  EndSpiro
  Named: "GCStart"
0 146 m 5,0,-1
 1000 146 l 1029,1,2
  Spiro
    0 146 {
    1000 146 v
    0 0 z
  EndSpiro
  Named: "G2Center"
0 -472 m 5,0,-1
 1000 -472 l 1029,1,2
  Spiro
    0 -472 {
    1000 -472 v
    0 0 z
  EndSpiro
  Named: "G2Bottom"
0 764 m 5,0,-1
 1000 764 l 1029,1,2
  Spiro
    0 764 {
    1000 764 v
    0 0 z
  EndSpiro
  Named: "G2Top"
118 1236 m 5,3,-1
 118 -764 l 1029
  Spiro
    118 1236 {
    118 -764 v
    0 0 z
  EndSpiro
  Named: "GLeft"
882 1236 m 5,5,-1
 882 -764 l 1029
  Spiro
    882 1236 {
    882 -764 v
    0 0 z
  EndSpiro
  Named: "GRight"
500 1236 m 5,0,-1
 500 -764 l 1029
  Spiro
    500 1236 {
    500 -764 v
    0 0 z
  EndSpiro
0 618 m 5,0,-1
 1000 618 l 1029,1,2
  Spiro
    0 618 {
    1000 618 v
    0 0 z
  EndSpiro
  Named: "G1Center"
590 1236 m 5,3,-1
 590 -764 l 1029
  Spiro
    590 1236 {
    590 -764 v
    0 0 z
  EndSpiro
  Named: "GLR"
410 1236 m 5,5,-1
 410 -764 l 1029
  Spiro
    410 1236 {
    410 -764 v
    0 0 z
  EndSpiro
  Named: "GRR"
0 236 m 5,0,-1
 1000 236 l 1029,1,2
  Spiro
    0 236 {
    1000 236 v
    0 0 z
  EndSpiro
  Named: "EMSquareCenter"
EndSplineSet
Fore
SplineSet
882 648 m 0,0,1
 882 532 882 532 792 422 c 0,2,3
 732 348 732 348 590 247 c 128,-1,4
 448 146 448 146 308 92 c 1,5,-1
 816 92 l 2,6,7
 880 92 880 92 882 46 c 256,8,9
 882 0 882 0 816 0 c 2,10,-1
 190 0 l 2,11,12
 118 0 118 0 118 46 c 0,13,14
 118 68 118 68 146 92 c 0,15,16
 190 130 190 130 312 196 c 0,17,18
 788 456 788 456 790 648 c 0,19,20
 790 746 790 746 696 827 c 128,-1,21
 602 908 602 908 502 908 c 256,22,23
 374 908 374 908 294 826 c 128,-1,24
 214 744 214 744 214 648 c 0,25,26
 214 590 214 590 166 590 c 256,27,28
 118 590 118 590 118 648 c 0,29,30
 118 794 118 794 234 898 c 128,-1,31
 350 1002 350 1002 502 1002 c 256,32,33
 654 1002 654 1002 768 898 c 128,-1,34
 882 794 882 794 882 648 c 0,0,1
EndSplineSet
Validated: 1
EndChar

StartChar: three
Encoding: 275 51 19
Width: 1000
VWidth: 1704
Flags: MW
LayerCount: 2
Back
SplineSet
0 -236 m 5,0,-1
 1000 -236 l 1029,1,2
  Spiro
    0 -236 {
    1000 -236 v
    0 0 z
  EndSpiro
  Named: "GBottom-500-500"
0 1000 m 5,0,-1
 1000 1000 l 1029,1,2
  Spiro
    0 1000 {
    1000 1000 v
    0 0 z
  EndSpiro
  Named: "G-500/500"
0 472 m 5,0,-1
 1000 472 l 1029,1,2
  Spiro
    0 472 {
    1000 472 v
    0 0 z
  EndSpiro
  Named: "G1GoldSplit"
0 618 m 5,0,-1
 1000 618 l 1029,1,2
  Spiro
    0 618 {
    1000 618 v
    0 0 z
  EndSpiro
  Named: "G1Center"
736 1236 m 5,5,-1
 736 -764 l 1029
  Spiro
    736 1236 {
    736 -764 v
    0 0 z
  EndSpiro
  Named: "GCEnd"
264 1236 m 5,5,-1
 264 -764 l 1029
  Spiro
    264 1236 {
    264 -764 v
    0 0 z
  EndSpiro
  Named: "GCStart"
0 146 m 5,0,-1
 1000 146 l 1029,1,2
  Spiro
    0 146 {
    1000 146 v
    0 0 z
  EndSpiro
  Named: "G2Center"
0 -472 m 5,0,-1
 1000 -472 l 1029,1,2
  Spiro
    0 -472 {
    1000 -472 v
    0 0 z
  EndSpiro
  Named: "G2Bottom"
0 764 m 5,0,-1
 1000 764 l 1029,1,2
  Spiro
    0 764 {
    1000 764 v
    0 0 z
  EndSpiro
  Named: "G2Top"
118 1236 m 5,3,-1
 118 -764 l 1029
  Spiro
    118 1236 {
    118 -764 v
    0 0 z
  EndSpiro
  Named: "GLeft"
882 1236 m 5,5,-1
 882 -764 l 1029
  Spiro
    882 1236 {
    882 -764 v
    0 0 z
  EndSpiro
  Named: "GRight"
500 1236 m 5,0,-1
 500 -764 l 1029
  Spiro
    500 1236 {
    500 -764 v
    0 0 z
  EndSpiro
0 618 m 5,0,-1
 1000 618 l 1029,1,2
  Spiro
    0 618 {
    1000 618 v
    0 0 z
  EndSpiro
  Named: "G1Center"
590 1236 m 5,3,-1
 590 -764 l 1029
  Spiro
    590 1236 {
    590 -764 v
    0 0 z
  EndSpiro
  Named: "GLR"
410 1236 m 5,5,-1
 410 -764 l 1029
  Spiro
    410 1236 {
    410 -764 v
    0 0 z
  EndSpiro
  Named: "GRR"
0 236 m 5,0,-1
 1000 236 l 1029,1,2
  Spiro
    0 236 {
    1000 236 v
    0 0 z
  EndSpiro
  Named: "EMSquareCenter"
EndSplineSet
Fore
SplineSet
882 954 m 0,0,1
 882 932 882 932 854 908 c 1,2,-1
 498 568 l 1,3,4
 656 558 656 558 769 434 c 128,-1,5
 882 310 882 310 882 146 c 0,6,7
 882 -16 882 -16 761 -126 c 128,-1,8
 640 -236 640 -236 474 -236 c 0,9,10
 376 -236 376 -236 274 -180 c 0,11,12
 176 -124 176 -124 128 -34 c 0,13,14
 118 -16 118 -16 118 0 c 0,15,16
 118 30 118 30 132 42 c 0,17,18
 152 60 152 60 182 36 c 128,-1,19
 212 12 212 12 236 -20 c 0,20,21
 332 -152 332 -152 476 -152 c 0,22,23
 616 -152 616 -152 700 -66 c 0,24,25
 790 24 790 24 790 146 c 256,26,27
 790 290 790 290 704 388 c 128,-1,28
 618 486 618 486 502 486 c 0,29,30
 500 486 500 486 498 486 c 0,31,32
 400 486 400 486 282 386 c 0,33,34
 234 348 234 348 214 348 c 0,35,36
 188 348 188 348 188 369 c 128,-1,37
 188 390 188 390 224 424 c 2,38,-1
 736 908 l 1,39,-1
 178 908 l 2,40,41
 118 908 118 908 118 954 c 128,-1,42
 118 1000 118 1000 176 1000 c 0,43,44
 496 1000 496 1000 816 1000 c 0,45,46
 882 1000 882 1000 882 954 c 0,0,1
EndSplineSet
Validated: 1
EndChar

StartChar: four
Encoding: 276 52 20
Width: 1000
VWidth: 1704
Flags: MW
LayerCount: 2
Back
SplineSet
0 -236 m 5,0,-1
 1000 -236 l 1029,1,2
  Spiro
    0 -236 {
    1000 -236 v
    0 0 z
  EndSpiro
  Named: "GBottom-500-500"
0 1000 m 5,0,-1
 1000 1000 l 1029,1,2
  Spiro
    0 1000 {
    1000 1000 v
    0 0 z
  EndSpiro
  Named: "G-500/500"
0 472 m 5,0,-1
 1000 472 l 1029,1,2
  Spiro
    0 472 {
    1000 472 v
    0 0 z
  EndSpiro
  Named: "G1GoldSplit"
0 618 m 5,0,-1
 1000 618 l 1029,1,2
  Spiro
    0 618 {
    1000 618 v
    0 0 z
  EndSpiro
  Named: "G1Center"
736 1236 m 5,5,-1
 736 -764 l 1029
  Spiro
    736 1236 {
    736 -764 v
    0 0 z
  EndSpiro
  Named: "GCEnd"
264 1236 m 5,5,-1
 264 -764 l 1029
  Spiro
    264 1236 {
    264 -764 v
    0 0 z
  EndSpiro
  Named: "GCStart"
0 146 m 5,0,-1
 1000 146 l 1029,1,2
  Spiro
    0 146 {
    1000 146 v
    0 0 z
  EndSpiro
  Named: "G2Center"
0 -472 m 5,0,-1
 1000 -472 l 1029,1,2
  Spiro
    0 -472 {
    1000 -472 v
    0 0 z
  EndSpiro
  Named: "G2Bottom"
0 764 m 5,0,-1
 1000 764 l 1029,1,2
  Spiro
    0 764 {
    1000 764 v
    0 0 z
  EndSpiro
  Named: "G2Top"
118 1236 m 5,3,-1
 118 -764 l 1029
  Spiro
    118 1236 {
    118 -764 v
    0 0 z
  EndSpiro
  Named: "GLeft"
882 1236 m 5,5,-1
 882 -764 l 1029
  Spiro
    882 1236 {
    882 -764 v
    0 0 z
  EndSpiro
  Named: "GRight"
500 1236 m 5,0,-1
 500 -764 l 1029
  Spiro
    500 1236 {
    500 -764 v
    0 0 z
  EndSpiro
0 618 m 5,0,-1
 1000 618 l 1029,1,2
  Spiro
    0 618 {
    1000 618 v
    0 0 z
  EndSpiro
  Named: "G1Center"
590 1236 m 5,3,-1
 590 -764 l 1029
  Spiro
    590 1236 {
    590 -764 v
    0 0 z
  EndSpiro
  Named: "GLR"
410 1236 m 5,5,-1
 410 -764 l 1029
  Spiro
    410 1236 {
    410 -764 v
    0 0 z
  EndSpiro
  Named: "GRR"
0 236 m 5,0,-1
 1000 236 l 1029,1,2
  Spiro
    0 236 {
    1000 236 v
    0 0 z
  EndSpiro
  Named: "EMSquareCenter"
EndSplineSet
Fore
SplineSet
882 190 m 256,0,1
 882 144 882 144 824 144 c 0,2,3
 756 144 756 144 688 144 c 1,4,-1
 688 -174 l 2,5,6
 688 -236 688 -236 636 -236 c 256,7,8
 590 -236 590 -236 590 -174 c 2,9,-1
 590 144 l 1,10,-1
 186 144 l 2,11,12
 118 144 118 144 118 182 c 0,13,14
 118 196 118 196 134 222 c 2,15,-1
 576 964 l 2,16,17
 598 1000 598 1000 636 1000 c 0,18,19
 688 1000 688 1000 688 930 c 2,20,-1
 688 236 l 1,21,-1
 822 236 l 2,22,23
 882 236 882 236 882 190 c 256,0,1
590 236 m 1,24,-1
 590 800 l 1,25,-1
 242 236 l 1,26,-1
 590 236 l 1,24,-1
EndSplineSet
Validated: 1
EndChar

StartChar: five
Encoding: 277 53 21
Width: 1000
VWidth: 1704
Flags: MW
LayerCount: 2
Back
SplineSet
0 -236 m 5,0,-1
 1000 -236 l 1029,1,2
  Spiro
    0 -236 {
    1000 -236 v
    0 0 z
  EndSpiro
  Named: "GBottom-500-500"
0 1000 m 5,0,-1
 1000 1000 l 1029,1,2
  Spiro
    0 1000 {
    1000 1000 v
    0 0 z
  EndSpiro
  Named: "G-500/500"
0 472 m 5,0,-1
 1000 472 l 1029,1,2
  Spiro
    0 472 {
    1000 472 v
    0 0 z
  EndSpiro
  Named: "G1GoldSplit"
0 618 m 5,0,-1
 1000 618 l 1029,1,2
  Spiro
    0 618 {
    1000 618 v
    0 0 z
  EndSpiro
  Named: "G1Center"
736 1236 m 5,5,-1
 736 -764 l 1029
  Spiro
    736 1236 {
    736 -764 v
    0 0 z
  EndSpiro
  Named: "GCEnd"
264 1236 m 5,5,-1
 264 -764 l 1029
  Spiro
    264 1236 {
    264 -764 v
    0 0 z
  EndSpiro
  Named: "GCStart"
0 146 m 5,0,-1
 1000 146 l 1029,1,2
  Spiro
    0 146 {
    1000 146 v
    0 0 z
  EndSpiro
  Named: "G2Center"
0 -472 m 5,0,-1
 1000 -472 l 1029,1,2
  Spiro
    0 -472 {
    1000 -472 v
    0 0 z
  EndSpiro
  Named: "G2Bottom"
0 764 m 5,0,-1
 1000 764 l 1029,1,2
  Spiro
    0 764 {
    1000 764 v
    0 0 z
  EndSpiro
  Named: "G2Top"
118 1236 m 5,3,-1
 118 -764 l 1029
  Spiro
    118 1236 {
    118 -764 v
    0 0 z
  EndSpiro
  Named: "GLeft"
882 1236 m 5,5,-1
 882 -764 l 1029
  Spiro
    882 1236 {
    882 -764 v
    0 0 z
  EndSpiro
  Named: "GRight"
500 1236 m 5,0,-1
 500 -764 l 1029
  Spiro
    500 1236 {
    500 -764 v
    0 0 z
  EndSpiro
0 618 m 5,0,-1
 1000 618 l 1029,1,2
  Spiro
    0 618 {
    1000 618 v
    0 0 z
  EndSpiro
  Named: "G1Center"
590 1236 m 5,3,-1
 590 -764 l 1029
  Spiro
    590 1236 {
    590 -764 v
    0 0 z
  EndSpiro
  Named: "GLR"
410 1236 m 5,5,-1
 410 -764 l 1029
  Spiro
    410 1236 {
    410 -764 v
    0 0 z
  EndSpiro
  Named: "GRR"
0 236 m 5,0,-1
 1000 236 l 1029,1,2
  Spiro
    0 236 {
    1000 236 v
    0 0 z
  EndSpiro
  Named: "EMSquareCenter"
EndSplineSet
Fore
SplineSet
882 194 m 256,0,1
 882 16 882 16 764 -110 c 128,-1,2
 646 -236 646 -236 478 -236 c 0,3,4
 370 -236 370 -236 268 -175 c 128,-1,5
 166 -114 166 -114 128 -22 c 0,6,7
 118 2 118 2 118 19 c 128,-1,8
 118 36 118 36 128 46 c 0,9,10
 146 64 146 64 164 64 c 0,11,12
 186 64 186 64 208 32 c 0,13,14
 246 -22 246 -22 252 -30 c 0,15,16
 346 -144 346 -144 484 -144 c 0,17,18
 618 -144 618 -144 694 -56 c 0,19,20
 790 52 790 52 790 194 c 256,21,22
 790 344 790 344 703 440 c 128,-1,23
 616 536 616 536 478 536 c 0,24,25
 248 536 248 536 214 362 c 0,26,27
 204 310 204 310 156 310 c 0,28,29
 118 310 118 310 118 366 c 0,30,31
 118 378 118 378 120 392 c 2,32,-1
 200 948 l 2,33,34
 202 966 202 966 220 984 c 0,35,36
 240 1000 240 1000 256 1000 c 2,37,-1
 824 1000 l 2,38,39
 882 1000 882 1000 882 954 c 256,40,41
 882 908 882 908 824 908 c 2,42,-1
 276 908 l 1,43,-1
 230 564 l 1,44,45
 326 628 326 628 486 628 c 128,-1,46
 646 628 646 628 764 500 c 128,-1,47
 882 372 882 372 882 194 c 256,0,1
EndSplineSet
Validated: 1
EndChar

StartChar: six
Encoding: 278 54 22
Width: 1000
VWidth: 1704
Flags: MW
LayerCount: 2
Back
SplineSet
0 -236 m 5,0,-1
 1000 -236 l 1029,1,2
  Spiro
    0 -236 {
    1000 -236 v
    0 0 z
  EndSpiro
  Named: "GBottom-500-500"
0 1000 m 5,0,-1
 1000 1000 l 1029,1,2
  Spiro
    0 1000 {
    1000 1000 v
    0 0 z
  EndSpiro
  Named: "G-500/500"
0 472 m 5,0,-1
 1000 472 l 1029,1,2
  Spiro
    0 472 {
    1000 472 v
    0 0 z
  EndSpiro
  Named: "G1GoldSplit"
0 618 m 5,0,-1
 1000 618 l 1029,1,2
  Spiro
    0 618 {
    1000 618 v
    0 0 z
  EndSpiro
  Named: "G1Center"
736 1236 m 5,5,-1
 736 -764 l 1029
  Spiro
    736 1236 {
    736 -764 v
    0 0 z
  EndSpiro
  Named: "GCEnd"
264 1236 m 5,5,-1
 264 -764 l 1029
  Spiro
    264 1236 {
    264 -764 v
    0 0 z
  EndSpiro
  Named: "GCStart"
0 146 m 5,0,-1
 1000 146 l 1029,1,2
  Spiro
    0 146 {
    1000 146 v
    0 0 z
  EndSpiro
  Named: "G2Center"
0 -472 m 5,0,-1
 1000 -472 l 1029,1,2
  Spiro
    0 -472 {
    1000 -472 v
    0 0 z
  EndSpiro
  Named: "G2Bottom"
0 764 m 5,0,-1
 1000 764 l 1029,1,2
  Spiro
    0 764 {
    1000 764 v
    0 0 z
  EndSpiro
  Named: "G2Top"
118 1236 m 5,3,-1
 118 -764 l 1029
  Spiro
    118 1236 {
    118 -764 v
    0 0 z
  EndSpiro
  Named: "GLeft"
882 1236 m 5,5,-1
 882 -764 l 1029
  Spiro
    882 1236 {
    882 -764 v
    0 0 z
  EndSpiro
  Named: "GRight"
500 1236 m 5,0,-1
 500 -764 l 1029
  Spiro
    500 1236 {
    500 -764 v
    0 0 z
  EndSpiro
0 618 m 5,0,-1
 1000 618 l 1029,1,2
  Spiro
    0 618 {
    1000 618 v
    0 0 z
  EndSpiro
  Named: "G1Center"
590 1236 m 5,3,-1
 590 -764 l 1029
  Spiro
    590 1236 {
    590 -764 v
    0 0 z
  EndSpiro
  Named: "GLR"
410 1236 m 5,5,-1
 410 -764 l 1029
  Spiro
    410 1236 {
    410 -764 v
    0 0 z
  EndSpiro
  Named: "GRR"
0 236 m 5,0,-1
 1000 236 l 1029,1,2
  Spiro
    0 236 {
    1000 236 v
    0 0 z
  EndSpiro
  Named: "EMSquareCenter"
EndSplineSet
Fore
SplineSet
882 1190 m 256,0,1
 882 1144 882 1144 826 1142 c 0,2,3
 638 1134 638 1134 522 1060 c 0,4,5
 388 974 388 974 240 730 c 1,6,7
 382 868 382 868 494 868 c 0,8,9
 656 868 656 868 768 740 c 0,10,11
 882 610 882 610 882 428 c 0,12,13
 882 258 882 258 770 128 c 0,14,15
 658 0 658 0 498 0 c 256,16,17
 340 0 340 0 229 127 c 128,-1,18
 118 254 118 254 118 434 c 0,19,20
 118 768 118 768 325 1002 c 128,-1,21
 532 1236 532 1236 826 1236 c 0,22,23
 882 1236 882 1236 882 1190 c 256,0,1
790 434 m 256,24,25
 790 576 790 576 705 676 c 128,-1,26
 620 776 620 776 498 776 c 256,27,28
 380 776 380 776 294 676 c 0,29,30
 210 576 210 576 210 434 c 256,31,32
 210 292 210 292 294 192 c 128,-1,33
 378 92 378 92 498 92 c 256,34,35
 616 92 616 92 703 192 c 128,-1,36
 790 292 790 292 790 434 c 256,24,25
EndSplineSet
Validated: 1
EndChar

StartChar: seven
Encoding: 279 55 23
Width: 1000
VWidth: 1704
Flags: MW
LayerCount: 2
Back
SplineSet
0 -236 m 5,0,-1
 1000 -236 l 1029,1,2
  Spiro
    0 -236 {
    1000 -236 v
    0 0 z
  EndSpiro
  Named: "GBottom-500-500"
0 1000 m 5,0,-1
 1000 1000 l 1029,1,2
  Spiro
    0 1000 {
    1000 1000 v
    0 0 z
  EndSpiro
  Named: "G-500/500"
0 472 m 5,0,-1
 1000 472 l 1029,1,2
  Spiro
    0 472 {
    1000 472 v
    0 0 z
  EndSpiro
  Named: "G1GoldSplit"
0 618 m 5,0,-1
 1000 618 l 1029,1,2
  Spiro
    0 618 {
    1000 618 v
    0 0 z
  EndSpiro
  Named: "G1Center"
736 1236 m 5,5,-1
 736 -764 l 1029
  Spiro
    736 1236 {
    736 -764 v
    0 0 z
  EndSpiro
  Named: "GCEnd"
264 1236 m 5,5,-1
 264 -764 l 1029
  Spiro
    264 1236 {
    264 -764 v
    0 0 z
  EndSpiro
  Named: "GCStart"
0 146 m 5,0,-1
 1000 146 l 1029,1,2
  Spiro
    0 146 {
    1000 146 v
    0 0 z
  EndSpiro
  Named: "G2Center"
0 -472 m 5,0,-1
 1000 -472 l 1029,1,2
  Spiro
    0 -472 {
    1000 -472 v
    0 0 z
  EndSpiro
  Named: "G2Bottom"
0 764 m 5,0,-1
 1000 764 l 1029,1,2
  Spiro
    0 764 {
    1000 764 v
    0 0 z
  EndSpiro
  Named: "G2Top"
118 1236 m 5,3,-1
 118 -764 l 1029
  Spiro
    118 1236 {
    118 -764 v
    0 0 z
  EndSpiro
  Named: "GLeft"
882 1236 m 5,5,-1
 882 -764 l 1029
  Spiro
    882 1236 {
    882 -764 v
    0 0 z
  EndSpiro
  Named: "GRight"
500 1236 m 5,0,-1
 500 -764 l 1029
  Spiro
    500 1236 {
    500 -764 v
    0 0 z
  EndSpiro
0 618 m 5,0,-1
 1000 618 l 1029,1,2
  Spiro
    0 618 {
    1000 618 v
    0 0 z
  EndSpiro
  Named: "G1Center"
590 1236 m 5,3,-1
 590 -764 l 1029
  Spiro
    590 1236 {
    590 -764 v
    0 0 z
  EndSpiro
  Named: "GLR"
410 1236 m 5,5,-1
 410 -764 l 1029
  Spiro
    410 1236 {
    410 -764 v
    0 0 z
  EndSpiro
  Named: "GRR"
0 236 m 5,0,-1
 1000 236 l 1029,1,2
  Spiro
    0 236 {
    1000 236 v
    0 0 z
  EndSpiro
  Named: "EMSquareCenter"
EndSplineSet
Fore
SplineSet
882 958 m 0,0,1
 882 930 882 930 872 908 c 2,2,-1
 346 -202 l 2,3,4
 330 -236 330 -236 300 -236 c 0,5,6
 282 -236 282 -236 260 -224 c 128,-1,7
 238 -212 238 -212 238 -186 c 0,8,9
 238 -168 238 -168 250 -144 c 2,10,-1
 770 908 l 1,11,-1
 170 908 l 2,12,13
 118 908 118 908 118 954 c 128,-1,14
 118 1000 118 1000 170 1000 c 2,15,-1
 828 1000 l 2,16,17
 882 1000 882 1000 882 958 c 0,0,1
EndSplineSet
Validated: 1
EndChar

StartChar: eight
Encoding: 280 56 24
Width: 1000
VWidth: 1704
Flags: MW
LayerCount: 2
Back
SplineSet
0 -236 m 5,0,-1
 1000 -236 l 1029,1,2
  Spiro
    0 -236 {
    1000 -236 v
    0 0 z
  EndSpiro
  Named: "GBottom-500-500"
0 1000 m 5,0,-1
 1000 1000 l 1029,1,2
  Spiro
    0 1000 {
    1000 1000 v
    0 0 z
  EndSpiro
  Named: "G-500/500"
0 472 m 5,0,-1
 1000 472 l 1029,1,2
  Spiro
    0 472 {
    1000 472 v
    0 0 z
  EndSpiro
  Named: "G1GoldSplit"
0 618 m 5,0,-1
 1000 618 l 1029,1,2
  Spiro
    0 618 {
    1000 618 v
    0 0 z
  EndSpiro
  Named: "G1Center"
736 1236 m 5,5,-1
 736 -764 l 1029
  Spiro
    736 1236 {
    736 -764 v
    0 0 z
  EndSpiro
  Named: "GCEnd"
264 1236 m 5,5,-1
 264 -764 l 1029
  Spiro
    264 1236 {
    264 -764 v
    0 0 z
  EndSpiro
  Named: "GCStart"
0 146 m 5,0,-1
 1000 146 l 1029,1,2
  Spiro
    0 146 {
    1000 146 v
    0 0 z
  EndSpiro
  Named: "G2Center"
0 -472 m 5,0,-1
 1000 -472 l 1029,1,2
  Spiro
    0 -472 {
    1000 -472 v
    0 0 z
  EndSpiro
  Named: "G2Bottom"
0 764 m 5,0,-1
 1000 764 l 1029,1,2
  Spiro
    0 764 {
    1000 764 v
    0 0 z
  EndSpiro
  Named: "G2Top"
118 1236 m 5,3,-1
 118 -764 l 1029
  Spiro
    118 1236 {
    118 -764 v
    0 0 z
  EndSpiro
  Named: "GLeft"
882 1236 m 5,5,-1
 882 -764 l 1029
  Spiro
    882 1236 {
    882 -764 v
    0 0 z
  EndSpiro
  Named: "GRight"
500 1236 m 5,0,-1
 500 -764 l 1029
  Spiro
    500 1236 {
    500 -764 v
    0 0 z
  EndSpiro
0 618 m 5,0,-1
 1000 618 l 1029,1,2
  Spiro
    0 618 {
    1000 618 v
    0 0 z
  EndSpiro
  Named: "G1Center"
590 1236 m 5,3,-1
 590 -764 l 1029
  Spiro
    590 1236 {
    590 -764 v
    0 0 z
  EndSpiro
  Named: "GLR"
410 1236 m 5,5,-1
 410 -764 l 1029
  Spiro
    410 1236 {
    410 -764 v
    0 0 z
  EndSpiro
  Named: "GRR"
0 236 m 5,0,-1
 1000 236 l 1029,1,2
  Spiro
    0 236 {
    1000 236 v
    0 0 z
  EndSpiro
  Named: "EMSquareCenter"
EndSplineSet
Fore
SplineSet
882 372 m 0,0,1
 882 218 882 218 770 109 c 128,-1,2
 658 0 658 0 500 0 c 256,3,4
 342 0 342 0 230 109 c 128,-1,5
 118 218 118 218 118 372 c 0,6,7
 118 578 118 578 300 688 c 1,8,9
 180 780 180 780 180 924 c 0,10,11
 180 1056 180 1056 273 1146 c 128,-1,12
 366 1236 366 1236 500 1236 c 256,13,14
 632 1236 632 1236 726 1146 c 128,-1,15
 820 1056 820 1056 820 928 c 0,16,17
 820 780 820 780 700 688 c 1,18,19
 882 578 882 578 882 372 c 0,0,1
726 928 m 256,20,21
 726 1016 726 1016 658 1081 c 128,-1,22
 590 1146 590 1146 500 1146 c 256,23,24
 408 1146 408 1146 340 1081 c 128,-1,25
 272 1016 272 1016 272 928 c 256,26,27
 272 840 272 840 338 776 c 128,-1,28
 404 712 404 712 500 712 c 256,29,30
 592 712 592 712 659 776 c 128,-1,31
 726 840 726 840 726 928 c 256,20,21
788 372 m 256,32,33
 788 488 788 488 704 570 c 128,-1,34
 620 652 620 652 500 652 c 256,35,36
 380 652 380 652 295 571 c 128,-1,37
 210 490 210 490 210 372 c 256,38,39
 210 256 210 256 295 174 c 128,-1,40
 380 92 380 92 500 92 c 256,41,42
 620 92 620 92 704 174 c 128,-1,43
 788 256 788 256 788 372 c 256,32,33
EndSplineSet
Validated: 1
EndChar

StartChar: nine
Encoding: 281 57 25
Width: 1000
VWidth: 1704
Flags: MW
LayerCount: 2
Back
SplineSet
0 -236 m 5,0,-1
 1000 -236 l 1029,1,2
  Spiro
    0 -236 {
    1000 -236 v
    0 0 z
  EndSpiro
  Named: "GBottom-500-500"
0 1000 m 5,0,-1
 1000 1000 l 1029,1,2
  Spiro
    0 1000 {
    1000 1000 v
    0 0 z
  EndSpiro
  Named: "G-500/500"
0 472 m 5,0,-1
 1000 472 l 1029,1,2
  Spiro
    0 472 {
    1000 472 v
    0 0 z
  EndSpiro
  Named: "G1GoldSplit"
0 618 m 5,0,-1
 1000 618 l 1029,1,2
  Spiro
    0 618 {
    1000 618 v
    0 0 z
  EndSpiro
  Named: "G1Center"
736 1236 m 5,5,-1
 736 -764 l 1029
  Spiro
    736 1236 {
    736 -764 v
    0 0 z
  EndSpiro
  Named: "GCEnd"
264 1236 m 5,5,-1
 264 -764 l 1029
  Spiro
    264 1236 {
    264 -764 v
    0 0 z
  EndSpiro
  Named: "GCStart"
0 146 m 5,0,-1
 1000 146 l 1029,1,2
  Spiro
    0 146 {
    1000 146 v
    0 0 z
  EndSpiro
  Named: "G2Center"
0 -472 m 5,0,-1
 1000 -472 l 1029,1,2
  Spiro
    0 -472 {
    1000 -472 v
    0 0 z
  EndSpiro
  Named: "G2Bottom"
0 764 m 5,0,-1
 1000 764 l 1029,1,2
  Spiro
    0 764 {
    1000 764 v
    0 0 z
  EndSpiro
  Named: "G2Top"
118 1236 m 5,3,-1
 118 -764 l 1029
  Spiro
    118 1236 {
    118 -764 v
    0 0 z
  EndSpiro
  Named: "GLeft"
882 1236 m 5,5,-1
 882 -764 l 1029
  Spiro
    882 1236 {
    882 -764 v
    0 0 z
  EndSpiro
  Named: "GRight"
500 1236 m 5,0,-1
 500 -764 l 1029
  Spiro
    500 1236 {
    500 -764 v
    0 0 z
  EndSpiro
0 618 m 5,0,-1
 1000 618 l 1029,1,2
  Spiro
    0 618 {
    1000 618 v
    0 0 z
  EndSpiro
  Named: "G1Center"
590 1236 m 5,3,-1
 590 -764 l 1029
  Spiro
    590 1236 {
    590 -764 v
    0 0 z
  EndSpiro
  Named: "GLR"
410 1236 m 5,5,-1
 410 -764 l 1029
  Spiro
    410 1236 {
    410 -764 v
    0 0 z
  EndSpiro
  Named: "GRR"
0 236 m 5,0,-1
 1000 236 l 1029,1,2
  Spiro
    0 236 {
    1000 236 v
    0 0 z
  EndSpiro
  Named: "EMSquareCenter"
EndSplineSet
Fore
SplineSet
118 -194 m 256,0,1
 118 -148 118 -148 174 -146 c 0,2,3
 362 -138 362 -138 478 -64 c 0,4,5
 612 22 612 22 760 266 c 1,6,7
 618 128 618 128 506 128 c 0,8,9
 344 128 344 128 232 256 c 0,10,11
 118 386 118 386 118 568 c 0,12,13
 118 738 118 738 230 868 c 0,14,15
 342 996 342 996 502 996 c 256,16,17
 660 996 660 996 771 869 c 128,-1,18
 882 742 882 742 882 562 c 0,19,20
 882 228 882 228 675 -6 c 128,-1,21
 468 -240 468 -240 174 -240 c 0,22,23
 118 -240 118 -240 118 -194 c 256,0,1
210 562 m 256,24,25
 210 420 210 420 295 320 c 128,-1,26
 380 220 380 220 502 220 c 256,27,28
 620 220 620 220 706 320 c 0,29,30
 790 420 790 420 790 562 c 256,31,32
 790 704 790 704 706 804 c 128,-1,33
 622 904 622 904 502 904 c 256,34,35
 384 904 384 904 297 804 c 128,-1,36
 210 704 210 704 210 562 c 256,24,25
EndSplineSet
Validated: 1
EndChar

StartChar: colon
Encoding: 282 58 26
Width: 1000
VWidth: 1704
Flags: MW
LayerCount: 2
Back
SplineSet
736 1236 m 5,5,-1
 736 -764 l 1029
  Named: "GCEnd"
264 1236 m 5,5,-1
 264 -764 l 1029
  Named: "GCStart"
0 146 m 5,0,-1
 1000 146 l 1029,1,2
  Named: "G2Center"
0 -472 m 5,0,-1
 1000 -472 l 1029,1,2
  Named: "G1Bottom"
0 772 m 5,0,-1
 1000 772 l 1029,1,2
  Named: "G1Top"
118 1236 m 5,3,-1
 118 -764 l 1029
  Named: "GLeft"
882 1236 m 5,5,-1
 882 -764 l 1029
  Named: "GRight"
500 1236 m 5,0,-1
 500 -764 l 1029
0 618 m 5,0,-1
 1000 618 l 1029,1,2
  Named: "G1Center"
590 1236 m 5,3,-1
 590 -764 l 1029
  Named: "GLR"
410 1236 m 5,5,-1
 410 -764 l 1029
  Named: "GRR"
0 236 m 5,0,-1
 1000 236 l 1029,1,2
  Named: "EMSquareCenter"
EndSplineSet
Fore
SplineSet
646 628 m 256,0,1
 646 568 646 568 603 526 c 128,-1,2
 560 484 560 484 502 484 c 256,3,4
 442 484 442 484 398 526 c 128,-1,5
 354 568 354 568 354 628 c 256,6,7
 354 688 354 688 398 730 c 128,-1,8
 442 772 442 772 502 772 c 256,9,10
 562 772 562 772 604 730 c 128,-1,11
 646 688 646 688 646 628 c 256,0,1
646 -144 m 256,12,13
 646 -204 646 -204 603 -246 c 128,-1,14
 560 -288 560 -288 502 -288 c 256,15,16
 442 -288 442 -288 398 -246 c 128,-1,17
 354 -204 354 -204 354 -144 c 256,18,19
 354 -84 354 -84 398 -42 c 128,-1,20
 442 0 442 0 502 0 c 256,21,22
 562 0 562 0 604 -42 c 128,-1,23
 646 -84 646 -84 646 -144 c 256,12,13
EndSplineSet
Validated: 1
EndChar

StartChar: semicolon
Encoding: 283 59 27
Width: 1000
VWidth: 1704
Flags: MW
LayerCount: 2
Back
SplineSet
736 1236 m 5,5,-1
 736 -764 l 1029
  Named: "GCEnd"
264 1236 m 5,5,-1
 264 -764 l 1029
  Named: "GCStart"
0 146 m 5,0,-1
 1000 146 l 1029,1,2
  Named: "G2Center"
0 -472 m 5,0,-1
 1000 -472 l 1029,1,2
  Named: "G1Bottom"
0 772 m 5,0,-1
 1000 772 l 1029,1,2
  Named: "G1Top"
118 1236 m 5,3,-1
 118 -764 l 1029
  Named: "GLeft"
882 1236 m 5,5,-1
 882 -764 l 1029
  Named: "GRight"
500 1236 m 5,0,-1
 500 -764 l 1029
0 618 m 5,0,-1
 1000 618 l 1029,1,2
  Named: "G1Center"
590 1236 m 5,3,-1
 590 -764 l 1029
  Named: "GLR"
410 1236 m 5,5,-1
 410 -764 l 1029
  Named: "GRR"
0 236 m 5,0,-1
 1000 236 l 1029,1,2
  Named: "EMSquareCenter"
EndSplineSet
Fore
SplineSet
882 640 m 256,0,1
 882 580 882 580 838 538 c 128,-1,2
 794 496 794 496 736 496 c 256,3,4
 676 496 676 496 632 538 c 128,-1,5
 588 580 588 580 588 640 c 256,6,7
 588 700 588 700 632 742 c 128,-1,8
 676 784 676 784 736 784 c 256,9,10
 796 784 796 784 839 742 c 128,-1,11
 882 700 882 700 882 640 c 256,0,1
344 -472 m 5,12,13
 118 -472 118 -472 118 -422 c 4,14,15
 118 -362 118 -362 344 -360 c 4,16,17
 690 -356 690 -356 690 106 c 4,18,19
 690 236 690 236 736 236 c 260,20,21
 782 236 782 236 782 106 c 4,22,23
 780 -472 780 -472 344 -472 c 5,12,13
EndSplineSet
Validated: 1
EndChar

StartChar: less
Encoding: 284 60 28
Width: 1000
VWidth: 1704
Flags: W
LayerCount: 2
Back
SplineSet
736 1236 m 1,5,-1
 736 -764 l 1025
  Named: "GCEnd"
264 1236 m 1,5,-1
 264 -764 l 1025
  Named: "GCStart"
0 146 m 1,0,-1
 1000 146 l 1025,1,2
  Named: "G2Center"
0 -472 m 1,0,-1
 1000 -472 l 1025,1,2
  Named: "G2Bottom"
0 764 m 1,0,-1
 1000 764 l 1025,1,2
  Named: "G2Top"
118 1236 m 1,3,-1
 118 -764 l 1025
  Named: "GLeft"
882 1236 m 1,5,-1
 882 -764 l 1025
  Named: "GRight"
500 1236 m 1,0,-1
 500 -764 l 1025
0 618 m 1,0,-1
 1000 618 l 1025,1,2
  Named: "G1Center"
590 1236 m 1,3,-1
 590 -764 l 1025
  Named: "GLR"
410 1236 m 1,5,-1
 410 -764 l 1025
  Named: "GRR"
0 236 m 1,0,-1
 1000 236 l 1025,1,2
  Named: "EMSquareCenter"
EndSplineSet
Fore
SplineSet
840 1000 m 0,0,1
 882 1000 882 1000 882 956 c 0,2,3
 882 924 882 924 858 912 c 2,4,-1
 268 618 l 1,5,-1
 858 324 l 2,6,7
 882 312 882 312 882 288 c 0,8,9
 882 258 882 258 870 248 c 0,10,11
 856 236 856 236 842 236 c 0,12,13
 826 236 826 236 818 240 c 2,14,-1
 152 572 l 2,15,16
 118 588 118 588 118 618 c 128,-1,17
 118 648 118 648 152 664 c 2,18,-1
 818 996 l 2,19,20
 826 1000 826 1000 840 1000 c 0,0,1
EndSplineSet
Validated: 1
EndChar

StartChar: equal
Encoding: 285 61 29
Width: 1000
VWidth: 1704
Flags: MW
LayerCount: 2
Back
SplineSet
0 472 m 5,0,-1
 1000 472 l 1029,1,2
  Named: "G1GoldSplit"
0 618 m 5,0,-1
 1000 618 l 1029,1,2
  Named: "G1Center"
736 1236 m 5,5,-1
 736 -764 l 1029
  Named: "GCEnd"
264 1236 m 5,5,-1
 264 -764 l 1029
  Named: "GCStart"
0 146 m 5,0,-1
 1000 146 l 1029,1,2
  Named: "G2Center"
0 -472 m 5,0,-1
 1000 -472 l 1029,1,2
  Named: "G2Bottom"
0 764 m 5,0,-1
 1000 764 l 1029,1,2
  Named: "G2Top"
118 1236 m 5,3,-1
 118 -764 l 1029
  Named: "GLeft"
882 1236 m 5,5,-1
 882 -764 l 1029
  Named: "GRight"
500 1236 m 5,0,-1
 500 -764 l 1029
0 618 m 5,0,-1
 1000 618 l 1029,1,2
  Named: "G1Center"
590 1236 m 5,3,-1
 590 -764 l 1029
  Named: "GLR"
410 1236 m 5,5,-1
 410 -764 l 1029
  Named: "GRR"
0 236 m 5,0,-1
 1000 236 l 1029,1,2
  Named: "EMSquareCenter"
EndSplineSet
Fore
SplineSet
882 426 m 256,0,1
 882 380 882 380 810 380 c 2,2,-1
 190 380 l 2,3,4
 118 380 118 380 118 426 c 128,-1,5
 118 472 118 472 190 472 c 0,6,7
 504 472 504 472 816 472 c 0,8,9
 882 472 882 472 882 426 c 256,0,1
882 810 m 256,10,11
 882 764 882 764 810 764 c 2,12,-1
 190 764 l 2,13,14
 118 764 118 764 118 810 c 128,-1,15
 118 856 118 856 190 856 c 0,16,17
 504 856 504 856 816 856 c 0,18,19
 882 856 882 856 882 810 c 256,10,11
EndSplineSet
Validated: 1
EndChar

StartChar: greater
Encoding: 286 62 30
Width: 1000
VWidth: 1704
Flags: W
LayerCount: 2
Back
SplineSet
736 1236 m 1,5,-1
 736 -764 l 1025
  Named: "GCEnd"
264 1236 m 1,5,-1
 264 -764 l 1025
  Named: "GCStart"
0 146 m 1,0,-1
 1000 146 l 1025,1,2
  Named: "G2Center"
0 -472 m 1,0,-1
 1000 -472 l 1025,1,2
  Named: "G2Bottom"
0 764 m 1,0,-1
 1000 764 l 1025,1,2
  Named: "G2Top"
118 1236 m 1,3,-1
 118 -764 l 1025
  Named: "GLeft"
882 1236 m 1,5,-1
 882 -764 l 1025
  Named: "GRight"
500 1236 m 1,0,-1
 500 -764 l 1025
0 618 m 1,0,-1
 1000 618 l 1025,1,2
  Named: "G1Center"
590 1236 m 1,3,-1
 590 -764 l 1025
  Named: "GLR"
410 1236 m 1,5,-1
 410 -764 l 1025
  Named: "GRR"
0 236 m 1,0,-1
 1000 236 l 1025,1,2
  Named: "EMSquareCenter"
EndSplineSet
Fore
SplineSet
160 1000 m 0,0,1
 174 1000 174 1000 182 996 c 2,2,-1
 848 664 l 2,3,4
 882 648 882 648 882 618 c 132,-1,5
 882 588 882 588 848 572 c 2,6,-1
 182 240 l 2,7,8
 174 236 174 236 158 236 c 0,9,10
 144 236 144 236 130 248 c 0,11,12
 118 258 118 258 118 288 c 0,13,14
 118 312 118 312 142 324 c 2,15,-1
 732 618 l 1,16,-1
 142 912 l 2,17,18
 118 924 118 924 118 956 c 0,19,20
 118 1000 118 1000 160 1000 c 0,0,1
EndSplineSet
Validated: 1
EndChar

StartChar: question
Encoding: 287 63 31
Width: 1000
VWidth: 1704
Flags: MW
LayerCount: 2
Back
SplineSet
0 472 m 1,0,-1
 1000 472 l 1025,1,2
  Spiro
    0 472 {
    1000 472 v
    0 0 z
  EndSpiro
  Named: "G1GoldSplit"
0 618 m 1,0,-1
 1000 618 l 1025,1,2
  Spiro
    0 618 {
    1000 618 v
    0 0 z
  EndSpiro
  Named: "G1Center"
736 1236 m 1,5,-1
 736 -764 l 1025
  Spiro
    736 1236 {
    736 -764 v
    0 0 z
  EndSpiro
  Named: "GCEnd"
264 1236 m 1,5,-1
 264 -764 l 1025
  Spiro
    264 1236 {
    264 -764 v
    0 0 z
  EndSpiro
  Named: "GCStart"
0 146 m 1,0,-1
 1000 146 l 1025,1,2
  Spiro
    0 146 {
    1000 146 v
    0 0 z
  EndSpiro
  Named: "G2Center"
0 -472 m 1,0,-1
 1000 -472 l 1025,1,2
  Spiro
    0 -472 {
    1000 -472 v
    0 0 z
  EndSpiro
  Named: "G2Bottom"
0 764 m 1,0,-1
 1000 764 l 1025,1,2
  Spiro
    0 764 {
    1000 764 v
    0 0 z
  EndSpiro
  Named: "G2Top"
118 1236 m 1,3,-1
 118 -764 l 1025
  Spiro
    118 1236 {
    118 -764 v
    0 0 z
  EndSpiro
  Named: "GLeft"
882 1236 m 1,5,-1
 882 -764 l 1025
  Spiro
    882 1236 {
    882 -764 v
    0 0 z
  EndSpiro
  Named: "GRight"
500 1236 m 1,0,-1
 500 -764 l 1025
  Spiro
    500 1236 {
    500 -764 v
    0 0 z
  EndSpiro
0 618 m 1,0,-1
 1000 618 l 1025,1,2
  Spiro
    0 618 {
    1000 618 v
    0 0 z
  EndSpiro
  Named: "G1Center"
590 1236 m 1,3,-1
 590 -764 l 1025
  Spiro
    590 1236 {
    590 -764 v
    0 0 z
  EndSpiro
  Named: "GLR"
410 1236 m 1,5,-1
 410 -764 l 1025
  Spiro
    410 1236 {
    410 -764 v
    0 0 z
  EndSpiro
  Named: "GRR"
0 236 m 1,0,-1
 1000 236 l 1025,1,2
  Spiro
    0 236 {
    1000 236 v
    0 0 z
  EndSpiro
  Named: "EMSquareCenter"
EndSplineSet
Fore
SplineSet
356 346 m 0,0,1
 356 238 356 238 514 236 c 0,2,3
 572 236 572 236 590 238 c 0,4,5
 630 238 630 238 630 202 c 0,6,7
 630 146 630 146 498 146 c 0,8,9
 390 146 390 146 326 208 c 0,10,11
 264 268 264 268 264 346 c 0,12,13
 264 444 264 444 324 490 c 0,14,15
 386 534 386 534 496 558 c 0,16,17
 600 580 600 580 694 652 c 0,18,19
 790 726 790 726 790 844 c 256,20,21
 790 988 790 988 692 1076 c 0,22,23
 616 1142 616 1142 496 1144 c 256,24,25
 386 1144 386 1144 303 1076 c 128,-1,26
 220 1008 220 1008 212 844 c 0,27,28
 208 764 208 764 164 764 c 256,29,30
 118 764 118 764 118 844 c 0,31,32
 118 1040 118 1040 238 1138 c 128,-1,33
 358 1236 358 1236 496 1236 c 256,34,35
 500 1236 500 1236 502 1236 c 0,36,37
 650 1236 650 1236 756 1144 c 0,38,39
 882 1034 882 1034 882 844 c 256,40,41
 882 682 882 682 746 576 c 0,42,43
 648 500 648 500 498 472 c 0,44,45
 356 446 356 446 356 346 c 0,0,1
644 -144 m 128,-1,47
 644 -176 644 -176 634 -200 c 128,-1,48
 624 -224 624 -224 600 -246 c 128,-1,49
 576 -268 576 -268 554 -278 c 0,50,51
 530 -288 530 -288 500 -288 c 128,-1,52
 470 -288 470 -288 444 -278 c 128,-1,53
 418 -268 418 -268 396 -246 c 0,54,55
 376 -226 376 -226 364 -200 c 128,-1,56
 352 -174 352 -174 352 -144 c 128,-1,57
 352 -114 352 -114 364 -88 c 128,-1,58
 376 -62 376 -62 396 -42 c 0,59,60
 418 -20 418 -20 444 -10 c 0,61,62
 468 0 468 0 500 0 c 128,-1,63
 532 0 532 0 556 -10 c 128,-1,64
 580 -20 580 -20 602 -42 c 128,-1,65
 624 -64 624 -64 634 -88 c 128,-1,46
 644 -112 644 -112 644 -144 c 128,-1,47
EndSplineSet
Validated: 1
EndChar

StartChar: at
Encoding: 288 64 32
Width: 1000
VWidth: 1704
Flags: MW
LayerCount: 2
Back
SplineSet
736 1236 m 5,5,-1
 736 -764 l 1029
  Named: "GCEnd"
264 1236 m 5,5,-1
 264 -764 l 1029
  Named: "GCStart"
0 146 m 5,0,-1
 1000 146 l 1029,1,2
  Named: "G2Center"
0 -472 m 5,0,-1
 1000 -472 l 1029,1,2
  Named: "G2Bottom"
0 764 m 5,0,-1
 1000 764 l 1029,1,2
  Named: "G2Top"
118 1236 m 5,3,-1
 118 -764 l 1029
  Named: "GLeft"
882 1236 m 5,5,-1
 882 -764 l 1029
  Named: "GRight"
500 1236 m 5,0,-1
 500 -764 l 1029
0 618 m 5,0,-1
 1000 618 l 1029,1,2
  Named: "G1Center"
590 1236 m 5,3,-1
 590 -764 l 1029
  Named: "GLR"
410 1236 m 5,5,-1
 410 -764 l 1029
  Named: "GRR"
0 236 m 5,0,-1
 1000 236 l 1029,1,2
  Named: "EMSquareCenter"
EndSplineSet
Fore
SplineSet
794 440 m 0,0,1
 694 274 694 274 548 274 c 0,2,3
 442 274 442 274 376 382 c 0,4,5
 310 486 310 486 310 606 c 256,6,7
 310 736 310 736 376 836 c 0,8,9
 444 934 444 934 537 934 c 128,-1,10
 630 934 630 934 695 853 c 128,-1,11
 760 772 760 772 770 638 c 1,12,13
 786 672 786 672 796 764 c 0,14,15
 798 782 798 782 798 810 c 0,16,17
 794 928 794 928 730 1030 c 0,18,19
 658 1144 658 1144 548 1144 c 0,20,21
 434 1144 434 1144 336 1030 c 0,22,23
 210 884 210 884 210 606 c 256,24,25
 210 354 210 354 340 210 c 0,26,27
 444 92 444 92 544 92 c 128,-1,28
 644 92 644 92 732 208 c 0,29,30
 744 224 744 224 767 254 c 128,-1,31
 790 284 790 284 814 284 c 128,-1,32
 838 284 838 284 853 265 c 128,-1,33
 868 246 868 246 868 220 c 128,-1,34
 868 194 868 194 860 182 c 0,35,36
 808 104 808 104 728 52 c 128,-1,37
 648 0 648 0 548 0 c 0,38,39
 372 0 372 0 228 200 c 0,40,41
 118 354 118 354 118 606 c 0,42,43
 118 852 118 852 228 1026 c 0,44,45
 362 1236 362 1236 548 1236 c 0,46,47
 698 1236 698 1236 790 1084 c 0,48,49
 882 926 882 926 882 764 c 0,50,51
 882 582 882 582 794 440 c 0,0,1
662 450 m 0,52,53
 702 524 702 524 702 604 c 0,54,55
 702 686 702 686 662 764 c 128,-1,56
 622 842 622 842 556 842 c 0,57,58
 476 842 476 842 440 764 c 0,59,60
 400 678 400 678 400 606 c 0,61,62
 400 518 400 518 438 450 c 0,63,64
 484 366 484 366 552 366 c 256,65,66
 616 366 616 366 662 450 c 0,52,53
EndSplineSet
Validated: 1
EndChar

StartChar: A
Encoding: 289 65 33
Width: 1000
VWidth: 1704
Flags: MW
LayerCount: 2
Back
SplineSet
0 472 m 5,0,-1
 1000 472 l 1029,1,2
  Named: "G1GoldSplit"
0 618 m 5,0,-1
 1000 618 l 1029,1,2
  Named: "G1Center"
736 1236 m 5,5,-1
 736 -764 l 1029
  Named: "GCEnd"
264 1236 m 5,5,-1
 264 -764 l 1029
  Named: "GCStart"
0 146 m 5,0,-1
 1000 146 l 1029,1,2
  Named: "G2Center"
0 -472 m 5,0,-1
 1000 -472 l 1029,1,2
  Named: "G2Bottom"
0 764 m 5,0,-1
 1000 764 l 1029,1,2
  Named: "G2Top"
118 1236 m 5,3,-1
 118 -764 l 1029
  Named: "GLeft"
882 1236 m 5,5,-1
 882 -764 l 1029
  Named: "GRight"
500 1236 m 5,0,-1
 500 -764 l 1029
0 618 m 5,0,-1
 1000 618 l 1029,1,2
  Named: "G1Center"
590 1236 m 5,3,-1
 590 -764 l 1029
  Named: "GLR"
410 1236 m 5,5,-1
 410 -764 l 1029
  Named: "GRR"
0 236 m 5,0,-1
 1000 236 l 1029,1,2
  Named: "EMSquareCenter"
EndSplineSet
Fore
SplineSet
882 54 m 0,0,1
 882 0 882 0 848 0 c 0,2,3
 806 0 806 0 794 38 c 2,4,-1
 694 376 l 1,5,-1
 310 376 l 1,6,-1
 206 50 l 2,7,8
 190 0 190 0 144 0 c 0,9,10
 118 0 118 0 118 54 c 0,11,12
 118 62 118 62 122 76 c 2,13,-1
 446 1180 l 2,14,15
 462 1236 462 1236 500 1236 c 256,16,17
 536 1236 536 1236 552 1180 c 2,18,-1
 880 76 l 2,19,20
 882 70 882 70 882 54 c 0,0,1
666 468 m 1,21,-1
 500 1034 l 1,22,-1
 340 468 l 1,23,-1
 666 468 l 1,21,-1
EndSplineSet
Validated: 1
EndChar

StartChar: B
Encoding: 290 66 34
Width: 1000
VWidth: 1704
Flags: MW
LayerCount: 2
Back
SplineSet
0 472 m 5,0,-1
 1000 472 l 1029,1,2
  Named: "G1GoldSplit"
0 618 m 5,0,-1
 1000 618 l 1029,1,2
  Named: "G1Center"
736 1236 m 5,5,-1
 736 -764 l 1029
  Named: "GCEnd"
264 1236 m 5,5,-1
 264 -764 l 1029
  Named: "GCStart"
0 146 m 5,0,-1
 1000 146 l 1029,1,2
  Named: "G2Center"
0 -472 m 5,0,-1
 1000 -472 l 1029,1,2
  Named: "G2Bottom"
0 764 m 5,0,-1
 1000 764 l 1029,1,2
  Named: "G2Top"
118 1236 m 5,3,-1
 118 -764 l 1029
  Named: "GLeft"
882 1236 m 5,5,-1
 882 -764 l 1029
  Named: "GRight"
500 1236 m 5,0,-1
 500 -764 l 1029
0 618 m 5,0,-1
 1000 618 l 1029,1,2
  Named: "G1Center"
590 1236 m 5,3,-1
 590 -764 l 1029
  Named: "GLR"
410 1236 m 5,5,-1
 410 -764 l 1029
  Named: "GRR"
0 236 m 5,0,-1
 1000 236 l 1029,1,2
  Named: "EMSquareCenter"
EndSplineSet
Fore
SplineSet
882 384 m 0,0,1
 882 228 882 228 778 114 c 128,-1,2
 674 0 674 0 520 0 c 2,3,-1
 164 0 l 2,4,5
 144 0 144 0 130 14 c 0,6,7
 118 26 118 26 118 54 c 2,8,-1
 118 1190 l 2,9,10
 118 1212 118 1212 130 1222 c 0,11,12
 146 1236 146 1236 164 1236 c 2,13,-1
 520 1236 l 2,14,15
 648 1236 648 1236 736 1166 c 0,16,17
 822 1100 822 1100 822 964 c 0,18,19
 822 816 822 816 680 718 c 1,20,21
 882 584 882 584 882 384 c 0,0,1
730 970 m 256,22,23
 728 1058 728 1058 674 1098 c 0,24,25
 612 1144 612 1144 520 1144 c 2,26,-1
 210 1144 l 1,27,-1
 210 764 l 1,28,-1
 520 764 l 2,29,30
 604 764 604 764 652 796 c 0,31,32
 730 850 730 850 730 970 c 256,22,23
790 384 m 256,33,34
 790 484 790 484 700 578 c 128,-1,35
 610 672 610 672 520 672 c 2,36,-1
 210 672 l 1,37,-1
 210 92 l 1,38,-1
 520 92 l 2,39,40
 628 92 628 92 704 168 c 0,41,42
 788 252 788 252 790 384 c 256,33,34
EndSplineSet
Validated: 1
EndChar

StartChar: C
Encoding: 291 67 35
Width: 1000
VWidth: 1704
Flags: MW
LayerCount: 2
Back
SplineSet
736 1236 m 1,5,-1
 736 -764 l 1025
  Named: "GCEnd"
264 1236 m 1,5,-1
 264 -764 l 1025
  Named: "GCStart"
0 146 m 1,0,-1
 1000 146 l 1025,1,2
  Named: "G2Center"
0 -472 m 1,0,-1
 1000 -472 l 1025,1,2
  Named: "G2Bottom"
0 764 m 1,0,-1
 1000 764 l 1025,1,2
  Named: "G2Top"
118 1236 m 1,3,-1
 118 -764 l 1025
  Named: "GLeft"
882 1236 m 1,5,-1
 882 -764 l 1025
  Named: "GRight"
500 1236 m 1,0,-1
 500 -764 l 1025
0 618 m 1,0,-1
 1000 618 l 1025,1,2
  Named: "G1Center"
590 1236 m 1,3,-1
 590 -764 l 1025
  Named: "GLR"
410 1236 m 1,5,-1
 410 -764 l 1025
  Named: "GRR"
0 236 m 1,0,-1
 1000 236 l 1025,1,2
  Named: "EMSquareCenter"
EndSplineSet
Fore
SplineSet
868 278 m 0,0,1
 882 264 882 264 882 238 c 0,2,3
 882 216 882 216 870 198 c 0,4,5
 812 110 812 110 732 56 c 0,6,7
 648 0 648 0 558 0 c 0,8,9
 370 0 370 0 230 212 c 0,10,11
 118 384 118 384 118 618 c 256,12,13
 118 864 118 864 230 1044 c 0,14,15
 354 1246 354 1246 558 1246 c 0,16,17
 648 1246 648 1246 736 1194 c 0,18,19
 816 1146 816 1146 870 1060 c 0,20,21
 886 1034 886 1034 886 1014 c 0,22,23
 886 992 886 992 864 976 c 0,24,25
 856 970 856 970 844 970 c 0,26,27
 816 970 816 970 764 1024 c 1,28,29
 654 1142 654 1142 556 1142 c 0,30,31
 450 1142 450 1142 346 1042 c 0,32,33
 284 982 284 982 242 850 c 0,34,35
 210 744 210 744 210 618 c 0,36,37
 210 514 210 514 232 434 c 0,38,39
 276 282 276 282 338 220 c 0,40,41
 466 92 466 92 558 92 c 0,42,43
 668 92 668 92 784 234 c 0,44,45
 824 282 824 282 852 286 c 0,46,47
 860 286 860 286 868 278 c 0,0,1
EndSplineSet
Validated: 1
EndChar

StartChar: D
Encoding: 292 68 36
Width: 1000
VWidth: 1704
Flags: MW
LayerCount: 2
Back
SplineSet
736 1236 m 5,5,-1
 736 -764 l 1029
  Named: "GCEnd"
264 1236 m 5,5,-1
 264 -764 l 1029
  Named: "GCStart"
0 146 m 5,0,-1
 1000 146 l 1029,1,2
  Named: "G2Center"
0 -472 m 5,0,-1
 1000 -472 l 1029,1,2
  Named: "G2Bottom"
0 764 m 5,0,-1
 1000 764 l 1029,1,2
  Named: "G2Top"
118 1236 m 5,3,-1
 118 -764 l 1029
  Named: "GLeft"
882 1236 m 5,5,-1
 882 -764 l 1029
  Named: "GRight"
500 1236 m 5,0,-1
 500 -764 l 1029
0 618 m 5,0,-1
 1000 618 l 1029,1,2
  Named: "G1Center"
590 1236 m 5,3,-1
 590 -764 l 1029
  Named: "GLR"
410 1236 m 5,5,-1
 410 -764 l 1029
  Named: "GRR"
0 236 m 5,0,-1
 1000 236 l 1029,1,2
  Named: "EMSquareCenter"
EndSplineSet
Fore
SplineSet
882 614 m 256,0,1
 882 358 882 358 706 179 c 128,-1,2
 530 0 530 0 278 0 c 2,3,-1
 164 0 l 2,4,5
 146 0 146 0 130 14 c 0,6,7
 118 24 118 24 118 58 c 2,8,-1
 118 1176 l 2,9,10
 118 1212 118 1212 130 1222 c 0,11,12
 146 1236 146 1236 164 1236 c 2,13,-1
 278 1236 l 2,14,15
 530 1236 530 1236 706 1053 c 128,-1,16
 882 870 882 870 882 614 c 256,0,1
790 614 m 256,17,18
 790 828 790 828 636 992 c 0,19,20
 492 1144 492 1144 250 1144 c 2,21,-1
 210 1144 l 1,22,-1
 210 92 l 1,23,-1
 250 92 l 2,24,25
 492 92 492 92 636 240 c 0,26,27
 790 396 790 396 790 614 c 256,17,18
EndSplineSet
Validated: 1
EndChar

StartChar: E
Encoding: 293 69 37
Width: 1000
VWidth: 1704
Flags: MW
LayerCount: 2
Back
SplineSet
736 1236 m 5,5,-1
 736 -764 l 1029
  Named: "GCEnd"
264 1236 m 5,5,-1
 264 -764 l 1029
  Named: "GCStart"
0 146 m 5,0,-1
 1000 146 l 1029,1,2
  Named: "G2Center"
0 -472 m 5,0,-1
 1000 -472 l 1029,1,2
  Named: "G2Bottom"
0 764 m 5,0,-1
 1000 764 l 1029,1,2
  Named: "G2Top"
118 1236 m 5,3,-1
 118 -764 l 1029
  Named: "GLeft"
882 1236 m 5,5,-1
 882 -764 l 1029
  Named: "GRight"
500 1236 m 5,0,-1
 500 -764 l 1029
0 618 m 5,0,-1
 1000 618 l 1029,1,2
  Named: "G1Center"
590 1236 m 5,3,-1
 590 -764 l 1029
  Named: "GLR"
410 1236 m 5,5,-1
 410 -764 l 1029
  Named: "GRR"
0 236 m 5,0,-1
 1000 236 l 1029,1,2
  Named: "EMSquareCenter"
EndSplineSet
Fore
SplineSet
882 46 m 256,0,1
 882 0 882 0 824 0 c 2,2,-1
 164 0 l 2,3,4
 144 0 144 0 130 14 c 0,5,6
 118 28 118 28 118 62 c 2,7,-1
 118 1176 l 2,8,9
 118 1210 118 1210 130 1222 c 0,10,11
 146 1236 146 1236 164 1236 c 2,12,-1
 824 1236 l 2,13,14
 882 1236 882 1236 882 1190 c 128,-1,15
 882 1144 882 1144 824 1144 c 2,16,-1
 210 1144 l 1,17,-1
 210 664 l 1,18,-1
 824 664 l 2,19,20
 882 664 882 664 882 619 c 128,-1,21
 882 574 882 574 826 572 c 4,22,23
 518 572 518 572 210 572 c 1,24,-1
 210 92 l 1,25,26
 518 92 518 92 826 92 c 0,27,28
 882 92 882 92 882 46 c 256,0,1
EndSplineSet
Validated: 1
EndChar

StartChar: F
Encoding: 294 70 38
Width: 1000
VWidth: 1704
Flags: MW
LayerCount: 2
Back
SplineSet
736 1236 m 5,5,-1
 736 -764 l 1029
  Named: "GCEnd"
264 1236 m 5,5,-1
 264 -764 l 1029
  Named: "GCStart"
0 146 m 5,0,-1
 1000 146 l 1029,1,2
  Named: "G2Center"
0 -472 m 5,0,-1
 1000 -472 l 1029,1,2
  Named: "G2Bottom"
0 764 m 5,0,-1
 1000 764 l 1029,1,2
  Named: "G2Top"
118 1236 m 5,3,-1
 118 -764 l 1029
  Named: "GLeft"
882 1236 m 5,5,-1
 882 -764 l 1029
  Named: "GRight"
500 1236 m 5,0,-1
 500 -764 l 1029
0 618 m 5,0,-1
 1000 618 l 1029,1,2
  Named: "G1Center"
590 1236 m 5,3,-1
 590 -764 l 1029
  Named: "GLR"
410 1236 m 5,5,-1
 410 -764 l 1029
  Named: "GRR"
0 236 m 5,0,-1
 1000 236 l 1029,1,2
  Named: "EMSquareCenter"
EndSplineSet
Fore
SplineSet
882 618 m 256,0,1
 882 574 882 574 826 572 c 0,2,3
 518 572 518 572 210 572 c 1,4,-1
 210 62 l 2,5,6
 210 0 210 0 170 0 c 256,7,8
 118 0 118 0 118 62 c 2,9,-1
 118 1176 l 2,10,11
 118 1236 118 1236 164 1236 c 0,12,13
 824 1236 l 0,14,15
 882 1232 882 1232 882 1190 c 0,16,17
 882 1144 882 1144 824 1144 c 2,18,-1
 210 1144 l 1,19,-1
 210 664 l 1,20,21
 520 664 520 664 828 664 c 0,22,23
 882 664 882 664 882 618 c 256,0,1
EndSplineSet
Validated: 1
EndChar

StartChar: G
Encoding: 295 71 39
Width: 1000
VWidth: 1704
Flags: MW
LayerCount: 2
Back
SplineSet
736 1236 m 1,5,-1
 736 -764 l 1025
  Named: "GCEnd"
264 1236 m 1,5,-1
 264 -764 l 1025
  Named: "GCStart"
0 146 m 1,0,-1
 1000 146 l 1025,1,2
  Named: "G2Center"
0 -472 m 1,0,-1
 1000 -472 l 1025,1,2
  Named: "G2Bottom"
0 764 m 1,0,-1
 1000 764 l 1025,1,2
  Named: "G2Top"
118 1236 m 1,3,-1
 118 -764 l 1025
  Named: "GLeft"
882 1236 m 1,5,-1
 882 -764 l 1025
  Named: "GRight"
500 1236 m 1,0,-1
 500 -764 l 1025
0 618 m 1,0,-1
 1000 618 l 1025,1,2
  Named: "G1Center"
590 1236 m 5,3,-1
 590 -764 l 1025
  Named: "GLR"
410 1236 m 1,5,-1
 410 -764 l 1025
  Named: "GRR"
0 236 m 1,0,-1
 1000 236 l 1025,1,2
  Named: "EMSquareCenter"
EndSplineSet
Fore
SplineSet
870 1052 m 0,0,1
 882 1026 882 1026 882 1009 c 128,-1,2
 882 992 882 992 868 978 c 0,3,4
 862 972 862 972 850 972 c 0,5,6
 826 972 826 972 766 1030 c 0,7,8
 652 1144 652 1144 556 1144 c 256,9,10
 458 1144 458 1144 348 1030 c 0,11,12
 292 972 292 972 238 824 c 0,13,14
 210 748 210 748 210 618 c 0,15,16
 210 528 210 528 244 396 c 0,17,18
 268 302 268 302 300 256 c 0,19,20
 412 94 412 94 590 92 c 0,21,22
 790 92 790 92 790 146 c 2,23,-1
 790 558 l 2,24,25
 790 618 790 618 836 618 c 128,-1,26
 882 618 882 618 882 560 c 2,27,-1
 882 146 l 1,28,29
 878 0 878 0 740 0 c 2,30,-1
 556 0 l 2,31,32
 358 0 358 0 230 212 c 0,33,34
 118 396 118 396 118 618 c 0,35,36
 118 860 118 860 230 1034 c 0,37,38
 360 1236 360 1236 556 1236 c 0,39,40
 646 1236 646 1236 743 1178 c 128,-1,41
 840 1120 840 1120 870 1052 c 0,0,1
EndSplineSet
Validated: 1
EndChar

StartChar: H
Encoding: 296 72 40
Width: 1000
VWidth: 1704
Flags: MW
LayerCount: 2
Back
SplineSet
736 1236 m 5,5,-1
 736 -764 l 1029
  Named: "GCEnd"
264 1236 m 5,5,-1
 264 -764 l 1029
  Named: "GCStart"
0 146 m 5,0,-1
 1000 146 l 1029,1,2
  Named: "G2Center"
0 -472 m 5,0,-1
 1000 -472 l 1029,1,2
  Named: "G2Bottom"
0 764 m 5,0,-1
 1000 764 l 1029,1,2
  Named: "G2Top"
118 1236 m 5,3,-1
 118 -764 l 1029
  Named: "GLeft"
882 1236 m 5,5,-1
 882 -764 l 1029
  Named: "GRight"
500 1236 m 5,0,-1
 500 -764 l 1029
0 618 m 5,0,-1
 1000 618 l 1029,1,2
  Named: "G1Center"
590 1236 m 5,3,-1
 590 -764 l 1029
  Named: "GLR"
410 1236 m 5,5,-1
 410 -764 l 1029
  Named: "GRR"
0 236 m 5,0,-1
 1000 236 l 1029,1,2
  Named: "EMSquareCenter"
EndSplineSet
Fore
SplineSet
882 76 m 2,0,1
 882 0 882 0 836 0 c 256,2,3
 790 0 790 0 790 76 c 2,4,-1
 790 672 l 1,5,-1
 210 672 l 1,6,-1
 210 76 l 2,7,8
 210 0 210 0 164 0 c 256,9,10
 118 0 118 0 118 76 c 2,11,-1
 118 1160 l 2,12,13
 118 1234 118 1234 164 1234 c 128,-1,14
 210 1234 210 1234 210 1160 c 2,15,-1
 210 764 l 1,16,-1
 790 764 l 1,17,-1
 790 1160 l 2,18,19
 790 1232 790 1232 836 1234 c 0,20,21
 882 1234 882 1234 882 1160 c 2,22,-1
 882 76 l 2,0,1
EndSplineSet
Validated: 1
EndChar

StartChar: I
Encoding: 297 73 41
Width: 1000
VWidth: 1704
Flags: MW
LayerCount: 2
Back
SplineSet
736 1236 m 5,5,-1
 736 -764 l 1029
  Named: "GCEnd"
264 1236 m 5,5,-1
 264 -764 l 1029
  Named: "GCStart"
0 146 m 5,0,-1
 1000 146 l 1029,1,2
  Named: "G2Center"
0 -472 m 5,0,-1
 1000 -472 l 1029,1,2
  Named: "G2Bottom"
0 764 m 5,0,-1
 1000 764 l 1029,1,2
  Named: "G2Top"
118 1236 m 5,3,-1
 118 -764 l 1029
  Named: "GLeft"
882 1236 m 5,5,-1
 882 -764 l 1029
  Named: "GRight"
500 1236 m 5,0,-1
 500 -764 l 1029
0 618 m 5,0,-1
 1000 618 l 1029,1,2
  Named: "G1Center"
590 1236 m 5,3,-1
 590 -764 l 1029
  Named: "GLR"
410 1236 m 5,5,-1
 410 -764 l 1029
  Named: "GRR"
0 236 m 5,0,-1
 1000 236 l 1029,1,2
  Named: "EMSquareCenter"
EndSplineSet
Fore
SplineSet
882 1190 m 128,-1,1
 882 1144 882 1144 812 1144 c 2,2,-1
 546 1144 l 1,3,-1
 546 92 l 1,4,5
 682 92 682 92 818 92 c 0,6,7
 882 92 882 92 882 46 c 256,8,9
 882 0 882 0 812 0 c 2,10,-1
 190 0 l 2,11,12
 118 0 118 0 118 47 c 0,13,14
 118 92 118 92 190 92 c 2,15,-1
 454 92 l 1,16,-1
 454 1144 l 1,17,-1
 190 1144 l 2,18,19
 118 1144 118 1144 118 1190 c 128,-1,20
 118 1236 118 1236 190 1236 c 2,21,-1
 812 1236 l 2,22,0
 882 1236 882 1236 882 1190 c 128,-1,1
EndSplineSet
Validated: 1
EndChar

StartChar: J
Encoding: 298 74 42
Width: 1000
VWidth: 1704
Flags: MW
LayerCount: 2
Back
SplineSet
736 1236 m 1,5,-1
 736 -764 l 1025
  Named: "GCEnd"
264 1236 m 1,5,-1
 264 -764 l 1025
  Named: "GCStart"
0 146 m 1,0,-1
 1000 146 l 1025,1,2
  Named: "G2Center"
0 -472 m 1,0,-1
 1000 -472 l 1025,1,2
  Named: "G2Bottom"
0 764 m 1,0,-1
 1000 764 l 1025,1,2
  Named: "G2Top"
118 1236 m 1,3,-1
 118 -764 l 1025
  Named: "GLeft"
882 1236 m 1,5,-1
 882 -764 l 1025
  Named: "GRight"
500 1236 m 1,0,-1
 500 -764 l 1025
0 618 m 1,0,-1
 1000 618 l 1025,1,2
  Named: "G1Center"
590 1236 m 1,3,-1
 590 -764 l 1025
  Named: "GLR"
410 1236 m 1,5,-1
 410 -764 l 1025
  Named: "GRR"
0 236 m 1,0,-1
 1000 236 l 1025,1,2
  Named: "EMSquareCenter"
EndSplineSet
Fore
SplineSet
836 1236 m 2,0,1
 882 1236 882 1236 882 1190 c 2,2,-1
 882 46 l 2,3,4
 882 -72 882 -72 868 -150 c 0,5,6
 836 -336 836 -336 676 -426 c 0,7,8
 594 -472 594 -472 503 -472 c 128,-1,9
 412 -472 412 -472 332 -434 c 0,10,11
 160 -352 160 -352 124 -146 c 0,12,13
 118 -112 118 -112 118 -46 c 0,14,15
 118 -2 118 -2 164 -2 c 128,-1,16
 210 -2 210 -2 210 -46 c 0,17,18
 210 -204 210 -204 250 -254 c 0,19,20
 348 -380 348 -380 482 -380 c 0,21,22
 564 -380 564 -380 630 -340 c 0,23,24
 756 -262 756 -262 782 -98 c 0,25,26
 790 -48 790 -48 790 46 c 2,27,-1
 790 1144 l 1,28,-1
 164 1144 l 2,29,30
 92 1144 92 1144 92 1190 c 128,-1,31
 92 1236 92 1236 164 1236 c 2,32,-1
 836 1236 l 2,0,1
EndSplineSet
Validated: 1
EndChar

StartChar: K
Encoding: 299 75 43
Width: 1000
VWidth: 1704
Flags: MW
LayerCount: 2
Back
SplineSet
736 1236 m 5,5,-1
 736 -764 l 1029
  Named: "GCEnd"
264 1236 m 5,5,-1
 264 -764 l 1029
  Named: "GCStart"
0 146 m 5,0,-1
 1000 146 l 1029,1,2
  Named: "G2Center"
0 -472 m 5,0,-1
 1000 -472 l 1029,1,2
  Named: "G2Bottom"
0 764 m 5,0,-1
 1000 764 l 1029,1,2
  Named: "G2Top"
118 1236 m 5,3,-1
 118 -764 l 1029
  Named: "GLeft"
882 1236 m 5,5,-1
 882 -764 l 1029
  Named: "GRight"
500 1236 m 5,0,-1
 500 -764 l 1029
0 618 m 5,0,-1
 1000 618 l 1029,1,2
  Named: "G1Center"
590 1236 m 5,3,-1
 590 -764 l 1029
  Named: "GLR"
410 1236 m 5,5,-1
 410 -764 l 1029
  Named: "GRR"
0 236 m 5,0,-1
 1000 236 l 1029,1,2
  Named: "EMSquareCenter"
EndSplineSet
Fore
SplineSet
866 74 m 2,0,1
 882 58 882 58 882 32 c 0,2,3
 882 0 882 0 836 0 c 0,4,5
 808 0 808 0 788 20 c 2,6,-1
 228 578 l 2,7,8
 212 594 212 594 210 608 c 1,9,-1
 210 62 l 2,10,11
 210 0 210 0 164 0 c 256,12,13
 118 0 118 0 118 62 c 1,14,-1
 118 1174 l 2,15,16
 118 1236 118 1236 164 1236 c 256,17,18
 208 1236 208 1236 210 1178 c 1,19,-1
 210 628 l 1,20,21
 212 644 212 644 228 660 c 2,22,-1
 788 1216 l 2,23,24
 810 1236 810 1236 836 1236 c 0,25,26
 882 1236 882 1236 882 1196 c 0,27,28
 882 1172 882 1172 866 1152 c 1,29,-1
 316 618 l 1,30,-1
 866 74 l 2,0,1
EndSplineSet
Validated: 1
EndChar

StartChar: L
Encoding: 300 76 44
Width: 1000
VWidth: 1704
Flags: MW
LayerCount: 2
Back
SplineSet
736 1236 m 5,5,-1
 736 -764 l 1029
  Named: "GCEnd"
264 1236 m 5,5,-1
 264 -764 l 1029
  Named: "GCStart"
0 146 m 5,0,-1
 1000 146 l 1029,1,2
  Named: "G2Center"
0 -472 m 5,0,-1
 1000 -472 l 1029,1,2
  Named: "G2Bottom"
0 764 m 5,0,-1
 1000 764 l 1029,1,2
  Named: "G2Top"
118 1236 m 5,3,-1
 118 -764 l 1029
  Named: "GLeft"
882 1236 m 5,5,-1
 882 -764 l 1029
  Named: "GRight"
500 1236 m 5,0,-1
 500 -764 l 1029
0 618 m 5,0,-1
 1000 618 l 1029,1,2
  Named: "G1Center"
590 1236 m 5,3,-1
 590 -764 l 1029
  Named: "GLR"
410 1236 m 5,5,-1
 410 -764 l 1029
  Named: "GRR"
0 236 m 5,0,-1
 1000 236 l 1029,1,2
  Named: "EMSquareCenter"
EndSplineSet
Fore
SplineSet
882 44 m 0,0,1
 882 0 882 0 812 0 c 2,2,-1
 164 0 l 2,3,4
 118 0 118 0 118 46 c 2,5,-1
 118 1174 l 2,6,7
 118 1236 118 1236 160 1236 c 256,8,9
 214 1236 214 1236 214 1174 c 2,10,-1
 214 92 l 1,11,-1
 812 92 l 2,12,13
 882 92 882 92 882 44 c 0,0,1
EndSplineSet
Validated: 1
EndChar

StartChar: M
Encoding: 301 77 45
Width: 1000
VWidth: 1704
Flags: W
LayerCount: 2
Back
SplineSet
736 1236 m 1,5,-1
 736 -764 l 1025
  Named: "GCEnd"
264 1236 m 1,5,-1
 264 -764 l 1025
  Named: "GCStart"
0 146 m 1,0,-1
 1000 146 l 1025,1,2
  Named: "G2Center"
0 -472 m 1,0,-1
 1000 -472 l 1025,1,2
  Named: "G1Bottom"
0 772 m 1,0,-1
 1000 772 l 1025,1,2
  Named: "G1Top"
118 1236 m 1,3,-1
 118 -764 l 1025
  Named: "GLeft"
882 1236 m 1,5,-1
 882 -764 l 1025
  Named: "GRight"
500 1236 m 1,0,-1
 500 -764 l 1025
0 618 m 1,0,-1
 1000 618 l 1025,1,2
  Named: "G1Center"
590 1236 m 1,3,-1
 590 -764 l 1025
  Named: "GLR"
410 1236 m 1,5,-1
 410 -764 l 1025
  Named: "GRR"
0 236 m 5,0,-1
 1000 236 l 1025,1,2
  Named: "EMSquareCenter"
EndSplineSet
Fore
SplineSet
926 28 m 4,0,1
 926 0 926 0 882 0 c 4,2,3
 834 0 834 0 830 38 c 6,4,-1
 718 968 l 5,5,-1
 560 282 l 6,6,7
 550 236 550 236 500 236 c 260,8,9
 452 236 452 236 442 282 c 6,10,-1
 282 968 l 5,11,-1
 166 38 l 6,12,13
 162 0 162 0 118 0 c 132,-1,14
 74 0 74 0 74 40 c 4,15,-1
 214 1184 l 4,16,17
 222 1236 222 1236 270 1236 c 132,-1,18
 318 1236 318 1236 330 1180 c 6,19,-1
 500 440 l 5,20,-1
 672 1180 l 6,21,22
 686 1236 686 1236 733 1236 c 132,-1,23
 780 1236 780 1236 786 1184 c 4,24,-1
 926 28 l 4,0,1
EndSplineSet
Validated: 1
EndChar

StartChar: N
Encoding: 302 78 46
Width: 1000
VWidth: 1704
Flags: MW
LayerCount: 2
Back
SplineSet
736 1236 m 1,5,-1
 736 -764 l 1025
  Named: "GCEnd"
264 1236 m 1,5,-1
 264 -764 l 1025
  Named: "GCStart"
0 146 m 1,0,-1
 1000 146 l 1025,1,2
  Named: "G2Center"
0 -472 m 1,0,-1
 1000 -472 l 1025,1,2
  Named: "G2Bottom"
0 764 m 1,0,-1
 1000 764 l 1025,1,2
  Named: "G2Top"
118 1236 m 1,3,-1
 118 -764 l 1025
  Named: "GLeft"
882 1236 m 1,5,-1
 882 -764 l 1025
  Named: "GRight"
500 1236 m 1,0,-1
 500 -764 l 1025
0 618 m 1,0,-1
 1000 618 l 1025,1,2
  Named: "G1Center"
590 1236 m 1,3,-1
 590 -764 l 1025
  Named: "GLR"
410 1236 m 1,5,-1
 410 -764 l 1025
  Named: "GRR"
0 236 m 1,0,-1
 1000 236 l 1025,1,2
  Named: "EMSquareCenter"
EndSplineSet
Fore
SplineSet
882 60 m 2,0,1
 882 0 882 0 826 0 c 0,2,3
 772 0 772 0 750 42 c 2,4,-1
 210 1094 l 1,5,-1
 210 58 l 2,6,7
 210 0 210 0 164 0 c 256,8,9
 118 0 118 0 118 58 c 2,10,-1
 118 1174 l 2,11,12
 118 1236 118 1236 184 1236 c 0,13,14
 242 1236 242 1236 264 1192 c 2,15,-1
 790 162 l 1,16,-1
 790 1176 l 2,17,18
 790 1236 790 1236 836 1236 c 128,-1,19
 882 1236 882 1236 882 1176 c 2,20,-1
 882 60 l 2,0,1
EndSplineSet
Validated: 1
EndChar

StartChar: O
Encoding: 303 79 47
Width: 1000
VWidth: 1704
Flags: MW
LayerCount: 2
Back
SplineSet
0 472 m 1,0,-1
 1000 472 l 1025,1,2
  Named: "G1GoldSplit"
0 618 m 1,0,-1
 1000 618 l 1025,1,2
  Named: "G1Center"
736 1236 m 1,5,-1
 736 -764 l 1025
  Named: "GCEnd"
264 1236 m 1,5,-1
 264 -764 l 1025
  Named: "GCStart"
0 146 m 1,0,-1
 1000 146 l 1025,1,2
  Named: "G2Center"
0 -472 m 1,0,-1
 1000 -472 l 1025,1,2
  Named: "G2Bottom"
0 764 m 1,0,-1
 1000 764 l 1025,1,2
  Named: "G2Top"
118 1236 m 1,3,-1
 118 -764 l 1025
  Named: "GLeft"
882 1236 m 1,5,-1
 882 -764 l 1025
  Named: "GRight"
500 1236 m 1,0,-1
 500 -764 l 1025
0 618 m 1,0,-1
 1000 618 l 1025,1,2
  Named: "G1Center"
590 1236 m 1,3,-1
 590 -764 l 1025
  Named: "GLR"
410 1236 m 1,5,-1
 410 -764 l 1025
  Named: "GRR"
0 236 m 1,0,-1
 1000 236 l 1025,1,2
  Named: "EMSquareCenter"
EndSplineSet
Fore
SplineSet
790 618 m 256,0,1
 788 808 788 808 722 956 c 0,2,3
 638 1144 638 1144 500 1144 c 256,4,5
 364 1142 364 1142 280 956 c 0,6,7
 210 804 210 804 210 618 c 256,8,9
 210 428 210 428 280 272 c 0,10,11
 360 92 360 92 502 92 c 256,12,13
 642 92 642 92 722 272 c 0,14,15
 790 426 790 426 790 618 c 256,0,1
882 618 m 256,16,17
 882 388 882 388 792 212 c 0,18,19
 684 0 684 0 502 0 c 256,20,21
 316 0 316 0 210 212 c 0,22,23
 118 396 118 396 118 618 c 256,24,25
 118 836 118 836 210 1016 c 0,26,27
 324 1236 324 1236 500 1236 c 256,28,29
 672 1236 672 1236 792 1016 c 0,30,31
 882 848 882 848 882 618 c 256,16,17
EndSplineSet
Validated: 1
EndChar

StartChar: P
Encoding: 304 80 48
Width: 1000
VWidth: 1704
Flags: MW
LayerCount: 2
Back
SplineSet
0 472 m 5,0,-1
 1000 472 l 1029,1,2
  Named: "G1GoldSplit"
0 618 m 5,0,-1
 1000 618 l 1029,1,2
  Named: "G1Center"
736 1236 m 5,5,-1
 736 -764 l 1029
  Named: "GCEnd"
264 1236 m 5,5,-1
 264 -764 l 1029
  Named: "GCStart"
0 146 m 5,0,-1
 1000 146 l 1029,1,2
  Named: "G2Center"
0 -472 m 5,0,-1
 1000 -472 l 1029,1,2
  Named: "G2Bottom"
0 764 m 5,0,-1
 1000 764 l 1029,1,2
  Named: "G2Top"
118 1236 m 5,3,-1
 118 -764 l 1029
  Named: "GLeft"
882 1236 m 5,5,-1
 882 -764 l 1029
  Named: "GRight"
500 1236 m 5,0,-1
 500 -764 l 1029
0 618 m 5,0,-1
 1000 618 l 1029,1,2
  Named: "G1Center"
590 1236 m 5,3,-1
 590 -764 l 1029
  Named: "GLR"
410 1236 m 5,5,-1
 410 -764 l 1029
  Named: "GRR"
0 236 m 5,0,-1
 1000 236 l 1029,1,2
  Named: "EMSquareCenter"
EndSplineSet
Fore
SplineSet
882 866 m 256,0,1
 882 718 882 718 776 596 c 128,-1,2
 670 474 670 474 520 474 c 2,3,-1
 210 474 l 1,4,-1
 210 62 l 2,5,6
 210 0 210 0 164 0 c 256,7,8
 118 0 118 0 118 62 c 2,9,-1
 118 1190 l 2,10,11
 118 1212 118 1212 132 1226 c 0,12,13
 142 1236 142 1236 164 1236 c 2,14,-1
 520 1236 l 2,15,16
 670 1236 670 1236 776 1126 c 128,-1,17
 882 1016 882 1016 882 866 c 256,0,1
788 868 m 256,18,19
 786 986 786 986 710 1064 c 0,20,21
 632 1144 632 1144 520 1144 c 2,22,-1
 210 1144 l 1,23,-1
 210 566 l 1,24,-1
 520 566 l 2,25,26
 628 566 628 566 710 650 c 0,27,28
 788 730 788 730 788 868 c 256,18,19
EndSplineSet
Validated: 1
EndChar

StartChar: Q
Encoding: 305 81 49
Width: 1000
VWidth: 1704
Flags: MW
LayerCount: 2
Back
SplineSet
736 1236 m 1,5,-1
 736 -764 l 1025
  Named: "GCEnd"
264 1236 m 1,5,-1
 264 -764 l 1025
  Named: "GCStart"
0 146 m 1,0,-1
 1000 146 l 1025,1,2
  Named: "G2Center"
0 -472 m 1,0,-1
 1000 -472 l 1025,1,2
  Named: "G2Bottom"
0 764 m 1,0,-1
 1000 764 l 1025,1,2
  Named: "G2Top"
118 1236 m 1,3,-1
 118 -764 l 1025
  Named: "GLeft"
882 1236 m 1,5,-1
 882 -764 l 1025
  Named: "GRight"
500 1236 m 1,0,-1
 500 -764 l 1025
0 618 m 1,0,-1
 1000 618 l 1025,1,2
  Named: "G1Center"
590 1236 m 1,3,-1
 590 -764 l 1025
  Named: "GLR"
410 1236 m 1,5,-1
 410 -764 l 1025
  Named: "GRR"
0 236 m 1,0,-1
 1000 236 l 1025,1,2
  Named: "EMSquareCenter"
EndSplineSet
Fore
SplineSet
882 -402 m 256,0,1
 880 -472 880 -472 826 -472 c 0,2,3
 708 -472 708 -472 602 -346 c 0,4,5
 516 -244 516 -244 462 0 c 1,6,7
 302 16 302 16 204 224 c 0,8,9
 118 404 118 404 118 618 c 0,10,11
 118 846 118 846 208 1022 c 0,12,13
 316 1236 316 1236 498 1236 c 256,14,15
 684 1236 684 1236 790 1022 c 0,16,17
 882 836 882 836 882 618 c 0,18,19
 882 446 882 446 810 260 c 0,20,21
 728 48 728 48 580 0 c 1,22,23
 606 -174 606 -174 674 -256 c 0,24,25
 742 -340 742 -340 826 -340 c 0,26,27
 882 -340 882 -340 882 -402 c 256,0,1
788 618 m 0,28,29
 788 736 788 736 762 834 c 0,30,31
 732 952 732 952 668 1042 c 0,32,33
 594 1144 594 1144 498 1144 c 256,34,35
 404 1144 404 1144 330 1042 c 0,36,37
 266 954 266 954 236 834 c 0,38,39
 212 736 212 736 212 618 c 0,40,41
 214 444 214 444 264 316 c 0,42,43
 330 146 330 146 444 98 c 1,44,45
 428 168 428 168 428 320 c 0,46,47
 428 470 428 470 444 704 c 0,48,49
 448 764 448 764 500 764 c 256,50,51
 556 764 556 764 556 704 c 0,52,53
 546 396 546 396 546 332 c 0,54,55
 546 164 546 164 558 100 c 1,56,57
 678 160 678 160 738 322 c 0,58,59
 788 460 788 460 788 618 c 0,28,29
EndSplineSet
Validated: 1
EndChar

StartChar: R
Encoding: 306 82 50
Width: 1000
VWidth: 1704
Flags: MW
LayerCount: 2
Back
SplineSet
0 472 m 1,0,-1
 1000 472 l 1025,1,2
  Named: "G1GoldSplit"
0 618 m 1,0,-1
 1000 618 l 1025,1,2
  Named: "G1Center"
736 1236 m 1,5,-1
 736 -764 l 1025
  Named: "GCEnd"
264 1236 m 1,5,-1
 264 -764 l 1025
  Named: "GCStart"
0 146 m 1,0,-1
 1000 146 l 1025,1,2
  Named: "G2Center"
0 -472 m 1,0,-1
 1000 -472 l 1025,1,2
  Named: "G2Bottom"
0 764 m 1,0,-1
 1000 764 l 1025,1,2
  Named: "G2Top"
118 1236 m 1,3,-1
 118 -764 l 1025
  Named: "GLeft"
882 1236 m 1,5,-1
 882 -764 l 1025
  Named: "GRight"
500 1236 m 1,0,-1
 500 -764 l 1025
0 618 m 1,0,-1
 1000 618 l 1025,1,2
  Named: "G1Center"
590 1236 m 1,3,-1
 590 -764 l 1025
  Named: "GLR"
410 1236 m 1,5,-1
 410 -764 l 1025
  Named: "GRR"
0 236 m 1,0,-1
 1000 236 l 1025,1,2
  Named: "EMSquareCenter"
EndSplineSet
Fore
SplineSet
868 12 m 128,-1,1
 854 0 854 0 834 0 c 0,2,3
 818 0 818 0 796 24 c 1,4,-1
 348 468 l 2,5,6
 308 508 308 508 308 532 c 0,7,8
 310 564 310 564 350 564 c 1,9,-1
 520 564 l 2,10,11
 622 564 622 564 710 650 c 0,12,13
 790 730 790 730 790 866 c 256,14,15
 790 966 790 966 710 1064 c 0,16,17
 646 1144 646 1144 520 1144 c 2,18,-1
 210 1144 l 1,19,-1
 210 46 l 2,20,21
 210 0 210 0 168 0 c 256,22,23
 118 0 118 0 118 46 c 2,24,-1
 118 1190 l 2,25,26
 118 1236 118 1236 164 1236 c 2,27,-1
 520 1236 l 2,28,29
 670 1236 670 1236 776 1126 c 128,-1,30
 882 1016 882 1016 882 866 c 256,31,32
 882 714 882 714 776 592 c 0,33,34
 670 472 670 472 520 472 c 2,35,-1
 472 472 l 1,36,-1
 854 94 l 2,37,38
 882 66 882 66 882 46 c 0,39,40
 882 24 882 24 868 12 c 128,-1,1
EndSplineSet
Validated: 1
EndChar

StartChar: S
Encoding: 307 83 51
Width: 1000
VWidth: 1704
Flags: MW
LayerCount: 2
Back
SplineSet
736 1236 m 5,5,-1
 736 -764 l 1029
  Named: "GCEnd"
264 1236 m 5,5,-1
 264 -764 l 1029
  Named: "GCStart"
0 146 m 5,0,-1
 1000 146 l 1029,1,2
  Named: "G2Center"
0 -472 m 5,0,-1
 1000 -472 l 1029,1,2
  Named: "G2Bottom"
0 764 m 5,0,-1
 1000 764 l 1029,1,2
  Named: "G2Top"
118 1236 m 5,3,-1
 118 -764 l 1029
  Named: "GLeft"
882 1236 m 5,5,-1
 882 -764 l 1029
  Named: "GRight"
500 1236 m 5,0,-1
 500 -764 l 1029
0 618 m 5,0,-1
 1000 618 l 1029,1,2
  Named: "G1Center"
590 1236 m 5,3,-1
 590 -764 l 1029
  Named: "GLR"
410 1236 m 5,5,-1
 410 -764 l 1029
  Named: "GRR"
0 236 m 5,0,-1
 1000 236 l 1029,1,2
  Named: "EMSquareCenter"
EndSplineSet
Fore
SplineSet
882 366 m 260,0,1
 882 204 882 204 756 104 c 4,2,3
 626 0 626 0 500 0 c 4,4,5
 264 0 264 0 130 176 c 5,6,7
 118 196 118 196 118 222 c 132,-1,8
 118 248 118 248 132 258 c 4,9,10
 144 266 144 266 160 266 c 4,11,12
 184 266 184 266 202 236 c 4,13,14
 296 92 296 92 500 92 c 4,15,16
 592 92 592 92 692 168 c 4,17,18
 790 244 790 244 790 366 c 260,19,20
 790 502 790 502 688 570 c 4,21,22
 620 616 620 616 500 618 c 4,23,24
 350 620 350 620 248 704 c 4,25,26
 142 788 142 788 142 922 c 260,27,28
 142 1064 142 1064 249 1150 c 132,-1,29
 356 1236 356 1236 500 1236 c 4,30,31
 566 1236 566 1236 644 1196 c 4,32,33
 706 1164 706 1164 764 1084 c 4,34,35
 780 1062 780 1062 780 1044 c 4,36,37
 780 1024 780 1024 758 1006 c 4,38,39
 748 998 748 998 738 998 c 4,40,41
 712 1000 712 1000 684 1038 c 4,42,43
 606 1144 606 1144 504 1144 c 4,44,45
 502 1144 502 1144 500 1144 c 4,46,47
 390 1144 390 1144 312 1077 c 132,-1,48
 234 1010 234 1010 234 924 c 4,49,50
 234 830 234 830 308 772 c 28,51,52
 386 712 386 712 500 710 c 4,53,54
 662 708 662 708 748 640 c 4,55,56
 882 530 882 530 882 366 c 260,0,1
EndSplineSet
Validated: 1
EndChar

StartChar: T
Encoding: 308 84 52
Width: 1000
VWidth: 1704
Flags: MW
LayerCount: 2
Back
SplineSet
736 1236 m 5,5,-1
 736 -764 l 1029
  Named: "GCEnd"
264 1236 m 5,5,-1
 264 -764 l 1029
  Named: "GCStart"
0 146 m 5,0,-1
 1000 146 l 1029,1,2
  Named: "G2Center"
0 -472 m 5,0,-1
 1000 -472 l 1029,1,2
  Named: "G2Bottom"
0 764 m 5,0,-1
 1000 764 l 1029,1,2
  Named: "G2Top"
118 1236 m 5,3,-1
 118 -764 l 1029
  Named: "GLeft"
882 1236 m 5,5,-1
 882 -764 l 1029
  Named: "GRight"
500 1236 m 5,0,-1
 500 -764 l 1029
0 618 m 5,0,-1
 1000 618 l 1029,1,2
  Named: "G1Center"
590 1236 m 5,3,-1
 590 -764 l 1029
  Named: "GLR"
410 1236 m 5,5,-1
 410 -764 l 1029
  Named: "GRR"
0 236 m 5,0,-1
 1000 236 l 1029,1,2
  Named: "EMSquareCenter"
EndSplineSet
Fore
SplineSet
882 1190 m 256,0,1
 882 1144 882 1144 832 1144 c 2,2,-1
 546 1144 l 1,3,-1
 546 48 l 2,4,5
 546 0 546 0 508 0 c 256,6,7
 454 0 454 0 454 48 c 2,8,-1
 454 1144 l 1,9,-1
 168 1144 l 2,10,11
 118 1144 118 1144 118 1190 c 128,-1,12
 118 1236 118 1236 164 1236 c 0,13,14
 500 1236 500 1236 836 1236 c 0,15,16
 882 1236 882 1236 882 1190 c 256,0,1
EndSplineSet
Validated: 1
EndChar

StartChar: U
Encoding: 309 85 53
Width: 1000
VWidth: 1704
Flags: MW
LayerCount: 2
Back
SplineSet
736 1236 m 5,5,-1
 736 -764 l 1029
  Named: "GCEnd"
264 1236 m 5,5,-1
 264 -764 l 1029
  Named: "GCStart"
0 146 m 5,0,-1
 1000 146 l 1029,1,2
  Named: "G2Center"
0 -472 m 5,0,-1
 1000 -472 l 1029,1,2
  Named: "G2Bottom"
0 764 m 5,0,-1
 1000 764 l 1029,1,2
  Named: "G2Top"
118 1236 m 5,3,-1
 118 -764 l 1029
  Named: "GLeft"
882 1236 m 5,5,-1
 882 -764 l 1029
  Named: "GRight"
500 1236 m 5,0,-1
 500 -764 l 1029
0 618 m 5,0,-1
 1000 618 l 1029,1,2
  Named: "G1Center"
590 1236 m 5,3,-1
 590 -764 l 1029
  Named: "GLR"
410 1236 m 5,5,-1
 410 -764 l 1029
  Named: "GRR"
0 236 m 5,0,-1
 1000 236 l 1029,1,2
  Named: "EMSquareCenter"
EndSplineSet
Fore
SplineSet
882 398 m 6,0,1
 882 236 882 236 770 118 c 132,-1,2
 658 0 658 0 500 0 c 260,3,4
 342 0 342 0 230 118 c 132,-1,5
 118 236 118 236 118 398 c 6,6,-1
 118 1180 l 6,7,8
 118 1236 118 1236 164 1236 c 132,-1,9
 210 1236 210 1236 210 1180 c 6,10,-1
 210 398 l 6,11,12
 210 290 210 290 287 191 c 132,-1,13
 364 92 364 92 500 92 c 260,14,15
 634 92 634 92 712 189 c 132,-1,16
 790 286 790 286 790 398 c 6,17,-1
 790 1180 l 6,18,19
 790 1236 790 1236 836 1236 c 260,20,21
 882 1236 882 1236 882 1180 c 6,22,-1
 882 398 l 6,0,1
EndSplineSet
Validated: 1
EndChar

StartChar: V
Encoding: 310 86 54
Width: 1000
VWidth: 1704
Flags: MW
LayerCount: 2
Back
SplineSet
736 1236 m 1,5,-1
 736 -764 l 1025
  Named: "GCEnd"
264 1236 m 1,5,-1
 264 -764 l 1025
  Named: "GCStart"
0 146 m 1,0,-1
 1000 146 l 1025,1,2
  Named: "G2Center"
0 -472 m 1,0,-1
 1000 -472 l 1025,1,2
  Named: "G2Bottom"
0 764 m 1,0,-1
 1000 764 l 1025,1,2
  Named: "G2Top"
118 1236 m 1,3,-1
 118 -764 l 1025
  Named: "GLeft"
882 1236 m 1,5,-1
 882 -764 l 1025
  Named: "GRight"
500 1236 m 1,0,-1
 500 -764 l 1025
0 618 m 1,0,-1
 1000 618 l 1025,1,2
  Named: "G1Center"
590 1236 m 1,3,-1
 590 -764 l 1025
  Named: "GLR"
410 1236 m 1,5,-1
 410 -764 l 1025
  Named: "GRR"
0 236 m 1,0,-1
 1000 236 l 1025,1,2
  Named: "EMSquareCenter"
EndSplineSet
Fore
SplineSet
876 1164 m 2,0,-1
 556 44 l 2,1,2
 544 0 544 0 500 0 c 256,3,4
 456 0 456 0 444 44 c 2,5,-1
 122 1164 l 2,6,7
 118 1178 118 1178 118 1192 c 0,8,9
 118 1236 118 1236 176 1236 c 0,10,11
 198 1236 198 1236 208 1198 c 2,12,-1
 500 172 l 1,13,-1
 790 1198 l 2,14,15
 800 1236 800 1236 822 1236 c 0,16,17
 882 1236 882 1236 882 1192 c 0,18,19
 882 1184 882 1184 876 1164 c 2,0,-1
EndSplineSet
Validated: 1
EndChar

StartChar: W
Encoding: 311 87 55
Width: 1000
VWidth: 1704
Flags: MW
LayerCount: 2
Fore
SplineSet
926 1208 m 0,0,1
 786 52 l 0,2,3
 780 0 780 0 733 0 c 128,-1,4
 686 0 686 0 672 56 c 2,5,-1
 500 796 l 1,6,-1
 330 56 l 2,7,8
 318 0 318 0 270 0 c 128,-1,9
 222 0 222 0 214 52 c 0,10,-1
 74 1196 l 0,11,12
 74 1236 74 1236 118 1236 c 128,-1,13
 162 1236 162 1236 166 1198 c 2,14,-1
 282 268 l 1,15,-1
 442 954 l 2,16,17
 452 1000 452 1000 500 1000 c 256,18,19
 550 1000 550 1000 560 954 c 2,20,-1
 718 268 l 1,21,-1
 830 1198 l 2,22,23
 834 1236 834 1236 882 1236 c 0,24,25
 926 1236 926 1236 926 1208 c 0,0,1
EndSplineSet
Validated: 1
EndChar

StartChar: X
Encoding: 312 88 56
Width: 1000
VWidth: 1704
Flags: MW
LayerCount: 2
Back
SplineSet
736 1236 m 5,5,-1
 736 -764 l 1029
  Named: "GCEnd"
264 1236 m 5,5,-1
 264 -764 l 1029
  Named: "GCStart"
0 146 m 5,0,-1
 1000 146 l 1029,1,2
  Named: "G2Center"
0 -472 m 5,0,-1
 1000 -472 l 1029,1,2
  Named: "G2Bottom"
0 764 m 5,0,-1
 1000 764 l 1029,1,2
  Named: "G2Top"
118 1236 m 5,3,-1
 118 -764 l 1029
  Named: "GLeft"
882 1236 m 5,5,-1
 882 -764 l 1029
  Named: "GRight"
500 1236 m 5,0,-1
 500 -764 l 1029
0 618 m 5,0,-1
 1000 618 l 1029,1,2
  Named: "G1Center"
590 1236 m 5,3,-1
 590 -764 l 1029
  Named: "GLR"
410 1236 m 5,5,-1
 410 -764 l 1029
  Named: "GRR"
0 236 m 5,0,-1
 1000 236 l 1029,1,2
  Named: "EMSquareCenter"
EndSplineSet
Fore
SplineSet
210 34 m 2,0,1
 190 0 190 0 166 0 c 0,2,3
 152 0 152 0 140 8 c 0,4,5
 118 22 118 22 118 44 c 0,6,7
 118 60 118 60 132 84 c 2,8,-1
 446 618 l 1,9,-1
 124 1166 l 2,10,11
 118 1176 118 1176 118 1188 c 0,12,13
 118 1206 118 1206 142 1224 c 0,14,15
 160 1236 160 1236 172 1236 c 0,16,17
 192 1236 192 1236 204 1214 c 2,18,-1
 500 710 l 1,19,-1
 796 1214 l 2,20,21
 808 1236 808 1236 828 1236 c 0,22,23
 840 1236 840 1236 858 1224 c 0,24,25
 882 1206 882 1206 882 1188 c 0,26,27
 882 1176 882 1176 876 1166 c 2,28,-1
 554 618 l 1,29,-1
 868 84 l 2,30,31
 882 60 882 60 882 44 c 0,32,33
 882 22 882 22 860 8 c 0,34,35
 848 0 848 0 834 0 c 0,36,37
 810 0 810 0 790 34 c 2,38,-1
 500 526 l 1,39,-1
 210 34 l 2,0,1
EndSplineSet
Validated: 1
EndChar

StartChar: Y
Encoding: 313 89 57
Width: 1000
VWidth: 1704
Flags: MW
LayerCount: 2
Back
SplineSet
736 1236 m 5,5,-1
 736 -764 l 1029
  Named: "GCEnd"
264 1236 m 5,5,-1
 264 -764 l 1029
  Named: "GCStart"
0 146 m 5,0,-1
 1000 146 l 1029,1,2
  Named: "G2Center"
0 -472 m 5,0,-1
 1000 -472 l 1029,1,2
  Named: "G2Bottom"
0 764 m 5,0,-1
 1000 764 l 1029,1,2
  Named: "G2Top"
118 1236 m 5,3,-1
 118 -764 l 1029
  Named: "GLeft"
882 1236 m 5,5,-1
 882 -764 l 1029
  Named: "GRight"
500 1236 m 5,0,-1
 500 -764 l 1029
0 618 m 5,0,-1
 1000 618 l 1029,1,2
  Named: "G1Center"
590 1236 m 5,3,-1
 590 -764 l 1029
  Named: "GLR"
410 1236 m 5,5,-1
 410 -764 l 1029
  Named: "GRR"
0 236 m 5,0,-1
 1000 236 l 1029,1,2
  Named: "EMSquareCenter"
EndSplineSet
Fore
SplineSet
870 1218 m 0,0,1
 882 1208 882 1208 882 1194 c 0,2,3
 882 1178 882 1178 868 1158 c 2,4,-1
 546 666 l 1,5,-1
 546 60 l 2,6,7
 546 0 546 0 500 0 c 256,8,9
 454 0 454 0 454 60 c 2,10,-1
 454 666 l 1,11,-1
 132 1158 l 2,12,13
 118 1178 118 1178 118 1194 c 0,14,15
 118 1208 118 1208 130 1218 c 0,16,17
 150 1236 150 1236 170 1236 c 0,18,19
 194 1236 194 1236 212 1206 c 2,20,-1
 500 764 l 1,21,-1
 788 1206 l 2,22,23
 808 1236 808 1236 830 1236 c 0,24,25
 850 1236 850 1236 870 1218 c 0,0,1
EndSplineSet
Validated: 1
EndChar

StartChar: Z
Encoding: 314 90 58
Width: 1000
VWidth: 1704
Flags: MW
LayerCount: 2
Back
SplineSet
736 1236 m 5,5,-1
 736 -764 l 1029
  Named: "GCEnd"
264 1236 m 5,5,-1
 264 -764 l 1029
  Named: "GCStart"
0 146 m 5,0,-1
 1000 146 l 1029,1,2
  Named: "G2Center"
0 -472 m 5,0,-1
 1000 -472 l 1029,1,2
  Named: "G2Bottom"
0 764 m 5,0,-1
 1000 764 l 1029,1,2
  Named: "G2Top"
118 1236 m 5,3,-1
 118 -764 l 1029
  Named: "GLeft"
882 1236 m 5,5,-1
 882 -764 l 1029
  Named: "GRight"
500 1236 m 5,0,-1
 500 -764 l 1029
0 618 m 5,0,-1
 1000 618 l 1029,1,2
  Named: "G1Center"
590 1236 m 5,3,-1
 590 -764 l 1029
  Named: "GLR"
410 1236 m 5,5,-1
 410 -764 l 1029
  Named: "GRR"
0 236 m 5,0,-1
 1000 236 l 1029,1,2
  Named: "EMSquareCenter"
EndSplineSet
Fore
SplineSet
882 1190 m 0,0,1
 882 1158 882 1158 866 1132 c 2,2,-1
 242 92 l 1,3,-1
 824 92 l 2,4,5
 882 92 882 92 882 46 c 128,-1,6
 882 0 882 0 824 0 c 2,7,-1
 182 0 l 2,8,9
 118 0 118 0 118 46 c 0,10,11
 118 74 118 74 136 104 c 2,12,-1
 760 1144 l 1,13,-1
 178 1144 l 2,14,15
 118 1144 118 1144 118 1190 c 128,-1,16
 118 1236 118 1236 176 1236 c 2,17,-1
 822 1236 l 1,18,19
 882 1236 882 1236 882 1190 c 0,0,1
EndSplineSet
Validated: 1
EndChar

StartChar: bracketleft
Encoding: 315 91 59
Width: 1000
VWidth: 1704
Flags: MW
LayerCount: 2
Back
SplineSet
736 1236 m 5,5,-1
 736 -764 l 1029
  Named: "GCEnd"
264 1236 m 5,5,-1
 264 -764 l 1029
  Named: "GCStart"
0 146 m 5,0,-1
 1000 146 l 1029,1,2
  Named: "G2Center"
0 -472 m 5,0,-1
 1000 -472 l 1029,1,2
  Named: "G2Bottom"
0 764 m 5,0,-1
 1000 764 l 1029,1,2
  Named: "G2Top"
118 1236 m 5,3,-1
 118 -764 l 1029
  Named: "GLeft"
882 1236 m 5,5,-1
 882 -764 l 1029
  Named: "GRight"
500 1236 m 5,0,-1
 500 -764 l 1029
0 618 m 5,0,-1
 1000 618 l 1029,1,2
  Named: "G1Center"
590 1236 m 5,3,-1
 590 -764 l 1029
  Named: "GLR"
410 1236 m 5,5,-1
 410 -764 l 1029
  Named: "GRR"
0 236 m 5,0,-1
 1000 236 l 1029,1,2
  Named: "EMSquareCenter"
EndSplineSet
Fore
SplineSet
736 46 m 256,0,1
 736 0 736 0 660 0 c 2,2,-1
 340 0 l 2,3,4
 312 0 312 0 286 24 c 0,5,6
 264 46 264 46 264 78 c 2,7,-1
 264 1160 l 2,8,9
 264 1190 264 1190 288 1214 c 0,10,11
 312 1236 312 1236 340 1236 c 2,12,-1
 660 1236 l 2,13,14
 736 1236 736 1236 736 1192 c 0,15,16
 736 1144 736 1144 660 1144 c 2,17,-1
 356 1144 l 1,18,-1
 356 92 l 1,19,20
 512 92 512 92 666 92 c 0,21,22
 736 92 736 92 736 46 c 256,0,1
EndSplineSet
Validated: 1
EndChar

StartChar: backslash
Encoding: 316 92 60
Width: 1000
VWidth: 1704
Flags: W
LayerCount: 2
Back
SplineSet
736 1236 m 5,5,-1
 736 -764 l 1029
  Named: "GCEnd"
264 1236 m 5,5,-1
 264 -764 l 1029
  Named: "GCStart"
0 146 m 5,0,-1
 1000 146 l 1029,1,2
  Named: "G2Center"
0 -472 m 5,0,-1
 1000 -472 l 1029,1,2
  Named: "G2Bottom"
0 764 m 5,0,-1
 1000 764 l 1029,1,2
  Named: "G2Top"
118 1236 m 5,3,-1
 118 -764 l 1029
  Named: "GLeft"
882 1236 m 5,5,-1
 882 -764 l 1029
  Named: "GRight"
500 1236 m 5,0,-1
 500 -764 l 1029
0 618 m 5,0,-1
 1000 618 l 1029,1,2
  Named: "G1Center"
590 1236 m 5,3,-1
 590 -764 l 1029
  Named: "GLR"
410 1236 m 5,5,-1
 410 -764 l 1029
  Named: "GRR"
0 236 m 5,0,-1
 1000 236 l 1029,1,2
  Named: "EMSquareCenter"
EndSplineSet
Fore
SplineSet
874 -394 m 6,0,1
 882 -414 882 -414 882 -428 c 4,2,3
 882 -454 882 -454 854 -468 c 4,4,5
 846 -472 846 -472 836 -472 c 4,6,7
 808 -472 808 -472 790 -428 c 6,8,-1
 124 1176 l 6,9,10
 118 1190 118 1190 118 1194 c 4,11,12
 118 1218 118 1218 146 1230 c 260,13,14
 162 1236 162 1236 168 1236 c 4,15,16
 198 1236 198 1236 208 1210 c 6,17,-1
 874 -394 l 6,0,1
EndSplineSet
Validated: 1
EndChar

StartChar: bracketright
Encoding: 317 93 61
Width: 1000
VWidth: 1704
Flags: MW
LayerCount: 2
Back
SplineSet
736 1236 m 5,5,-1
 736 -764 l 1029
  Named: "GCEnd"
264 1236 m 5,5,-1
 264 -764 l 1029
  Named: "GCStart"
0 146 m 5,0,-1
 1000 146 l 1029,1,2
  Named: "G2Center"
0 -472 m 5,0,-1
 1000 -472 l 1029,1,2
  Named: "G2Bottom"
0 764 m 5,0,-1
 1000 764 l 1029,1,2
  Named: "G2Top"
118 1236 m 5,3,-1
 118 -764 l 1029
  Named: "GLeft"
882 1236 m 5,5,-1
 882 -764 l 1029
  Named: "GRight"
500 1236 m 5,0,-1
 500 -764 l 1029
0 618 m 5,0,-1
 1000 618 l 1029,1,2
  Named: "G1Center"
590 1236 m 5,3,-1
 590 -764 l 1029
  Named: "GLR"
410 1236 m 5,5,-1
 410 -764 l 1029
  Named: "GRR"
0 236 m 5,0,-1
 1000 236 l 1029,1,2
  Named: "EMSquareCenter"
EndSplineSet
Fore
SplineSet
264 -426 m 256,0,1
 264 -380 264 -380 334 -380 c 0,2,3
 488 -380 488 -380 644 -380 c 1,4,-1
 644 672 l 1,5,-1
 340 672 l 2,6,7
 264 672 264 672 264 720 c 0,8,9
 264 764 264 764 340 764 c 2,10,-1
 660 764 l 2,11,12
 688 764 688 764 712 742 c 0,13,14
 736 718 736 718 736 688 c 2,15,-1
 736 -394 l 2,16,17
 736 -426 736 -426 714 -448 c 0,18,19
 688 -472 688 -472 660 -472 c 2,20,-1
 340 -472 l 2,21,22
 264 -472 264 -472 264 -426 c 256,0,1
EndSplineSet
Validated: 1
EndChar

StartChar: asciicircum
Encoding: 318 94 62
Width: 1000
VWidth: 1704
Flags: MW
LayerCount: 2
Back
SplineSet
736 1236 m 5,5,-1
 736 -764 l 1029
  Named: "GCEnd"
264 1236 m 5,5,-1
 264 -764 l 1029
  Named: "GCStart"
0 146 m 5,0,-1
 1000 146 l 1029,1,2
  Named: "G2Center"
0 -472 m 5,0,-1
 1000 -472 l 1029,1,2
  Named: "G2Bottom"
0 764 m 5,0,-1
 1000 764 l 1029,1,2
  Named: "G2Top"
118 1236 m 5,3,-1
 118 -764 l 1029
  Named: "GLeft"
882 1236 m 5,5,-1
 882 -764 l 1029
  Named: "GRight"
500 1236 m 5,0,-1
 500 -764 l 1029
0 618 m 5,0,-1
 1000 618 l 1029,1,2
  Named: "G1Center"
590 1236 m 5,3,-1
 590 -764 l 1029
  Named: "GLR"
410 1236 m 5,5,-1
 410 -764 l 1029
  Named: "GRR"
0 236 m 5,0,-1
 1000 236 l 1029,1,2
  Named: "EMSquareCenter"
EndSplineSet
Fore
SplineSet
862 852 m 2,0,1
 882 830 882 830 882 804 c 0,2,3
 882 786 882 786 868 774 c 0,4,5
 856 764 856 764 844 764 c 0,6,7
 820 764 820 764 786 800 c 2,8,-1
 500 1110 l 1,9,-1
 216 794 l 2,10,11
 190 764 190 764 166 764 c 0,12,13
 150 764 150 764 136 776 c 0,14,15
 118 792 118 792 118 806 c 0,16,17
 118 824 118 824 144 852 c 2,18,-1
 476 1220 l 2,19,20
 490 1236 490 1236 500 1236 c 128,-1,21
 510 1236 510 1236 524 1220 c 2,22,-1
 862 852 l 2,0,1
EndSplineSet
Validated: 1
EndChar

StartChar: underscore
Encoding: 319 95 63
Width: 1000
VWidth: 1704
Flags: MW
LayerCount: 2
Back
SplineSet
736 1236 m 5,5,-1
 736 -764 l 1029
  Named: "GCEnd"
264 1236 m 5,5,-1
 264 -764 l 1029
  Named: "GCStart"
0 146 m 5,0,-1
 1000 146 l 1029,1,2
  Named: "G2Center"
0 -472 m 5,0,-1
 1000 -472 l 1029,1,2
  Named: "G2Bottom"
0 764 m 5,0,-1
 1000 764 l 1029,1,2
  Named: "G2Top"
118 1236 m 5,3,-1
 118 -764 l 1029
  Named: "GLeft"
882 1236 m 5,5,-1
 882 -764 l 1029
  Named: "GRight"
500 1236 m 5,0,-1
 500 -764 l 1029
0 618 m 5,0,-1
 1000 618 l 1029,1,2
  Named: "G1Center"
590 1236 m 5,3,-1
 590 -764 l 1029
  Named: "GLR"
410 1236 m 5,5,-1
 410 -764 l 1029
  Named: "GRR"
0 236 m 5,0,-1
 1000 236 l 1029,1,2
  Named: "EMSquareCenter"
EndSplineSet
Fore
SplineSet
882 -46 m 260,0,1
 882 -92 882 -92 810 -92 c 6,2,-1
 190 -92 l 6,3,4
 118 -92 118 -92 118 -46 c 132,-1,5
 118 0 118 0 190 0 c 4,6,7
 504 0 504 0 816 0 c 4,8,9
 882 0 882 0 882 -46 c 260,0,1
EndSplineSet
Validated: 1
EndChar

StartChar: grave
Encoding: 320 96 64
Width: 1000
VWidth: 1704
Flags: MW
LayerCount: 2
Back
SplineSet
736 1236 m 5,5,-1
 736 -764 l 1025
  Named: "GCEnd"
264 1236 m 1,5,-1
 264 -764 l 1025
  Named: "GCStart"
0 146 m 1,0,-1
 1000 146 l 1025,1,2
  Named: "G2Center"
0 -472 m 1,0,-1
 1000 -472 l 1025,1,2
  Named: "G2Bottom"
0 764 m 1,0,-1
 1000 764 l 1025,1,2
  Named: "G2Top"
118 1236 m 1,3,-1
 118 -764 l 1025
  Named: "GLeft"
882 1236 m 1,5,-1
 882 -764 l 1025
  Named: "GRight"
500 1236 m 1,0,-1
 500 -764 l 1025
0 618 m 1,0,-1
 1000 618 l 1025,1,2
  Named: "G1Center"
590 1236 m 1,3,-1
 590 -764 l 1025
  Named: "GLR"
410 1236 m 1,5,-1
 410 -764 l 1025
  Named: "GRR"
0 236 m 1,0,-1
 1000 236 l 1025,1,2
  Named: "EMSquareCenter"
EndSplineSet
Fore
SplineSet
712 852 m 2,0,1
 736 826 736 826 736 808 c 0,2,3
 736 792 736 792 721 778 c 128,-1,4
 706 764 706 764 690 764 c 0,5,6
 670 764 670 764 646 788 c 2,7,-1
 278 1158 l 2,8,9
 264 1172 264 1172 264 1184 c 0,10,11
 264 1198 264 1198 282 1218 c 256,12,13
 298 1236 298 1236 316 1236 c 0,14,15
 330 1236 330 1236 344 1222 c 2,16,-1
 712 852 l 2,0,1
EndSplineSet
Validated: 1
EndChar

StartChar: a
Encoding: 321 97 65
Width: 1000
VWidth: 1704
Flags: MW
LayerCount: 2
Back
SplineSet
0 1000 m 5,0,-1
 1000 1000 l 1029,1,2
  Spiro
    0 1000 {
    1000 1000 v
    0 0 z
  EndSpiro
  Named: "G-500/500"
0 472 m 5,0,-1
 1000 472 l 1029,1,2
  Spiro
    0 472 {
    1000 472 v
    0 0 z
  EndSpiro
  Named: "G1GoldSplit"
0 618 m 5,0,-1
 1000 618 l 1029,1,2
  Spiro
    0 618 {
    1000 618 v
    0 0 z
  EndSpiro
  Named: "G1Center"
736 1236 m 5,5,-1
 736 -764 l 1029
  Spiro
    736 1236 {
    736 -764 v
    0 0 z
  EndSpiro
  Named: "GCEnd"
264 1236 m 5,5,-1
 264 -764 l 1029
  Spiro
    264 1236 {
    264 -764 v
    0 0 z
  EndSpiro
  Named: "GCStart"
0 146 m 5,0,-1
 1000 146 l 1029,1,2
  Spiro
    0 146 {
    1000 146 v
    0 0 z
  EndSpiro
  Named: "G2Center"
0 -472 m 5,0,-1
 1000 -472 l 1029,1,2
  Spiro
    0 -472 {
    1000 -472 v
    0 0 z
  EndSpiro
  Named: "G2Bottom"
0 764 m 5,0,-1
 1000 764 l 1029,1,2
  Spiro
    0 764 {
    1000 764 v
    0 0 z
  EndSpiro
  Named: "G2Top"
118 1236 m 5,3,-1
 118 -764 l 1029
  Spiro
    118 1236 {
    118 -764 v
    0 0 z
  EndSpiro
  Named: "GLeft"
882 1236 m 5,5,-1
 882 -764 l 1029
  Spiro
    882 1236 {
    882 -764 v
    0 0 z
  EndSpiro
  Named: "GRight"
500 1236 m 5,0,-1
 500 -764 l 1029
  Spiro
    500 1236 {
    500 -764 v
    0 0 z
  EndSpiro
0 618 m 5,0,-1
 1000 618 l 1029,1,2
  Spiro
    0 618 {
    1000 618 v
    0 0 z
  EndSpiro
  Named: "G1Center"
590 1236 m 5,3,-1
 590 -764 l 1029
  Spiro
    590 1236 {
    590 -764 v
    0 0 z
  EndSpiro
  Named: "GLR"
410 1236 m 5,5,-1
 410 -764 l 1029
  Spiro
    410 1236 {
    410 -764 v
    0 0 z
  EndSpiro
  Named: "GRR"
0 236 m 5,0,-1
 1000 236 l 1029,1,2
  Spiro
    0 236 {
    1000 236 v
    0 0 z
  EndSpiro
  Named: "EMSquareCenter"
EndSplineSet
Fore
SplineSet
500 564 m 0,0,1
 664 564 664 564 790 448 c 1,2,3
 788 616 788 616 570 666 c 0,4,5
 530 674 530 674 488 674 c 0,6,7
 398 674 398 674 302 634 c 0,8,9
 268 620 268 620 246 620 c 0,10,11
 222 620 222 620 212 636 c 0,12,13
 206 646 206 646 206 656 c 0,14,15
 206 692 206 692 286 720 c 0,16,17
 412 764 412 764 500 764 c 0,18,19
 628 764 628 764 755 687 c 128,-1,20
 882 610 882 610 882 470 c 2,21,-1
 882 36 l 0,22,23
 882 0 882 0 836 0 c 128,-1,24
 790 0 790 0 790 36 c 128,-1,25
 790 72 790 72 790 108 c 1,26,27
 668 0 668 0 500 0 c 0,28,29
 266 0 266 0 156 150 c 0,30,31
 118 202 118 202 118 266 c 0,32,33
 118 396 118 396 229 480 c 128,-1,34
 340 564 340 564 500 564 c 0,0,1
678 122 m 0,35,36
 734 152 734 152 762 191 c 128,-1,37
 790 230 790 230 790 266 c 0,38,39
 790 378 790 378 692 432 c 0,40,41
 620 472 620 472 500 472 c 0,42,43
 278 472 278 472 224 350 c 0,44,45
 210 318 210 318 210 296 c 0,46,47
 210 188 210 188 314 130 c 0,48,49
 382 92 382 92 500 92 c 0,50,51
 620 92 620 92 678 122 c 0,35,36
EndSplineSet
Validated: 1
EndChar

StartChar: b
Encoding: 322 98 66
Width: 1000
VWidth: 1704
Flags: MW
LayerCount: 2
Back
SplineSet
0 1000 m 5,0,-1
 1000 1000 l 1029,1,2
  Spiro
    0 1000 {
    1000 1000 v
    0 0 z
  EndSpiro
  Named: "G-500/500"
0 472 m 5,0,-1
 1000 472 l 1029,1,2
  Spiro
    0 472 {
    1000 472 v
    0 0 z
  EndSpiro
  Named: "G1GoldSplit"
0 618 m 5,0,-1
 1000 618 l 1029,1,2
  Spiro
    0 618 {
    1000 618 v
    0 0 z
  EndSpiro
  Named: "G1Center"
736 1236 m 5,5,-1
 736 -764 l 1029
  Spiro
    736 1236 {
    736 -764 v
    0 0 z
  EndSpiro
  Named: "GCEnd"
264 1236 m 5,5,-1
 264 -764 l 1029
  Spiro
    264 1236 {
    264 -764 v
    0 0 z
  EndSpiro
  Named: "GCStart"
0 146 m 5,0,-1
 1000 146 l 1029,1,2
  Spiro
    0 146 {
    1000 146 v
    0 0 z
  EndSpiro
  Named: "G2Center"
0 -472 m 5,0,-1
 1000 -472 l 1029,1,2
  Spiro
    0 -472 {
    1000 -472 v
    0 0 z
  EndSpiro
  Named: "G2Bottom"
0 764 m 5,0,-1
 1000 764 l 1029,1,2
  Spiro
    0 764 {
    1000 764 v
    0 0 z
  EndSpiro
  Named: "G2Top"
118 1236 m 5,3,-1
 118 -764 l 1029
  Spiro
    118 1236 {
    118 -764 v
    0 0 z
  EndSpiro
  Named: "GLeft"
882 1236 m 5,5,-1
 882 -764 l 1029
  Spiro
    882 1236 {
    882 -764 v
    0 0 z
  EndSpiro
  Named: "GRight"
500 1236 m 5,0,-1
 500 -764 l 1029
  Spiro
    500 1236 {
    500 -764 v
    0 0 z
  EndSpiro
0 618 m 5,0,-1
 1000 618 l 1029,1,2
  Spiro
    0 618 {
    1000 618 v
    0 0 z
  EndSpiro
  Named: "G1Center"
590 1236 m 5,3,-1
 590 -764 l 1029
  Spiro
    590 1236 {
    590 -764 v
    0 0 z
  EndSpiro
  Named: "GLR"
410 1236 m 5,5,-1
 410 -764 l 1029
  Spiro
    410 1236 {
    410 -764 v
    0 0 z
  EndSpiro
  Named: "GRR"
0 236 m 5,0,-1
 1000 236 l 1029,1,2
  Spiro
    0 236 {
    1000 236 v
    0 0 z
  EndSpiro
  Named: "EMSquareCenter"
EndSplineSet
Fore
SplineSet
210 650 m 1,0,1
 320 764 320 764 500 764 c 0,2,3
 656 764 656 764 769 646 c 128,-1,4
 882 528 882 528 882 384 c 128,-1,5
 882 240 882 240 771 120 c 128,-1,6
 660 0 660 0 500 0 c 0,7,8
 336 0 336 0 227 121 c 128,-1,9
 118 242 118 242 118 390 c 1,10,-1
 118 1190 l 2,11,12
 118 1236 118 1236 164 1236 c 128,-1,13
 210 1236 210 1236 210 1190 c 2,14,-1
 210 650 l 1,0,1
296 588 m 0,15,16
 210 504 210 504 210 384 c 128,-1,17
 210 264 210 264 294 178 c 128,-1,18
 378 92 378 92 500 92 c 128,-1,19
 622 92 622 92 706 178 c 128,-1,20
 790 264 790 264 790 384 c 128,-1,21
 790 504 790 504 703 588 c 128,-1,22
 616 672 616 672 500 672 c 128,-1,23
 384 672 384 672 296 588 c 0,15,16
EndSplineSet
Validated: 1
EndChar

StartChar: c
Encoding: 323 99 67
Width: 1000
VWidth: 1704
Flags: MW
LayerCount: 2
Back
SplineSet
0 1000 m 5,0,-1
 1000 1000 l 1029,1,2
  Spiro
    0 1000 {
    1000 1000 v
    0 0 z
  EndSpiro
  Named: "G-500/500"
0 472 m 5,0,-1
 1000 472 l 1029,1,2
  Spiro
    0 472 {
    1000 472 v
    0 0 z
  EndSpiro
  Named: "G1GoldSplit"
0 618 m 5,0,-1
 1000 618 l 1029,1,2
  Spiro
    0 618 {
    1000 618 v
    0 0 z
  EndSpiro
  Named: "G1Center"
736 1236 m 5,5,-1
 736 -764 l 1029
  Spiro
    736 1236 {
    736 -764 v
    0 0 z
  EndSpiro
  Named: "GCEnd"
264 1236 m 5,5,-1
 264 -764 l 1029
  Spiro
    264 1236 {
    264 -764 v
    0 0 z
  EndSpiro
  Named: "GCStart"
0 146 m 5,0,-1
 1000 146 l 1029,1,2
  Spiro
    0 146 {
    1000 146 v
    0 0 z
  EndSpiro
  Named: "G2Center"
0 -472 m 5,0,-1
 1000 -472 l 1029,1,2
  Spiro
    0 -472 {
    1000 -472 v
    0 0 z
  EndSpiro
  Named: "G2Bottom"
0 764 m 5,0,-1
 1000 764 l 1029,1,2
  Spiro
    0 764 {
    1000 764 v
    0 0 z
  EndSpiro
  Named: "G2Top"
118 1236 m 5,3,-1
 118 -764 l 1029
  Spiro
    118 1236 {
    118 -764 v
    0 0 z
  EndSpiro
  Named: "GLeft"
882 1236 m 5,5,-1
 882 -764 l 1029
  Spiro
    882 1236 {
    882 -764 v
    0 0 z
  EndSpiro
  Named: "GRight"
500 1236 m 5,0,-1
 500 -764 l 1029
  Spiro
    500 1236 {
    500 -764 v
    0 0 z
  EndSpiro
0 618 m 5,0,-1
 1000 618 l 1029,1,2
  Spiro
    0 618 {
    1000 618 v
    0 0 z
  EndSpiro
  Named: "G1Center"
590 1236 m 5,3,-1
 590 -764 l 1029
  Spiro
    590 1236 {
    590 -764 v
    0 0 z
  EndSpiro
  Named: "GLR"
410 1236 m 5,5,-1
 410 -764 l 1029
  Spiro
    410 1236 {
    410 -764 v
    0 0 z
  EndSpiro
  Named: "GRR"
0 236 m 5,0,-1
 1000 236 l 1029,1,2
  Spiro
    0 236 {
    1000 236 v
    0 0 z
  EndSpiro
  Named: "EMSquareCenter"
EndSplineSet
Fore
SplineSet
872 642 m 0,0,1
 882 632 882 632 882 612 c 0,2,3
 882 588 882 588 856 576 c 0,4,5
 840 568 840 568 828 568 c 0,6,7
 814 570 814 570 806 576 c 0,8,9
 680 670 680 670 542 670 c 0,10,11
 392 670 392 670 304 588 c 0,12,13
 210 500 210 500 210 390 c 0,14,15
 210 278 210 278 304 185 c 128,-1,16
 398 92 398 92 546 92 c 0,17,18
 678 92 678 92 812 168 c 0,19,20
 826 176 826 176 844 176 c 128,-1,21
 862 176 862 176 872 158 c 128,-1,22
 882 140 882 140 882 120 c 128,-1,23
 882 100 882 100 848 82 c 1,24,25
 680 0 680 0 514 0 c 0,26,27
 262 0 262 0 150 246 c 0,28,29
 118 316 118 316 118 394 c 0,30,31
 118 548 118 548 237 656 c 128,-1,32
 356 764 356 764 540 764 c 0,33,34
 750 764 750 764 872 642 c 0,0,1
EndSplineSet
Validated: 1
EndChar

StartChar: d
Encoding: 324 100 68
Width: 1000
VWidth: 1704
Flags: MW
LayerCount: 2
Back
SplineSet
0 1000 m 1,0,-1
 1000 1000 l 1025,1,2
  Spiro
    0 1000 {
    1000 1000 v
    0 0 z
  EndSpiro
  Named: "G-500/500"
0 472 m 1,0,-1
 1000 472 l 1025,1,2
  Spiro
    0 472 {
    1000 472 v
    0 0 z
  EndSpiro
  Named: "G1GoldSplit"
0 618 m 1,0,-1
 1000 618 l 1025,1,2
  Spiro
    0 618 {
    1000 618 v
    0 0 z
  EndSpiro
  Named: "G1Center"
736 1236 m 1,5,-1
 736 -764 l 1025
  Spiro
    736 1236 {
    736 -764 v
    0 0 z
  EndSpiro
  Named: "GCEnd"
264 1236 m 1,5,-1
 264 -764 l 1025
  Spiro
    264 1236 {
    264 -764 v
    0 0 z
  EndSpiro
  Named: "GCStart"
0 146 m 1,0,-1
 1000 146 l 1025,1,2
  Spiro
    0 146 {
    1000 146 v
    0 0 z
  EndSpiro
  Named: "G2Center"
0 -472 m 1,0,-1
 1000 -472 l 1025,1,2
  Spiro
    0 -472 {
    1000 -472 v
    0 0 z
  EndSpiro
  Named: "G2Bottom"
0 764 m 1,0,-1
 1000 764 l 1025,1,2
  Spiro
    0 764 {
    1000 764 v
    0 0 z
  EndSpiro
  Named: "G2Top"
118 1236 m 1,3,-1
 118 -764 l 1025
  Spiro
    118 1236 {
    118 -764 v
    0 0 z
  EndSpiro
  Named: "GLeft"
882 1236 m 1,5,-1
 882 -764 l 1025
  Spiro
    882 1236 {
    882 -764 v
    0 0 z
  EndSpiro
  Named: "GRight"
500 1236 m 1,0,-1
 500 -764 l 1025
  Spiro
    500 1236 {
    500 -764 v
    0 0 z
  EndSpiro
0 618 m 1,0,-1
 1000 618 l 1025,1,2
  Spiro
    0 618 {
    1000 618 v
    0 0 z
  EndSpiro
  Named: "G1Center"
590 1236 m 1,3,-1
 590 -764 l 1025
  Spiro
    590 1236 {
    590 -764 v
    0 0 z
  EndSpiro
  Named: "GLR"
410 1236 m 1,5,-1
 410 -764 l 1025
  Spiro
    410 1236 {
    410 -764 v
    0 0 z
  EndSpiro
  Named: "GRR"
0 236 m 1,0,-1
 1000 236 l 1025,1,2
  Spiro
    0 236 {
    1000 236 v
    0 0 z
  EndSpiro
  Named: "EMSquareCenter"
EndSplineSet
Fore
SplineSet
118 380 m 256,0,1
 118 528 118 528 224 638 c 0,2,3
 344 762 344 762 506 764 c 0,4,5
 670 764 670 764 790 656 c 1,6,-1
 790 1180 l 2,7,8
 790 1236 790 1236 836 1236 c 256,9,10
 882 1236 882 1236 882 1180 c 2,11,-1
 882 62 l 2,12,13
 882 0 882 0 836 0 c 128,-1,14
 790 0 790 0 790 44 c 0,15,16
 790 100 790 100 790 110 c 1,17,18
 672 2 672 2 506 0 c 0,19,20
 346 0 346 0 224 124 c 0,21,22
 118 232 118 232 118 380 c 256,0,1
210 380 m 256,23,24
 210 272 210 272 292 186 c 0,25,26
 378 94 378 94 506 92 c 256,27,28
 620 92 620 92 708 186 c 0,29,30
 790 276 790 276 790 380 c 256,31,32
 790 492 790 492 708 580 c 0,33,34
 622 672 622 672 506 672 c 256,35,36
 380 672 380 672 292 580 c 0,37,38
 210 494 210 494 210 380 c 256,23,24
EndSplineSet
Validated: 1
EndChar

StartChar: e
Encoding: 325 101 69
Width: 1000
VWidth: 1704
Flags: MW
LayerCount: 2
Back
SplineSet
0 1000 m 5,0,-1
 1000 1000 l 1029,1,2
  Spiro
    0 1000 {
    1000 1000 v
    0 0 z
  EndSpiro
  Named: "G-500/500"
0 472 m 5,0,-1
 1000 472 l 1029,1,2
  Spiro
    0 472 {
    1000 472 v
    0 0 z
  EndSpiro
  Named: "G1GoldSplit"
0 618 m 5,0,-1
 1000 618 l 1029,1,2
  Spiro
    0 618 {
    1000 618 v
    0 0 z
  EndSpiro
  Named: "G1Center"
736 1236 m 5,5,-1
 736 -764 l 1029
  Spiro
    736 1236 {
    736 -764 v
    0 0 z
  EndSpiro
  Named: "GCEnd"
264 1236 m 5,5,-1
 264 -764 l 1029
  Spiro
    264 1236 {
    264 -764 v
    0 0 z
  EndSpiro
  Named: "GCStart"
0 146 m 5,0,-1
 1000 146 l 1029,1,2
  Spiro
    0 146 {
    1000 146 v
    0 0 z
  EndSpiro
  Named: "G2Center"
0 -472 m 5,0,-1
 1000 -472 l 1029,1,2
  Spiro
    0 -472 {
    1000 -472 v
    0 0 z
  EndSpiro
  Named: "G2Bottom"
0 764 m 5,0,-1
 1000 764 l 1029,1,2
  Spiro
    0 764 {
    1000 764 v
    0 0 z
  EndSpiro
  Named: "G2Top"
118 1236 m 5,3,-1
 118 -764 l 1029
  Spiro
    118 1236 {
    118 -764 v
    0 0 z
  EndSpiro
  Named: "GLeft"
882 1236 m 5,5,-1
 882 -764 l 1029
  Spiro
    882 1236 {
    882 -764 v
    0 0 z
  EndSpiro
  Named: "GRight"
500 1236 m 5,0,-1
 500 -764 l 1029
  Spiro
    500 1236 {
    500 -764 v
    0 0 z
  EndSpiro
0 618 m 5,0,-1
 1000 618 l 1029,1,2
  Spiro
    0 618 {
    1000 618 v
    0 0 z
  EndSpiro
  Named: "G1Center"
590 1236 m 5,3,-1
 590 -764 l 1029
  Spiro
    590 1236 {
    590 -764 v
    0 0 z
  EndSpiro
  Named: "GLR"
410 1236 m 5,5,-1
 410 -764 l 1029
  Spiro
    410 1236 {
    410 -764 v
    0 0 z
  EndSpiro
  Named: "GRR"
0 236 m 5,0,-1
 1000 236 l 1029,1,2
  Spiro
    0 236 {
    1000 236 v
    0 0 z
  EndSpiro
  Named: "EMSquareCenter"
EndSplineSet
Fore
SplineSet
268 208 m 1,0,1
 362 92 362 92 528 92 c 0,2,3
 602 92 602 92 680 128 c 0,4,5
 750 160 750 160 788 236 c 0,6,7
 796 252 796 252 798 256 c 0,8,9
 816 284 816 284 848 268 c 0,10,11
 884 252 884 252 882 222 c 0,12,13
 882 180 882 180 812 112 c 0,14,15
 736 40 736 40 624 12 c 0,16,17
 578 0 578 0 530 -2 c 0,18,19
 458 -2 458 -2 380 26 c 0,20,21
 308 52 308 52 244 108 c 0,22,23
 118 216 118 216 118 380 c 0,24,25
 118 540 118 540 247 652 c 128,-1,26
 376 764 376 764 528 764 c 0,27,28
 674 764 674 764 808 654 c 0,29,30
 854 616 854 616 856 588 c 0,31,32
 856 554 856 554 844 540 c 0,33,34
 834 528 834 528 806 512 c 2,35,-1
 268 208 l 1,0,1
764 568 m 1,36,37
 674 674 674 674 540 674 c 0,38,39
 502 674 502 674 464 666 c 0,40,41
 332 638 332 638 260 532 c 0,42,43
 210 458 210 458 210 396 c 0,44,45
 210 312 210 312 226 272 c 1,46,-1
 764 568 l 1,36,37
EndSplineSet
Validated: 1
EndChar

StartChar: f
Encoding: 326 102 70
Width: 1000
VWidth: 4800
Flags: MW
LayerCount: 2
Back
SplineSet
0 1000 m 5,0,-1
 1000 1000 l 1029,1,2
  Spiro
    0 1000 {
    1000 1000 v
    0 0 z
  EndSpiro
  Named: "G-500/500"
0 472 m 5,0,-1
 1000 472 l 1029,1,2
  Spiro
    0 472 {
    1000 472 v
    0 0 z
  EndSpiro
  Named: "G1GoldSplit"
0 618 m 5,0,-1
 1000 618 l 1029,1,2
  Spiro
    0 618 {
    1000 618 v
    0 0 z
  EndSpiro
  Named: "G1Center"
736 1236 m 5,5,-1
 736 -764 l 1029
  Spiro
    736 1236 {
    736 -764 v
    0 0 z
  EndSpiro
  Named: "GCEnd"
264 1236 m 5,5,-1
 264 -764 l 1029
  Spiro
    264 1236 {
    264 -764 v
    0 0 z
  EndSpiro
  Named: "GCStart"
0 146 m 5,0,-1
 1000 146 l 1029,1,2
  Spiro
    0 146 {
    1000 146 v
    0 0 z
  EndSpiro
  Named: "G2Center"
0 -472 m 5,0,-1
 1000 -472 l 1029,1,2
  Spiro
    0 -472 {
    1000 -472 v
    0 0 z
  EndSpiro
  Named: "G2Bottom"
0 764 m 5,0,-1
 1000 764 l 1029,1,2
  Spiro
    0 764 {
    1000 764 v
    0 0 z
  EndSpiro
  Named: "G2Top"
118 1236 m 5,3,-1
 118 -764 l 1029
  Spiro
    118 1236 {
    118 -764 v
    0 0 z
  EndSpiro
  Named: "GLeft"
882 1236 m 5,5,-1
 882 -764 l 1029
  Spiro
    882 1236 {
    882 -764 v
    0 0 z
  EndSpiro
  Named: "GRight"
500 1236 m 5,0,-1
 500 -764 l 1029
  Spiro
    500 1236 {
    500 -764 v
    0 0 z
  EndSpiro
0 618 m 5,0,-1
 1000 618 l 1029,1,2
  Spiro
    0 618 {
    1000 618 v
    0 0 z
  EndSpiro
  Named: "G1Center"
590 1236 m 5,3,-1
 590 -764 l 1029
  Spiro
    590 1236 {
    590 -764 v
    0 0 z
  EndSpiro
  Named: "GLR"
410 1236 m 5,5,-1
 410 -764 l 1029
  Spiro
    410 1236 {
    410 -764 v
    0 0 z
  EndSpiro
  Named: "GRR"
0 236 m 5,0,-1
 1000 236 l 1029,1,2
  Spiro
    0 236 {
    1000 236 v
    0 0 z
  EndSpiro
  Named: "EMSquareCenter"
EndSplineSet
Fore
SplineSet
718 718 m 129,-1,1
 718 672 718 672 664 672 c 2,2,-1
 410 672 l 1,3,-1
 410 56 l 2,4,5
 410 0 410 0 364 0 c 128,-1,6
 318 0 318 0 318 56 c 2,7,-1
 318 672 l 1,8,-1
 172 672 l 2,9,10
 118 672 118 672 118 718 c 128,-1,11
 118 764 118 764 172 764 c 2,12,-1
 318 764 l 1,13,14
 318 876 318 876 350 938 c 0,15,16
 428 1090 428 1090 618 1092 c 0,17,18
 740 1092 740 1092 822 1018 c 0,19,20
 882 962 882 962 882 928 c 0,21,22
 882 920 882 920 872 906 c 0,23,24
 846 876 846 876 824 892 c 2,25,-1
 766 934 l 0,26,27
 722 970 722 970 702 980 c 0,28,29
 662 1000 662 1000 606 1000 c 0,30,31
 496 1000 496 1000 448 910 c 0,32,33
 410 840 410 840 410 776 c 0,34,35
 410 770 410 770 410 764 c 1,36,-1
 664 764 l 2,37,0
 718 764 718 764 718 718 c 129,-1,1
EndSplineSet
Validated: 1
EndChar

StartChar: g
Encoding: 327 103 71
Width: 1000
VWidth: 1704
Flags: MW
LayerCount: 2
Fore
SplineSet
210 384 m 256,0,1
 210 264 210 264 295 178 c 128,-1,2
 380 92 380 92 500 92 c 256,3,4
 618 92 618 92 704 178 c 128,-1,5
 790 264 790 264 790 384 c 256,6,7
 790 504 790 504 704 588 c 128,-1,8
 618 672 618 672 500 672 c 256,9,10
 380 672 380 672 295 588 c 128,-1,11
 210 504 210 504 210 384 c 256,0,1
882 384 m 0,12,13
 882 226 882 226 770 113 c 0,14,15
 734 78 734 78 694 53 c 1,16,17
 724 38 724 38 748 20 c 0,18,19
 882 -80 882 -80 882 -194 c 0,20,21
 882 -322 882 -322 776 -406 c 0,22,23
 657 -500 657 -500 500 -500 c 0,24,25
 264 -500 264 -500 130 -324 c 0,26,27
 118 -308 118 -308 118 -278 c 0,28,29
 118 -252 118 -252 132 -242 c 0,30,31
 144 -234 144 -234 160 -234 c 0,32,33
 184 -234 184 -234 202 -264 c 0,34,35
 288 -408 288 -408 500 -408 c 0,36,37
 634 -408 634 -408 712 -342 c 0,38,39
 790 -278 790 -278 790 -194 c 0,40,41
 790 -118 790 -118 688 -50 c 0,42,43
 616 -2 616 -2 500 0 c 0,44,45
 340 2 340 2 230 112 c 0,46,47
 118 224 118 224 118 384 c 0,48,49
 118 538 118 538 229 651 c 128,-1,50
 340 764 340 764 500 764 c 0,51,52
 658 764 658 764 816 764 c 0,53,54
 882 764 882 764 882 714 c 0,55,56
 882 674 882 674 810 674 c 2,57,-1
 744 674 l 1,58,59
 756 664 756 664 769 651 c 0,60,61
 882 538 882 538 882 384 c 0,12,13
EndSplineSet
Validated: 1
EndChar

StartChar: h
Encoding: 328 104 72
Width: 1000
VWidth: 1704
Flags: MW
LayerCount: 2
Back
SplineSet
0 472 m 5,0,-1
 1000 472 l 1029,1,2
  Spiro
    0 472 {
    1000 472 v
    0 0 z
  EndSpiro
  Named: "G1GoldSplit"
0 618 m 5,0,-1
 1000 618 l 1029,1,2
  Spiro
    0 618 {
    1000 618 v
    0 0 z
  EndSpiro
  Named: "G1Center"
736 1236 m 5,5,-1
 736 -764 l 1029
  Spiro
    736 1236 {
    736 -764 v
    0 0 z
  EndSpiro
  Named: "GCEnd"
264 1236 m 5,5,-1
 264 -764 l 1029
  Spiro
    264 1236 {
    264 -764 v
    0 0 z
  EndSpiro
  Named: "GCStart"
0 146 m 5,0,-1
 1000 146 l 1029,1,2
  Spiro
    0 146 {
    1000 146 v
    0 0 z
  EndSpiro
  Named: "G2Center"
0 -472 m 5,0,-1
 1000 -472 l 1029,1,2
  Spiro
    0 -472 {
    1000 -472 v
    0 0 z
  EndSpiro
  Named: "G2Bottom"
0 764 m 5,0,-1
 1000 764 l 1029,1,2
  Spiro
    0 764 {
    1000 764 v
    0 0 z
  EndSpiro
  Named: "G2Top"
118 1236 m 5,3,-1
 118 -764 l 1029
  Spiro
    118 1236 {
    118 -764 v
    0 0 z
  EndSpiro
  Named: "GLeft"
882 1236 m 5,5,-1
 882 -764 l 1029
  Spiro
    882 1236 {
    882 -764 v
    0 0 z
  EndSpiro
  Named: "GRight"
500 1236 m 5,0,-1
 500 -764 l 1029
  Spiro
    500 1236 {
    500 -764 v
    0 0 z
  EndSpiro
0 618 m 5,0,-1
 1000 618 l 1029,1,2
  Spiro
    0 618 {
    1000 618 v
    0 0 z
  EndSpiro
  Named: "G1Center"
590 1236 m 5,3,-1
 590 -764 l 1029
  Spiro
    590 1236 {
    590 -764 v
    0 0 z
  EndSpiro
  Named: "GLR"
410 1236 m 5,5,-1
 410 -764 l 1029
  Spiro
    410 1236 {
    410 -764 v
    0 0 z
  EndSpiro
  Named: "GRR"
0 236 m 5,0,-1
 1000 236 l 1029,1,2
  Spiro
    0 236 {
    1000 236 v
    0 0 z
  EndSpiro
  Named: "EMSquareCenter"
EndSplineSet
Fore
SplineSet
882 64 m 2,0,1
 882 0 882 0 836 0 c 256,2,3
 790 0 790 0 790 64 c 2,4,-1
 790 394 l 2,5,6
 790 520 790 520 690 602 c 0,7,8
 606 672 606 672 500 672 c 256,9,10
 396 672 396 672 316 598 c 0,11,12
 210 496 210 496 210 394 c 2,13,-1
 210 64 l 2,14,15
 210 0 210 0 164 0 c 256,16,17
 118 0 118 0 118 64 c 2,18,-1
 118 1174 l 2,19,20
 118 1236 118 1236 164 1236 c 256,21,22
 210 1236 210 1236 210 1174 c 2,23,-1
 210 614 l 1,24,25
 318 764 318 764 500 764 c 0,26,27
 672 764 672 764 772 658 c 0,28,29
 882 540 882 540 882 394 c 2,30,-1
 882 64 l 2,0,1
EndSplineSet
Validated: 1
EndChar

StartChar: i
Encoding: 329 105 73
Width: 1000
VWidth: 1704
Flags: MW
LayerCount: 2
Fore
SplineSet
646 1006 m 256,0,1
 646 948 646 948 603 906 c 128,-1,2
 560 864 560 864 500 864 c 256,3,4
 442 864 442 864 399 905 c 128,-1,5
 356 946 356 946 356 1006 c 256,6,7
 356 1064 356 1064 399 1106 c 128,-1,8
 442 1148 442 1148 500 1148 c 256,9,10
 558 1148 558 1148 602 1106 c 128,-1,11
 646 1064 646 1064 646 1006 c 256,0,1
592 92 m 1,12,13
 736 90 736 90 736 46 c 256,14,15
 736 0 736 0 642 0 c 0,16,17
 502 0 502 0 500 120 c 1,18,-1
 500 680 l 1,19,-1
 316 680 l 2,20,21
 262 680 262 680 262 730 c 256,22,23
 262 772 262 772 316 772 c 2,24,-1
 540 772 l 2,25,26
 592 772 592 772 592 730 c 2,27,-1
 592 92 l 1,12,13
EndSplineSet
Validated: 1
EndChar

StartChar: j
Encoding: 330 106 74
Width: 1000
VWidth: 1704
Flags: MW
LayerCount: 2
Back
SplineSet
0 1000 m 5,0,-1
 1000 1000 l 1029,1,2
  Spiro
    0 1000 {
    1000 1000 v
    0 0 z
  EndSpiro
  Named: "G-500/500"
0 472 m 5,0,-1
 1000 472 l 1029,1,2
  Spiro
    0 472 {
    1000 472 v
    0 0 z
  EndSpiro
  Named: "G1GoldSplit"
0 618 m 5,0,-1
 1000 618 l 1029,1,2
  Spiro
    0 618 {
    1000 618 v
    0 0 z
  EndSpiro
  Named: "G1Center"
736 1236 m 5,5,-1
 736 -764 l 1029
  Spiro
    736 1236 {
    736 -764 v
    0 0 z
  EndSpiro
  Named: "GCEnd"
264 1236 m 5,5,-1
 264 -764 l 1029
  Spiro
    264 1236 {
    264 -764 v
    0 0 z
  EndSpiro
  Named: "GCStart"
0 146 m 5,0,-1
 1000 146 l 1029,1,2
  Spiro
    0 146 {
    1000 146 v
    0 0 z
  EndSpiro
  Named: "G2Center"
0 -472 m 5,0,-1
 1000 -472 l 1029,1,2
  Spiro
    0 -472 {
    1000 -472 v
    0 0 z
  EndSpiro
  Named: "G2Bottom"
0 764 m 5,0,-1
 1000 764 l 1029,1,2
  Spiro
    0 764 {
    1000 764 v
    0 0 z
  EndSpiro
  Named: "G2Top"
118 1236 m 5,3,-1
 118 -764 l 1029
  Spiro
    118 1236 {
    118 -764 v
    0 0 z
  EndSpiro
  Named: "GLeft"
882 1236 m 5,5,-1
 882 -764 l 1029
  Spiro
    882 1236 {
    882 -764 v
    0 0 z
  EndSpiro
  Named: "GRight"
500 1236 m 5,0,-1
 500 -764 l 1029
  Spiro
    500 1236 {
    500 -764 v
    0 0 z
  EndSpiro
0 618 m 5,0,-1
 1000 618 l 1029,1,2
  Spiro
    0 618 {
    1000 618 v
    0 0 z
  EndSpiro
  Named: "G1Center"
590 1236 m 5,3,-1
 590 -764 l 1029
  Spiro
    590 1236 {
    590 -764 v
    0 0 z
  EndSpiro
  Named: "GLR"
410 1236 m 5,5,-1
 410 -764 l 1029
  Spiro
    410 1236 {
    410 -764 v
    0 0 z
  EndSpiro
  Named: "GRR"
0 236 m 5,0,-1
 1000 236 l 1029,1,2
  Spiro
    0 236 {
    1000 236 v
    0 0 z
  EndSpiro
  Named: "EMSquareCenter"
EndSplineSet
Fore
SplineSet
882 1040 m 256,0,1
 882 982 882 982 839 938 c 128,-1,2
 796 894 796 894 734 894 c 256,3,4
 676 894 676 894 632 936 c 128,-1,5
 588 978 588 978 588 1040 c 256,6,7
 588 1098 588 1098 630 1142 c 128,-1,8
 672 1186 672 1186 734 1186 c 256,9,10
 792 1186 792 1186 837 1142 c 128,-1,11
 882 1098 882 1098 882 1040 c 256,0,1
836 764 m 6,12,13
 882 764 882 764 882 718 c 6,14,-1
 882 46 l 6,15,16
 882 -72 882 -72 868 -150 c 4,17,18
 836 -336 836 -336 676 -426 c 4,19,20
 594 -472 594 -472 503 -472 c 132,-1,21
 412 -472 412 -472 332 -434 c 4,22,23
 160 -352 160 -352 124 -146 c 4,24,25
 118 -112 118 -112 118 -46 c 4,26,27
 118 -2 118 -2 164 -2 c 132,-1,28
 210 -2 210 -2 210 -46 c 4,29,30
 210 -204 210 -204 250 -254 c 4,31,32
 348 -380 348 -380 482 -380 c 4,33,34
 564 -380 564 -380 630 -340 c 4,35,36
 756 -262 756 -262 782 -98 c 4,37,38
 790 -48 790 -48 790 46 c 6,39,-1
 790 672 l 5,40,-1
 482 672 l 6,41,42
 410 672 410 672 410 718 c 132,-1,43
 410 764 410 764 482 764 c 6,44,-1
 836 764 l 6,12,13
EndSplineSet
Validated: 1
EndChar

StartChar: k
Encoding: 331 107 75
Width: 1000
VWidth: 1704
Flags: MW
LayerCount: 2
Back
SplineSet
0 1000 m 1,0,-1
 1000 1000 l 1025,1,2
  Spiro
    0 1000 {
    1000 1000 v
    0 0 z
  EndSpiro
  Named: "G-500/500"
0 472 m 1,0,-1
 1000 472 l 1025,1,2
  Spiro
    0 472 {
    1000 472 v
    0 0 z
  EndSpiro
  Named: "G1GoldSplit"
0 618 m 1,0,-1
 1000 618 l 1025,1,2
  Spiro
    0 618 {
    1000 618 v
    0 0 z
  EndSpiro
  Named: "G1Center"
736 1236 m 1,5,-1
 736 -764 l 1025
  Spiro
    736 1236 {
    736 -764 v
    0 0 z
  EndSpiro
  Named: "GCEnd"
264 1236 m 1,5,-1
 264 -764 l 1025
  Spiro
    264 1236 {
    264 -764 v
    0 0 z
  EndSpiro
  Named: "GCStart"
0 146 m 1,0,-1
 1000 146 l 1025,1,2
  Spiro
    0 146 {
    1000 146 v
    0 0 z
  EndSpiro
  Named: "G2Center"
0 -472 m 1,0,-1
 1000 -472 l 1025,1,2
  Spiro
    0 -472 {
    1000 -472 v
    0 0 z
  EndSpiro
  Named: "G2Bottom"
0 764 m 1,0,-1
 1000 764 l 1025,1,2
  Spiro
    0 764 {
    1000 764 v
    0 0 z
  EndSpiro
  Named: "G2Top"
118 1236 m 1,3,-1
 118 -764 l 1025
  Spiro
    118 1236 {
    118 -764 v
    0 0 z
  EndSpiro
  Named: "GLeft"
882 1236 m 1,5,-1
 882 -764 l 1025
  Spiro
    882 1236 {
    882 -764 v
    0 0 z
  EndSpiro
  Named: "GRight"
500 1236 m 1,0,-1
 500 -764 l 1025
  Spiro
    500 1236 {
    500 -764 v
    0 0 z
  EndSpiro
0 618 m 1,0,-1
 1000 618 l 1025,1,2
  Spiro
    0 618 {
    1000 618 v
    0 0 z
  EndSpiro
  Named: "G1Center"
590 1236 m 1,3,-1
 590 -764 l 1025
  Spiro
    590 1236 {
    590 -764 v
    0 0 z
  EndSpiro
  Named: "GLR"
410 1236 m 1,5,-1
 410 -764 l 1025
  Spiro
    410 1236 {
    410 -764 v
    0 0 z
  EndSpiro
  Named: "GRR"
0 236 m 1,0,-1
 1000 236 l 1025,1,2
  Spiro
    0 236 {
    1000 236 v
    0 0 z
  EndSpiro
  Named: "EMSquareCenter"
EndSplineSet
Fore
SplineSet
846 94 m 2,0,1
 882 74 882 74 882 60 c 0,2,3
 882 40 882 40 867 20 c 128,-1,4
 852 0 852 0 832 0 c 0,5,6
 826 0 826 0 792 20 c 2,7,-1
 242 336 l 2,8,9
 214 352 214 352 210 372 c 1,10,-1
 210 46 l 2,11,12
 210 2 210 2 164 2 c 256,13,14
 118 2 118 2 118 46 c 2,15,-1
 118 1190 l 2,16,17
 118 1236 118 1236 162 1236 c 0,18,19
 210 1236 210 1236 210 1190 c 0,20,21
 210 792 210 792 210 394 c 1,22,23
 214 412 214 412 242 428 c 1,24,-1
 792 752 l 2,25,26
 808 762 808 762 826 762 c 0,27,28
 846 762 846 762 863 743 c 128,-1,29
 880 724 880 724 880 704 c 0,30,31
 880 692 880 692 838 668 c 2,32,-1
 348 382 l 1,33,-1
 846 94 l 2,0,1
EndSplineSet
Validated: 1
EndChar

StartChar: l
Encoding: 332 108 76
Width: 1000
VWidth: 1704
Flags: MW
LayerCount: 2
Back
SplineSet
0 1000 m 1,0,-1
 1000 1000 l 1025,1,2
  Spiro
    0 1000 {
    1000 1000 v
    0 0 z
  EndSpiro
  Named: "G-500/500"
0 472 m 1,0,-1
 1000 472 l 1025,1,2
  Spiro
    0 472 {
    1000 472 v
    0 0 z
  EndSpiro
  Named: "G1GoldSplit"
0 618 m 1,0,-1
 1000 618 l 1025,1,2
  Spiro
    0 618 {
    1000 618 v
    0 0 z
  EndSpiro
  Named: "G1Center"
736 1236 m 1,5,-1
 736 -764 l 1025
  Spiro
    736 1236 {
    736 -764 v
    0 0 z
  EndSpiro
  Named: "GCEnd"
264 1236 m 1,5,-1
 264 -764 l 1025
  Spiro
    264 1236 {
    264 -764 v
    0 0 z
  EndSpiro
  Named: "GCStart"
0 146 m 1,0,-1
 1000 146 l 1025,1,2
  Spiro
    0 146 {
    1000 146 v
    0 0 z
  EndSpiro
  Named: "G2Center"
0 -472 m 1,0,-1
 1000 -472 l 1025,1,2
  Spiro
    0 -472 {
    1000 -472 v
    0 0 z
  EndSpiro
  Named: "G2Bottom"
0 764 m 1,0,-1
 1000 764 l 1025,1,2
  Spiro
    0 764 {
    1000 764 v
    0 0 z
  EndSpiro
  Named: "G2Top"
118 1236 m 1,3,-1
 118 -764 l 1025
  Spiro
    118 1236 {
    118 -764 v
    0 0 z
  EndSpiro
  Named: "GLeft"
882 1236 m 1,5,-1
 882 -764 l 1025
  Spiro
    882 1236 {
    882 -764 v
    0 0 z
  EndSpiro
  Named: "GRight"
500 1236 m 1,0,-1
 500 -764 l 1025
  Spiro
    500 1236 {
    500 -764 v
    0 0 z
  EndSpiro
0 618 m 1,0,-1
 1000 618 l 1025,1,2
  Spiro
    0 618 {
    1000 618 v
    0 0 z
  EndSpiro
  Named: "G1Center"
590 1236 m 1,3,-1
 590 -764 l 1025
  Spiro
    590 1236 {
    590 -764 v
    0 0 z
  EndSpiro
  Named: "GLR"
410 1236 m 1,5,-1
 410 -764 l 1025
  Spiro
    410 1236 {
    410 -764 v
    0 0 z
  EndSpiro
  Named: "GRR"
0 236 m 1,0,-1
 1000 236 l 1025,1,2
  Spiro
    0 236 {
    1000 236 v
    0 0 z
  EndSpiro
  Named: "EMSquareCenter"
EndSplineSet
Fore
SplineSet
882 436 m 5,0,1
 882 200 882 200 770 100 c 132,-1,2
 658 0 658 0 500 0 c 260,3,4
 342 0 342 0 230 118 c 132,-1,5
 118 236 118 236 118 398 c 6,6,-1
 118 1180 l 6,7,8
 118 1236 118 1236 164 1236 c 132,-1,9
 210 1236 210 1236 210 1180 c 6,10,-1
 210 398 l 6,11,12
 210 290 210 290 287 191 c 132,-1,13
 364 92 364 92 500 92 c 260,14,15
 634 92 634 92 712 171 c 132,-1,16
 790 250 790 250 790 434 c 5,17,18
 790 472 790 472 834 472 c 4,19,20
 882 472 882 472 882 436 c 5,0,1
EndSplineSet
Validated: 1
EndChar

StartChar: m
Encoding: 333 109 77
Width: 1000
VWidth: 1704
Flags: MW
LayerCount: 2
Back
SplineSet
0 1000 m 5,0,-1
 1000 1000 l 1029,1,2
  Spiro
    0 1000 {
    1000 1000 v
    0 0 z
  EndSpiro
  Named: "G-500/500"
0 472 m 5,0,-1
 1000 472 l 1029,1,2
  Spiro
    0 472 {
    1000 472 v
    0 0 z
  EndSpiro
  Named: "G1GoldSplit"
0 618 m 5,0,-1
 1000 618 l 1029,1,2
  Spiro
    0 618 {
    1000 618 v
    0 0 z
  EndSpiro
  Named: "G1Center"
736 1236 m 5,5,-1
 736 -764 l 1029
  Spiro
    736 1236 {
    736 -764 v
    0 0 z
  EndSpiro
  Named: "GCEnd"
264 1236 m 5,5,-1
 264 -764 l 1029
  Spiro
    264 1236 {
    264 -764 v
    0 0 z
  EndSpiro
  Named: "GCStart"
0 146 m 5,0,-1
 1000 146 l 1029,1,2
  Spiro
    0 146 {
    1000 146 v
    0 0 z
  EndSpiro
  Named: "G2Center"
0 -472 m 5,0,-1
 1000 -472 l 1029,1,2
  Spiro
    0 -472 {
    1000 -472 v
    0 0 z
  EndSpiro
  Named: "G2Bottom"
0 764 m 5,0,-1
 1000 764 l 1029,1,2
  Spiro
    0 764 {
    1000 764 v
    0 0 z
  EndSpiro
  Named: "G2Top"
118 1236 m 5,3,-1
 118 -764 l 1029
  Spiro
    118 1236 {
    118 -764 v
    0 0 z
  EndSpiro
  Named: "GLeft"
882 1236 m 5,5,-1
 882 -764 l 1029
  Spiro
    882 1236 {
    882 -764 v
    0 0 z
  EndSpiro
  Named: "GRight"
500 1236 m 5,0,-1
 500 -764 l 1029
  Spiro
    500 1236 {
    500 -764 v
    0 0 z
  EndSpiro
0 618 m 5,0,-1
 1000 618 l 1029,1,2
  Spiro
    0 618 {
    1000 618 v
    0 0 z
  EndSpiro
  Named: "G1Center"
590 1236 m 5,3,-1
 590 -764 l 1029
  Spiro
    590 1236 {
    590 -764 v
    0 0 z
  EndSpiro
  Named: "GLR"
410 1236 m 5,5,-1
 410 -764 l 1029
  Spiro
    410 1236 {
    410 -764 v
    0 0 z
  EndSpiro
  Named: "GRR"
0 236 m 5,0,-1
 1000 236 l 1029,1,2
  Spiro
    0 236 {
    1000 236 v
    0 0 z
  EndSpiro
  Named: "EMSquareCenter"
EndSplineSet
Fore
SplineSet
882 56 m 2,0,1
 882 0 882 0 836 0 c 256,2,3
 790 0 790 0 790 56 c 2,4,-1
 790 546 l 2,5,6
 790 612 790 612 758 642 c 128,-1,7
 726 672 726 672 664 672 c 256,8,9
 618 672 618 672 582 641 c 128,-1,10
 546 610 546 610 546 546 c 2,11,-1
 546 56 l 2,12,13
 546 0 546 0 500 0 c 256,14,15
 454 0 454 0 454 56 c 2,16,-1
 454 546 l 2,17,18
 454 612 454 612 417 642 c 128,-1,19
 380 672 380 672 334 672 c 256,20,21
 278 672 278 672 244 641 c 128,-1,22
 210 610 210 610 210 546 c 2,23,-1
 210 56 l 2,24,25
 210 0 210 0 164 0 c 256,26,27
 118 0 118 0 118 56 c 2,28,-1
 118 708 l 2,29,30
 118 764 118 764 164 764 c 0,31,32
 196 764 196 764 210 730 c 1,33,34
 264 762 264 762 334 764 c 0,35,36
 434 764 434 764 500 688 c 1,37,38
 566 762 566 762 664 764 c 0,39,40
 764 764 764 764 828 700 c 0,41,42
 882 644 882 644 882 546 c 2,43,-1
 882 56 l 2,0,1
EndSplineSet
Validated: 1
EndChar

StartChar: n
Encoding: 334 110 78
Width: 1000
VWidth: 1704
Flags: MW
LayerCount: 2
Back
SplineSet
0 1000 m 5,0,-1
 1000 1000 l 1029,1,2
  Spiro
    0 1000 {
    1000 1000 v
    0 0 z
  EndSpiro
  Named: "G-500/500"
0 472 m 5,0,-1
 1000 472 l 1029,1,2
  Spiro
    0 472 {
    1000 472 v
    0 0 z
  EndSpiro
  Named: "G1GoldSplit"
0 618 m 5,0,-1
 1000 618 l 1029,1,2
  Spiro
    0 618 {
    1000 618 v
    0 0 z
  EndSpiro
  Named: "G1Center"
736 1236 m 5,5,-1
 736 -764 l 1029
  Spiro
    736 1236 {
    736 -764 v
    0 0 z
  EndSpiro
  Named: "GCEnd"
264 1236 m 5,5,-1
 264 -764 l 1029
  Spiro
    264 1236 {
    264 -764 v
    0 0 z
  EndSpiro
  Named: "GCStart"
0 146 m 5,0,-1
 1000 146 l 1029,1,2
  Spiro
    0 146 {
    1000 146 v
    0 0 z
  EndSpiro
  Named: "G2Center"
0 -472 m 5,0,-1
 1000 -472 l 1029,1,2
  Spiro
    0 -472 {
    1000 -472 v
    0 0 z
  EndSpiro
  Named: "G2Bottom"
0 764 m 5,0,-1
 1000 764 l 1029,1,2
  Spiro
    0 764 {
    1000 764 v
    0 0 z
  EndSpiro
  Named: "G2Top"
118 1236 m 5,3,-1
 118 -764 l 1029
  Spiro
    118 1236 {
    118 -764 v
    0 0 z
  EndSpiro
  Named: "GLeft"
882 1236 m 5,5,-1
 882 -764 l 1029
  Spiro
    882 1236 {
    882 -764 v
    0 0 z
  EndSpiro
  Named: "GRight"
500 1236 m 5,0,-1
 500 -764 l 1029
  Spiro
    500 1236 {
    500 -764 v
    0 0 z
  EndSpiro
0 618 m 5,0,-1
 1000 618 l 1029,1,2
  Spiro
    0 618 {
    1000 618 v
    0 0 z
  EndSpiro
  Named: "G1Center"
590 1236 m 5,3,-1
 590 -764 l 1029
  Spiro
    590 1236 {
    590 -764 v
    0 0 z
  EndSpiro
  Named: "GLR"
410 1236 m 5,5,-1
 410 -764 l 1029
  Spiro
    410 1236 {
    410 -764 v
    0 0 z
  EndSpiro
  Named: "GRR"
0 236 m 5,0,-1
 1000 236 l 1029,1,2
  Spiro
    0 236 {
    1000 236 v
    0 0 z
  EndSpiro
  Named: "EMSquareCenter"
EndSplineSet
Fore
SplineSet
882 58 m 2,0,1
 882 0 882 0 836 0 c 256,2,3
 790 0 790 0 790 58 c 2,4,-1
 790 420 l 2,5,6
 790 510 790 510 700 604 c 0,7,8
 634 672 634 672 500 672 c 256,9,10
 356 672 356 672 276 600 c 0,11,12
 210 538 210 538 210 420 c 2,13,-1
 210 58 l 2,14,15
 210 0 210 0 164 0 c 256,16,17
 118 0 118 0 118 58 c 2,18,-1
 118 706 l 2,19,20
 118 764 118 764 164 764 c 256,21,22
 210 764 210 764 210 714 c 0,23,-1
 210 676 l 1,24,25
 318 764 318 764 500 764 c 0,26,27
 658 764 658 764 770 663 c 128,-1,28
 882 562 882 562 882 420 c 2,29,-1
 882 58 l 2,0,1
EndSplineSet
Validated: 1
EndChar

StartChar: o
Encoding: 335 111 79
Width: 1000
VWidth: 1704
Flags: MW
LayerCount: 2
Back
SplineSet
0 1000 m 5,0,-1
 1000 1000 l 1029,1,2
  Spiro
    0 1000 {
    1000 1000 v
    0 0 z
  EndSpiro
  Named: "G-500/500"
0 472 m 5,0,-1
 1000 472 l 1029,1,2
  Spiro
    0 472 {
    1000 472 v
    0 0 z
  EndSpiro
  Named: "G1GoldSplit"
0 618 m 5,0,-1
 1000 618 l 1029,1,2
  Spiro
    0 618 {
    1000 618 v
    0 0 z
  EndSpiro
  Named: "G1Center"
736 1236 m 5,5,-1
 736 -764 l 1029
  Spiro
    736 1236 {
    736 -764 v
    0 0 z
  EndSpiro
  Named: "GCEnd"
264 1236 m 5,5,-1
 264 -764 l 1029
  Spiro
    264 1236 {
    264 -764 v
    0 0 z
  EndSpiro
  Named: "GCStart"
0 146 m 5,0,-1
 1000 146 l 1029,1,2
  Spiro
    0 146 {
    1000 146 v
    0 0 z
  EndSpiro
  Named: "G2Center"
0 -472 m 5,0,-1
 1000 -472 l 1029,1,2
  Spiro
    0 -472 {
    1000 -472 v
    0 0 z
  EndSpiro
  Named: "G2Bottom"
0 764 m 5,0,-1
 1000 764 l 1029,1,2
  Spiro
    0 764 {
    1000 764 v
    0 0 z
  EndSpiro
  Named: "G2Top"
118 1236 m 5,3,-1
 118 -764 l 1029
  Spiro
    118 1236 {
    118 -764 v
    0 0 z
  EndSpiro
  Named: "GLeft"
882 1236 m 5,5,-1
 882 -764 l 1029
  Spiro
    882 1236 {
    882 -764 v
    0 0 z
  EndSpiro
  Named: "GRight"
500 1236 m 5,0,-1
 500 -764 l 1029
  Spiro
    500 1236 {
    500 -764 v
    0 0 z
  EndSpiro
0 618 m 5,0,-1
 1000 618 l 1029,1,2
  Spiro
    0 618 {
    1000 618 v
    0 0 z
  EndSpiro
  Named: "G1Center"
590 1236 m 5,3,-1
 590 -764 l 1029
  Spiro
    590 1236 {
    590 -764 v
    0 0 z
  EndSpiro
  Named: "GLR"
410 1236 m 5,5,-1
 410 -764 l 1029
  Spiro
    410 1236 {
    410 -764 v
    0 0 z
  EndSpiro
  Named: "GRR"
0 236 m 5,0,-1
 1000 236 l 1029,1,2
  Spiro
    0 236 {
    1000 236 v
    0 0 z
  EndSpiro
  Named: "EMSquareCenter"
EndSplineSet
Fore
SplineSet
882 384 m 260,0,1
 882 226 882 226 770 113 c 132,-1,2
 658 0 658 0 500 0 c 260,3,4
 342 0 342 0 230 112 c 132,-1,5
 118 224 118 224 118 384 c 260,6,7
 118 538 118 538 229 651 c 132,-1,8
 340 764 340 764 500 764 c 260,9,10
 656 764 656 764 769 651 c 132,-1,11
 882 538 882 538 882 384 c 260,0,1
790 384 m 260,12,13
 790 504 790 504 704 588 c 132,-1,14
 618 672 618 672 500 672 c 260,15,16
 380 672 380 672 295 588 c 132,-1,17
 210 504 210 504 210 384 c 260,18,19
 210 264 210 264 295 178 c 132,-1,20
 380 92 380 92 500 92 c 260,21,22
 618 92 618 92 704 178 c 132,-1,23
 790 264 790 264 790 384 c 260,12,13
EndSplineSet
Validated: 1
EndChar

StartChar: p
Encoding: 336 112 80
Width: 1000
VWidth: 1704
Flags: MW
LayerCount: 2
Back
SplineSet
0 472 m 5,0,-1
 1000 472 l 1029,1,2
  Named: "G1GoldSplit"
0 618 m 5,0,-1
 1000 618 l 1029,1,2
  Named: "G1Center"
736 1236 m 5,5,-1
 736 -764 l 1029
  Named: "GCEnd"
264 1236 m 5,5,-1
 264 -764 l 1029
  Named: "GCStart"
0 146 m 5,0,-1
 1000 146 l 1029,1,2
  Named: "G2Center"
0 -472 m 5,0,-1
 1000 -472 l 1029,1,2
  Named: "G2Bottom"
0 764 m 5,0,-1
 1000 764 l 1029,1,2
  Named: "G2Top"
118 1236 m 5,3,-1
 118 -764 l 1029
  Named: "GLeft"
882 1236 m 5,5,-1
 882 -764 l 1029
  Named: "GRight"
500 1236 m 5,0,-1
 500 -764 l 1029
0 618 m 5,0,-1
 1000 618 l 1029,1,2
  Named: "G1Center"
590 1236 m 5,3,-1
 590 -764 l 1029
  Named: "GLR"
410 1236 m 5,5,-1
 410 -764 l 1029
  Named: "GRR"
0 236 m 5,0,-1
 1000 236 l 1029,1,2
  Named: "EMSquareCenter"
EndSplineSet
Fore
SplineSet
882 384 m 260,0,1
 882 236 882 236 776 126 c 4,2,3
 656 2 656 2 494 0 c 4,4,5
 330 0 330 0 210 108 c 5,6,-1
 210 -416 l 6,7,8
 210 -472 210 -472 164 -472 c 260,9,10
 118 -472 118 -472 118 -416 c 6,11,-1
 118 702 l 6,12,13
 118 764 118 764 164 764 c 132,-1,14
 210 764 210 764 210 720 c 4,15,16
 210 664 210 664 210 654 c 5,17,18
 328 762 328 762 494 764 c 4,19,20
 654 764 654 764 776 640 c 4,21,22
 882 532 882 532 882 384 c 260,0,1
790 384 m 260,23,24
 790 492 790 492 708 578 c 4,25,26
 622 670 622 670 494 672 c 260,27,28
 380 672 380 672 292 578 c 4,29,30
 210 488 210 488 210 384 c 260,31,32
 210 272 210 272 292 184 c 4,33,34
 378 92 378 92 494 92 c 260,35,36
 620 92 620 92 708 184 c 4,37,38
 790 270 790 270 790 384 c 260,23,24
EndSplineSet
Validated: 1
EndChar

StartChar: q
Encoding: 337 113 81
Width: 1000
VWidth: 1704
Flags: MW
LayerCount: 2
Back
SplineSet
0 472 m 5,0,-1
 1000 472 l 1029,1,2
  Named: "G1GoldSplit"
0 618 m 5,0,-1
 1000 618 l 1029,1,2
  Named: "G1Center"
736 1236 m 5,5,-1
 736 -764 l 1029
  Named: "GCEnd"
264 1236 m 5,5,-1
 264 -764 l 1029
  Named: "GCStart"
0 146 m 5,0,-1
 1000 146 l 1029,1,2
  Named: "G2Center"
0 -472 m 5,0,-1
 1000 -472 l 1029,1,2
  Named: "G2Bottom"
0 764 m 5,0,-1
 1000 764 l 1029,1,2
  Named: "G2Top"
118 1236 m 5,3,-1
 118 -764 l 1029
  Named: "GLeft"
882 1236 m 5,5,-1
 882 -764 l 1029
  Named: "GRight"
500 1236 m 5,0,-1
 500 -764 l 1029
0 618 m 5,0,-1
 1000 618 l 1029,1,2
  Named: "G1Center"
590 1236 m 5,3,-1
 590 -764 l 1029
  Named: "GLR"
410 1236 m 5,5,-1
 410 -764 l 1029
  Named: "GRR"
0 236 m 5,0,-1
 1000 236 l 1029,1,2
  Named: "EMSquareCenter"
EndSplineSet
Fore
SplineSet
118 384 m 256,0,1
 118 532 118 532 224 640 c 0,2,3
 346 764 346 764 506 764 c 0,4,5
 672 762 672 762 790 654 c 1,6,7
 790 664 790 664 790 720 c 0,8,9
 790 764 790 764 836 764 c 128,-1,10
 882 764 882 764 882 702 c 2,11,-1
 882 -416 l 2,12,13
 882 -472 882 -472 836 -472 c 256,14,15
 790 -472 790 -472 790 -416 c 2,16,-1
 790 108 l 1,17,18
 670 0 670 0 506 0 c 0,19,20
 344 2 344 2 224 126 c 0,21,22
 118 236 118 236 118 384 c 256,0,1
210 384 m 256,23,24
 210 270 210 270 292 184 c 0,25,26
 380 92 380 92 506 92 c 256,27,28
 622 92 622 92 708 184 c 0,29,30
 790 272 790 272 790 384 c 256,31,32
 790 488 790 488 708 578 c 0,33,34
 620 672 620 672 506 672 c 256,35,36
 378 670 378 670 292 578 c 0,37,38
 210 492 210 492 210 384 c 256,23,24
EndSplineSet
Validated: 1
EndChar

StartChar: r
Encoding: 338 114 82
Width: 1000
VWidth: 1704
Flags: MW
LayerCount: 2
Back
SplineSet
0 1000 m 5,0,-1
 1000 1000 l 1029,1,2
  Spiro
    0 1000 {
    1000 1000 v
    0 0 z
  EndSpiro
  Named: "G-500/500"
0 472 m 5,0,-1
 1000 472 l 1029,1,2
  Spiro
    0 472 {
    1000 472 v
    0 0 z
  EndSpiro
  Named: "G1GoldSplit"
0 618 m 5,0,-1
 1000 618 l 1029,1,2
  Spiro
    0 618 {
    1000 618 v
    0 0 z
  EndSpiro
  Named: "G1Center"
736 1236 m 5,5,-1
 736 -764 l 1029
  Spiro
    736 1236 {
    736 -764 v
    0 0 z
  EndSpiro
  Named: "GCEnd"
264 1236 m 5,5,-1
 264 -764 l 1029
  Spiro
    264 1236 {
    264 -764 v
    0 0 z
  EndSpiro
  Named: "GCStart"
0 146 m 5,0,-1
 1000 146 l 1029,1,2
  Spiro
    0 146 {
    1000 146 v
    0 0 z
  EndSpiro
  Named: "G2Center"
0 -472 m 5,0,-1
 1000 -472 l 1029,1,2
  Spiro
    0 -472 {
    1000 -472 v
    0 0 z
  EndSpiro
  Named: "G2Bottom"
0 764 m 5,0,-1
 1000 764 l 1029,1,2
  Spiro
    0 764 {
    1000 764 v
    0 0 z
  EndSpiro
  Named: "G2Top"
118 1236 m 5,3,-1
 118 -764 l 1029
  Spiro
    118 1236 {
    118 -764 v
    0 0 z
  EndSpiro
  Named: "GLeft"
882 1236 m 5,5,-1
 882 -764 l 1029
  Spiro
    882 1236 {
    882 -764 v
    0 0 z
  EndSpiro
  Named: "GRight"
500 1236 m 5,0,-1
 500 -764 l 1029
  Spiro
    500 1236 {
    500 -764 v
    0 0 z
  EndSpiro
0 618 m 5,0,-1
 1000 618 l 1029,1,2
  Spiro
    0 618 {
    1000 618 v
    0 0 z
  EndSpiro
  Named: "G1Center"
590 1236 m 5,3,-1
 590 -764 l 1029
  Spiro
    590 1236 {
    590 -764 v
    0 0 z
  EndSpiro
  Named: "GLR"
410 1236 m 5,5,-1
 410 -764 l 1029
  Spiro
    410 1236 {
    410 -764 v
    0 0 z
  EndSpiro
  Named: "GRR"
0 236 m 5,0,-1
 1000 236 l 1029,1,2
  Spiro
    0 236 {
    1000 236 v
    0 0 z
  EndSpiro
  Named: "EMSquareCenter"
EndSplineSet
Fore
SplineSet
882 586 m 0,0,1
 882 560 882 560 864 548 c 128,-1,2
 846 536 846 536 834 536 c 0,3,4
 816 536 816 536 794 554 c 0,5,6
 664 672 664 672 540 672 c 256,7,8
 368 672 368 672 280 584 c 0,9,10
 212 516 212 516 210 382 c 2,11,-1
 210 56 l 2,12,13
 210 0 210 0 164 0 c 256,14,15
 118 0 118 0 118 56 c 2,16,-1
 118 708 l 2,17,18
 118 764 118 764 164 764 c 0,19,20
 198 764 198 764 210 724 c 0,21,22
 212 716 212 716 212 688 c 0,23,24
 212 670 212 670 210 648 c 1,25,26
 334 762 334 762 540 764 c 0,27,28
 632 764 632 764 724 726 c 0,29,30
 822 686 822 686 868 620 c 0,31,32
 882 600 882 600 882 586 c 0,0,1
EndSplineSet
Validated: 1
EndChar

StartChar: s
Encoding: 339 115 83
Width: 1000
VWidth: 1704
Flags: MW
LayerCount: 2
Back
SplineSet
0 1000 m 1,0,-1
 1000 1000 l 1025,1,2
  Spiro
    0 1000 {
    1000 1000 v
    0 0 z
  EndSpiro
  Named: "G-500/500"
0 472 m 1,0,-1
 1000 472 l 1025,1,2
  Spiro
    0 472 {
    1000 472 v
    0 0 z
  EndSpiro
  Named: "G1GoldSplit"
0 618 m 1,0,-1
 1000 618 l 1025,1,2
  Spiro
    0 618 {
    1000 618 v
    0 0 z
  EndSpiro
  Named: "G1Center"
736 1236 m 5,5,-1
 736 -764 l 1025
  Spiro
    736 1236 {
    736 -764 v
    0 0 z
  EndSpiro
  Named: "GCEnd"
264 1236 m 1,5,-1
 264 -764 l 1025
  Spiro
    264 1236 {
    264 -764 v
    0 0 z
  EndSpiro
  Named: "GCStart"
0 146 m 1,0,-1
 1000 146 l 1025,1,2
  Spiro
    0 146 {
    1000 146 v
    0 0 z
  EndSpiro
  Named: "G2Center"
0 -472 m 1,0,-1
 1000 -472 l 1025,1,2
  Spiro
    0 -472 {
    1000 -472 v
    0 0 z
  EndSpiro
  Named: "G2Bottom"
0 764 m 1,0,-1
 1000 764 l 1025,1,2
  Spiro
    0 764 {
    1000 764 v
    0 0 z
  EndSpiro
  Named: "G2Top"
118 1236 m 1,3,-1
 118 -764 l 1025
  Spiro
    118 1236 {
    118 -764 v
    0 0 z
  EndSpiro
  Named: "GLeft"
882 1236 m 1,5,-1
 882 -764 l 1025
  Spiro
    882 1236 {
    882 -764 v
    0 0 z
  EndSpiro
  Named: "GRight"
500 1236 m 1,0,-1
 500 -764 l 1025
  Spiro
    500 1236 {
    500 -764 v
    0 0 z
  EndSpiro
0 618 m 1,0,-1
 1000 618 l 1025,1,2
  Spiro
    0 618 {
    1000 618 v
    0 0 z
  EndSpiro
  Named: "G1Center"
590 1236 m 1,3,-1
 590 -764 l 1025
  Spiro
    590 1236 {
    590 -764 v
    0 0 z
  EndSpiro
  Named: "GLR"
410 1236 m 1,5,-1
 410 -764 l 1025
  Spiro
    410 1236 {
    410 -764 v
    0 0 z
  EndSpiro
  Named: "GRR"
0 236 m 1,0,-1
 1000 236 l 1025,1,2
  Spiro
    0 236 {
    1000 236 v
    0 0 z
  EndSpiro
  Named: "EMSquareCenter"
EndSplineSet
Fore
SplineSet
590 448 m 4,0,1
 700 418 700 418 772 378 c 4,2,3
 824 348 824 348 853 314 c 132,-1,4
 882 280 882 280 882 218 c 132,-1,5
 882 156 882 156 844 116 c 4,6,7
 726 0 726 0 516 0 c 4,8,9
 240 0 240 0 128 168 c 4,10,11
 118 184 118 184 118 198 c 4,12,13
 118 218 118 218 126 228 c 4,14,15
 140 242 140 242 157 242 c 132,-1,16
 174 242 174 242 180 236 c 12,17,18
 328 88 328 88 520 88 c 4,19,20
 754 88 754 88 782 188 c 4,21,22
 786 202 786 202 786 214 c 4,23,24
 786 256 786 256 740 284 c 4,25,26
 662 330 662 330 612 346 c 4,27,28
 564 362 564 362 442 402 c 4,29,30
 358 430 358 430 306 484 c 4,31,32
 260 534 260 534 260 598 c 4,33,34
 260 680 260 680 332 730 c 4,35,36
 384 766 384 766 460 766 c 4,37,38
 492 766 492 766 508 762 c 4,39,40
 658 724 658 724 712 662 c 4,41,42
 726 646 726 646 726 628 c 132,-1,43
 726 610 726 610 708 600 c 132,-1,44
 690 590 690 590 678 590 c 132,-1,45
 666 590 666 590 648 604 c 4,46,47
 534 678 534 678 458 678 c 4,48,49
 432 678 432 678 402 664 c 4,50,51
 358 644 358 644 358 596 c 4,52,53
 358 512 358 512 590 448 c 4,0,1
EndSplineSet
Validated: 1
EndChar

StartChar: t
Encoding: 340 116 84
Width: 1000
VWidth: 4800
Flags: MW
LayerCount: 2
Back
SplineSet
0 1000 m 1,0,-1
 1000 1000 l 1025,1,2
  Spiro
    0 1000 {
    1000 1000 v
    0 0 z
  EndSpiro
  Named: "G-500/500"
0 472 m 1,0,-1
 1000 472 l 1025,1,2
  Spiro
    0 472 {
    1000 472 v
    0 0 z
  EndSpiro
  Named: "G1GoldSplit"
0 618 m 1,0,-1
 1000 618 l 1025,1,2
  Spiro
    0 618 {
    1000 618 v
    0 0 z
  EndSpiro
  Named: "G1Center"
736 1236 m 1,5,-1
 736 -764 l 1025
  Spiro
    736 1236 {
    736 -764 v
    0 0 z
  EndSpiro
  Named: "GCEnd"
264 1236 m 1,5,-1
 264 -764 l 1025
  Spiro
    264 1236 {
    264 -764 v
    0 0 z
  EndSpiro
  Named: "GCStart"
0 146 m 1,0,-1
 1000 146 l 1025,1,2
  Spiro
    0 146 {
    1000 146 v
    0 0 z
  EndSpiro
  Named: "G2Center"
0 -472 m 1,0,-1
 1000 -472 l 1025,1,2
  Spiro
    0 -472 {
    1000 -472 v
    0 0 z
  EndSpiro
  Named: "G2Bottom"
0 764 m 1,0,-1
 1000 764 l 1025,1,2
  Spiro
    0 764 {
    1000 764 v
    0 0 z
  EndSpiro
  Named: "G2Top"
118 1236 m 1,3,-1
 118 -764 l 1025
  Spiro
    118 1236 {
    118 -764 v
    0 0 z
  EndSpiro
  Named: "GLeft"
882 1236 m 1,5,-1
 882 -764 l 1025
  Spiro
    882 1236 {
    882 -764 v
    0 0 z
  EndSpiro
  Named: "GRight"
500 1236 m 1,0,-1
 500 -764 l 1025
  Spiro
    500 1236 {
    500 -764 v
    0 0 z
  EndSpiro
0 618 m 1,0,-1
 1000 618 l 1025,1,2
  Spiro
    0 618 {
    1000 618 v
    0 0 z
  EndSpiro
  Named: "G1Center"
590 1236 m 1,3,-1
 590 -764 l 1025
  Spiro
    590 1236 {
    590 -764 v
    0 0 z
  EndSpiro
  Named: "GLR"
410 1236 m 1,5,-1
 410 -764 l 1025
  Spiro
    410 1236 {
    410 -764 v
    0 0 z
  EndSpiro
  Named: "GRR"
0 236 m 1,0,-1
 1000 236 l 1025,1,2
  Spiro
    0 236 {
    1000 236 v
    0 0 z
  EndSpiro
  Named: "EMSquareCenter"
EndSplineSet
Fore
SplineSet
318 672 m 1,0,-1
 158 672 l 2,1,2
 118 672 118 672 118 718 c 128,-1,3
 118 764 118 764 158 764 c 2,4,-1
 318 764 l 1,5,-1
 318 944 l 2,6,7
 318 1000 318 1000 364 1000 c 128,-1,8
 410 1000 410 1000 410 944 c 2,9,-1
 410 764 l 1,10,-1
 674 764 l 2,11,12
 734 764 734 764 734 718 c 128,-1,13
 734 672 734 672 674 672 c 2,14,-1
 410 672 l 1,15,16
 410 388 410 388 410 308 c 0,17,18
 410 244 410 244 448 182 c 0,19,20
 504 92 504 92 606 92 c 0,21,22
 656 92 656 92 702 112 c 0,23,24
 716 118 716 118 766 156 c 2,25,-1
 824 200 l 2,26,27
 848 218 848 218 872 186 c 0,28,29
 882 172 882 172 882 164 c 0,30,31
 882 130 882 130 822 74 c 0,32,33
 740 0 740 0 618 0 c 0,34,35
 428 2 428 2 350 154 c 0,36,37
 318 216 318 216 318 348 c 2,38,-1
 318 672 l 1,0,-1
EndSplineSet
Validated: 1
EndChar

StartChar: u
Encoding: 341 117 85
Width: 1000
VWidth: 1704
Flags: MW
LayerCount: 2
Back
SplineSet
0 -236 m 5,0,-1
 1000 -236 l 1029,1,2
  Spiro
    0 -236 {
    1000 -236 v
    0 0 z
  EndSpiro
  Named: "GBottom-500-500"
0 1000 m 5,0,-1
 1000 1000 l 1029,1,2
  Spiro
    0 1000 {
    1000 1000 v
    0 0 z
  EndSpiro
  Named: "G-500/500"
0 472 m 5,0,-1
 1000 472 l 1029,1,2
  Spiro
    0 472 {
    1000 472 v
    0 0 z
  EndSpiro
  Named: "G1GoldSplit"
0 618 m 5,0,-1
 1000 618 l 1029,1,2
  Spiro
    0 618 {
    1000 618 v
    0 0 z
  EndSpiro
  Named: "G1Center"
736 1236 m 5,5,-1
 736 -764 l 1029
  Spiro
    736 1236 {
    736 -764 v
    0 0 z
  EndSpiro
  Named: "GCEnd"
264 1236 m 5,5,-1
 264 -764 l 1029
  Spiro
    264 1236 {
    264 -764 v
    0 0 z
  EndSpiro
  Named: "GCStart"
0 146 m 5,0,-1
 1000 146 l 1029,1,2
  Spiro
    0 146 {
    1000 146 v
    0 0 z
  EndSpiro
  Named: "G2Center"
0 -472 m 5,0,-1
 1000 -472 l 1029,1,2
  Spiro
    0 -472 {
    1000 -472 v
    0 0 z
  EndSpiro
  Named: "G2Bottom"
0 764 m 5,0,-1
 1000 764 l 1029,1,2
  Spiro
    0 764 {
    1000 764 v
    0 0 z
  EndSpiro
  Named: "G2Top"
118 1236 m 5,3,-1
 118 -764 l 1029
  Spiro
    118 1236 {
    118 -764 v
    0 0 z
  EndSpiro
  Named: "GLeft"
882 1236 m 5,5,-1
 882 -764 l 1029
  Spiro
    882 1236 {
    882 -764 v
    0 0 z
  EndSpiro
  Named: "GRight"
500 1236 m 5,0,-1
 500 -764 l 1029
  Spiro
    500 1236 {
    500 -764 v
    0 0 z
  EndSpiro
0 618 m 5,0,-1
 1000 618 l 1029,1,2
  Spiro
    0 618 {
    1000 618 v
    0 0 z
  EndSpiro
  Named: "G1Center"
590 1236 m 5,3,-1
 590 -764 l 1029
  Spiro
    590 1236 {
    590 -764 v
    0 0 z
  EndSpiro
  Named: "GLR"
410 1236 m 5,5,-1
 410 -764 l 1029
  Spiro
    410 1236 {
    410 -764 v
    0 0 z
  EndSpiro
  Named: "GRR"
0 236 m 5,0,-1
 1000 236 l 1029,1,2
  Spiro
    0 236 {
    1000 236 v
    0 0 z
  EndSpiro
  Named: "EMSquareCenter"
EndSplineSet
Fore
SplineSet
882 292 m 2,0,1
 882 182 882 182 794 92 c 0,2,3
 704 0 704 0 500 0 c 256,4,5
 294 0 294 0 206 92 c 128,-1,6
 118 184 118 184 118 292 c 10,7,-1
 118 708 l 2,8,9
 118 764 118 764 164 764 c 256,10,11
 210 764 210 764 210 708 c 2,12,-1
 210 292 l 2,13,14
 210 188 210 188 306 134 c 0,15,16
 380 92 380 92 500 92 c 256,17,18
 620 92 620 92 694 134 c 0,19,20
 790 188 790 188 790 292 c 10,21,-1
 790 708 l 2,22,23
 790 764 790 764 836 764 c 256,24,25
 882 764 882 764 882 708 c 2,26,-1
 882 292 l 2,0,1
EndSplineSet
Validated: 1
EndChar

StartChar: v
Encoding: 342 118 86
Width: 1000
VWidth: 1704
Flags: MW
LayerCount: 2
Back
SplineSet
0 1000 m 5,0,-1
 1000 1000 l 1029,1,2
  Spiro
    0 1000 {
    1000 1000 v
    0 0 z
  EndSpiro
  Named: "G-500/500"
0 472 m 5,0,-1
 1000 472 l 1029,1,2
  Spiro
    0 472 {
    1000 472 v
    0 0 z
  EndSpiro
  Named: "G1GoldSplit"
0 618 m 5,0,-1
 1000 618 l 1029,1,2
  Spiro
    0 618 {
    1000 618 v
    0 0 z
  EndSpiro
  Named: "G1Center"
736 1236 m 5,5,-1
 736 -764 l 1029
  Spiro
    736 1236 {
    736 -764 v
    0 0 z
  EndSpiro
  Named: "GCEnd"
264 1236 m 5,5,-1
 264 -764 l 1029
  Spiro
    264 1236 {
    264 -764 v
    0 0 z
  EndSpiro
  Named: "GCStart"
0 146 m 5,0,-1
 1000 146 l 1029,1,2
  Spiro
    0 146 {
    1000 146 v
    0 0 z
  EndSpiro
  Named: "G2Center"
0 -472 m 5,0,-1
 1000 -472 l 1029,1,2
  Spiro
    0 -472 {
    1000 -472 v
    0 0 z
  EndSpiro
  Named: "G2Bottom"
0 764 m 5,0,-1
 1000 764 l 1029,1,2
  Spiro
    0 764 {
    1000 764 v
    0 0 z
  EndSpiro
  Named: "G2Top"
118 1236 m 5,3,-1
 118 -764 l 1029
  Spiro
    118 1236 {
    118 -764 v
    0 0 z
  EndSpiro
  Named: "GLeft"
882 1236 m 5,5,-1
 882 -764 l 1029
  Spiro
    882 1236 {
    882 -764 v
    0 0 z
  EndSpiro
  Named: "GRight"
500 1236 m 5,0,-1
 500 -764 l 1029
  Spiro
    500 1236 {
    500 -764 v
    0 0 z
  EndSpiro
0 618 m 5,0,-1
 1000 618 l 1029,1,2
  Spiro
    0 618 {
    1000 618 v
    0 0 z
  EndSpiro
  Named: "G1Center"
590 1236 m 5,3,-1
 590 -764 l 1029
  Spiro
    590 1236 {
    590 -764 v
    0 0 z
  EndSpiro
  Named: "GLR"
410 1236 m 5,5,-1
 410 -764 l 1029
  Spiro
    410 1236 {
    410 -764 v
    0 0 z
  EndSpiro
  Named: "GRR"
0 236 m 5,0,-1
 1000 236 l 1029,1,2
  Spiro
    0 236 {
    1000 236 v
    0 0 z
  EndSpiro
  Named: "EMSquareCenter"
EndSplineSet
Fore
SplineSet
884 754 m 4,0,1
 900 738 900 738 900 716 c 4,2,3
 900 696 900 696 894 684 c 6,4,-1
 558 40 l 6,5,6
 538 0 538 0 500 0 c 260,7,8
 464 0 464 0 444 40 c 6,9,-1
 128 678 l 6,10,11
 118 698 118 698 118 712 c 4,12,13
 118 738 118 738 126 746 c 4,14,15
 146 764 146 764 176 764 c 4,16,17
 186 764 186 764 208 720 c 6,18,-1
 500 132 l 5,19,-1
 808 724 l 6,20,21
 828 764 828 764 846 764 c 4,22,23
 870 764 870 764 884 754 c 4,0,1
EndSplineSet
Validated: 1
EndChar

StartChar: w
Encoding: 343 119 87
Width: 1000
VWidth: 1704
Flags: MW
LayerCount: 2
Back
SplineSet
0 1000 m 5,0,-1
 1000 1000 l 1029,1,2
  Spiro
    0 1000 {
    1000 1000 v
    0 0 z
  EndSpiro
  Named: "G-500/500"
0 472 m 5,0,-1
 1000 472 l 1029,1,2
  Spiro
    0 472 {
    1000 472 v
    0 0 z
  EndSpiro
  Named: "G1GoldSplit"
0 618 m 5,0,-1
 1000 618 l 1029,1,2
  Spiro
    0 618 {
    1000 618 v
    0 0 z
  EndSpiro
  Named: "G1Center"
736 1236 m 5,5,-1
 736 -764 l 1029
  Spiro
    736 1236 {
    736 -764 v
    0 0 z
  EndSpiro
  Named: "GCEnd"
264 1236 m 5,5,-1
 264 -764 l 1029
  Spiro
    264 1236 {
    264 -764 v
    0 0 z
  EndSpiro
  Named: "GCStart"
0 146 m 5,0,-1
 1000 146 l 1029,1,2
  Spiro
    0 146 {
    1000 146 v
    0 0 z
  EndSpiro
  Named: "G2Center"
0 -472 m 5,0,-1
 1000 -472 l 1029,1,2
  Spiro
    0 -472 {
    1000 -472 v
    0 0 z
  EndSpiro
  Named: "G2Bottom"
0 764 m 5,0,-1
 1000 764 l 1029,1,2
  Spiro
    0 764 {
    1000 764 v
    0 0 z
  EndSpiro
  Named: "G2Top"
118 1236 m 5,3,-1
 118 -764 l 1029
  Spiro
    118 1236 {
    118 -764 v
    0 0 z
  EndSpiro
  Named: "GLeft"
882 1236 m 5,5,-1
 882 -764 l 1029
  Spiro
    882 1236 {
    882 -764 v
    0 0 z
  EndSpiro
  Named: "GRight"
500 1236 m 5,0,-1
 500 -764 l 1029
  Spiro
    500 1236 {
    500 -764 v
    0 0 z
  EndSpiro
0 618 m 5,0,-1
 1000 618 l 1029,1,2
  Spiro
    0 618 {
    1000 618 v
    0 0 z
  EndSpiro
  Named: "G1Center"
590 1236 m 5,3,-1
 590 -764 l 1029
  Spiro
    590 1236 {
    590 -764 v
    0 0 z
  EndSpiro
  Named: "GLR"
410 1236 m 5,5,-1
 410 -764 l 1029
  Spiro
    410 1236 {
    410 -764 v
    0 0 z
  EndSpiro
  Named: "GRR"
0 236 m 5,0,-1
 1000 236 l 1029,1,2
  Spiro
    0 236 {
    1000 236 v
    0 0 z
  EndSpiro
  Named: "EMSquareCenter"
EndSplineSet
Fore
SplineSet
882 708 m 0,0,1
 882 698 882 698 880 692 c 2,2,-1
 686 46 l 2,3,4
 672 0 672 0 630 0 c 256,5,6
 592 0 592 0 578 46 c 2,7,-1
 500 296 l 1,8,-1
 424 46 l 2,9,10
 410 0 410 0 370 0 c 256,11,12
 330 0 330 0 316 46 c 2,13,-1
 122 690 l 2,14,15
 118 704 118 704 118 712 c 0,16,17
 118 764 118 764 156 764 c 128,-1,18
 194 764 194 764 206 722 c 2,19,-1
 368 182 l 1,20,-1
 454 458 l 1,21,22
 380 702 380 702 380 708 c 0,23,24
 380 764 380 764 416 764 c 0,25,26
 456 764 456 764 468 722 c 2,27,-1
 630 192 l 1,28,-1
 794 722 l 2,29,30
 806 764 806 764 844 764 c 0,31,32
 880 764 880 764 882 708 c 0,0,1
EndSplineSet
Validated: 1
EndChar

StartChar: x
Encoding: 344 120 88
Width: 1000
VWidth: 1704
Flags: MW
LayerCount: 2
Back
SplineSet
0 1000 m 5,0,-1
 1000 1000 l 1029,1,2
  Spiro
    0 1000 {
    1000 1000 v
    0 0 z
  EndSpiro
  Named: "G-500/500"
0 472 m 5,0,-1
 1000 472 l 1029,1,2
  Spiro
    0 472 {
    1000 472 v
    0 0 z
  EndSpiro
  Named: "G1GoldSplit"
0 618 m 5,0,-1
 1000 618 l 1029,1,2
  Spiro
    0 618 {
    1000 618 v
    0 0 z
  EndSpiro
  Named: "G1Center"
736 1236 m 5,5,-1
 736 -764 l 1029
  Spiro
    736 1236 {
    736 -764 v
    0 0 z
  EndSpiro
  Named: "GCEnd"
264 1236 m 5,5,-1
 264 -764 l 1029
  Spiro
    264 1236 {
    264 -764 v
    0 0 z
  EndSpiro
  Named: "GCStart"
0 146 m 5,0,-1
 1000 146 l 1029,1,2
  Spiro
    0 146 {
    1000 146 v
    0 0 z
  EndSpiro
  Named: "G2Center"
0 -472 m 5,0,-1
 1000 -472 l 1029,1,2
  Spiro
    0 -472 {
    1000 -472 v
    0 0 z
  EndSpiro
  Named: "G2Bottom"
0 764 m 5,0,-1
 1000 764 l 1029,1,2
  Spiro
    0 764 {
    1000 764 v
    0 0 z
  EndSpiro
  Named: "G2Top"
118 1236 m 5,3,-1
 118 -764 l 1029
  Spiro
    118 1236 {
    118 -764 v
    0 0 z
  EndSpiro
  Named: "GLeft"
882 1236 m 5,5,-1
 882 -764 l 1029
  Spiro
    882 1236 {
    882 -764 v
    0 0 z
  EndSpiro
  Named: "GRight"
500 1236 m 5,0,-1
 500 -764 l 1029
  Spiro
    500 1236 {
    500 -764 v
    0 0 z
  EndSpiro
0 618 m 5,0,-1
 1000 618 l 1029,1,2
  Spiro
    0 618 {
    1000 618 v
    0 0 z
  EndSpiro
  Named: "G1Center"
590 1236 m 5,3,-1
 590 -764 l 1029
  Spiro
    590 1236 {
    590 -764 v
    0 0 z
  EndSpiro
  Named: "GLR"
410 1236 m 5,5,-1
 410 -764 l 1029
  Spiro
    410 1236 {
    410 -764 v
    0 0 z
  EndSpiro
  Named: "GRR"
0 236 m 5,0,-1
 1000 236 l 1029,1,2
  Spiro
    0 236 {
    1000 236 v
    0 0 z
  EndSpiro
  Named: "EMSquareCenter"
EndSplineSet
Fore
SplineSet
860 90 m 2,0,1
 882 68 882 68 882 46 c 0,2,3
 882 28 882 28 868 16 c 0,4,5
 854 0 854 0 838 0 c 0,6,7
 818 0 818 0 794 24 c 2,8,-1
 500 318 l 1,9,-1
 196 14 l 2,10,11
 182 0 182 0 168 0 c 128,-1,12
 154 0 154 0 136 18 c 128,-1,13
 118 36 118 36 118 52 c 0,14,15
 118 64 118 64 132 78 c 2,16,-1
 436 382 l 1,17,-1
 132 686 l 2,18,19
 118 700 118 700 118 714 c 128,-1,20
 118 728 118 728 136 746 c 128,-1,21
 154 764 154 764 170 764 c 0,22,23
 182 764 182 764 196 750 c 2,24,-1
 500 448 l 1,25,-1
 792 742 l 2,26,27
 814 764 814 764 836 764 c 0,28,29
 850 764 850 764 866 750 c 128,-1,30
 882 736 882 736 882 720 c 0,31,32
 882 700 882 700 858 676 c 2,33,-1
 566 382 l 1,34,-1
 860 90 l 2,0,1
EndSplineSet
Validated: 1
EndChar

StartChar: y
Encoding: 345 121 89
Width: 1000
VWidth: 1704
Flags: MW
LayerCount: 2
Back
SplineSet
0 1000 m 1,0,-1
 1000 1000 l 1025,1,2
  Spiro
    0 1000 {
    1000 1000 v
    0 0 z
  EndSpiro
  Named: "G-500/500"
0 472 m 1,0,-1
 1000 472 l 1025,1,2
  Spiro
    0 472 {
    1000 472 v
    0 0 z
  EndSpiro
  Named: "G1GoldSplit"
0 618 m 1,0,-1
 1000 618 l 1025,1,2
  Spiro
    0 618 {
    1000 618 v
    0 0 z
  EndSpiro
  Named: "G1Center"
736 1236 m 1,5,-1
 736 -764 l 1025
  Spiro
    736 1236 {
    736 -764 v
    0 0 z
  EndSpiro
  Named: "GCEnd"
264 1236 m 1,5,-1
 264 -764 l 1025
  Spiro
    264 1236 {
    264 -764 v
    0 0 z
  EndSpiro
  Named: "GCStart"
0 146 m 1,0,-1
 1000 146 l 1025,1,2
  Spiro
    0 146 {
    1000 146 v
    0 0 z
  EndSpiro
  Named: "G2Center"
0 -472 m 5,0,-1
 1000 -472 l 1025,1,2
  Spiro
    0 -472 {
    1000 -472 v
    0 0 z
  EndSpiro
  Named: "G2Bottom"
0 764 m 1,0,-1
 1000 764 l 1025,1,2
  Spiro
    0 764 {
    1000 764 v
    0 0 z
  EndSpiro
  Named: "G2Top"
118 1236 m 1,3,-1
 118 -764 l 1025
  Spiro
    118 1236 {
    118 -764 v
    0 0 z
  EndSpiro
  Named: "GLeft"
882 1236 m 1,5,-1
 882 -764 l 1025
  Spiro
    882 1236 {
    882 -764 v
    0 0 z
  EndSpiro
  Named: "GRight"
500 1236 m 1,0,-1
 500 -764 l 1025
  Spiro
    500 1236 {
    500 -764 v
    0 0 z
  EndSpiro
0 618 m 1,0,-1
 1000 618 l 1025,1,2
  Spiro
    0 618 {
    1000 618 v
    0 0 z
  EndSpiro
  Named: "G1Center"
590 1236 m 1,3,-1
 590 -764 l 1025
  Spiro
    590 1236 {
    590 -764 v
    0 0 z
  EndSpiro
  Named: "GLR"
410 1236 m 1,5,-1
 410 -764 l 1025
  Spiro
    410 1236 {
    410 -764 v
    0 0 z
  EndSpiro
  Named: "GRR"
0 236 m 1,0,-1
 1000 236 l 1025,1,2
  Spiro
    0 236 {
    1000 236 v
    0 0 z
  EndSpiro
  Named: "EMSquareCenter"
EndSplineSet
Fore
SplineSet
882 728 m 2,0,-1
 882 -128 l 2,1,2
 882 -272 882 -272 770 -372 c 128,-1,3
 658 -472 658 -472 500 -472 c 0,4,5
 400 -472 400 -472 302 -422 c 0,6,7
 210 -376 210 -376 170 -302 c 0,8,9
 160 -284 160 -284 160 -268 c 0,10,11
 160 -248 160 -248 178 -232 c 0,12,13
 190 -222 190 -222 204 -222 c 0,14,15
 226 -222 226 -222 248 -250 c 0,16,17
 358 -380 358 -380 500 -380 c 0,18,19
 648 -380 648 -380 718 -302 c 0,20,21
 790 -224 790 -224 790 -128 c 2,22,-1
 790 112 l 1,23,24
 654 0 654 0 500 0 c 0,25,26
 324 0 324 0 224 88 c 0,27,28
 118 184 118 184 118 322 c 0,29,30
 118 324 118 324 118 328 c 2,31,-1
 118 728 l 2,32,33
 118 786 118 786 164 786 c 256,34,35
 208 786 208 786 210 728 c 1,36,-1
 210 328 l 2,37,38
 210 220 210 220 282 152 c 0,39,40
 346 92 346 92 500 92 c 256,41,42
 638 92 638 92 718 166 c 0,43,44
 790 232 790 232 790 328 c 2,45,-1
 790 728 l 2,46,47
 790 786 790 786 836 786 c 256,48,49
 882 786 882 786 882 728 c 2,0,-1
EndSplineSet
Validated: 1
EndChar

StartChar: z
Encoding: 346 122 90
Width: 1000
VWidth: 1704
Flags: MW
LayerCount: 2
Back
SplineSet
0 1000 m 5,0,-1
 1000 1000 l 1029,1,2
  Spiro
    0 1000 {
    1000 1000 v
    0 0 z
  EndSpiro
  Named: "G-500/500"
0 472 m 5,0,-1
 1000 472 l 1029,1,2
  Spiro
    0 472 {
    1000 472 v
    0 0 z
  EndSpiro
  Named: "G1GoldSplit"
0 618 m 5,0,-1
 1000 618 l 1029,1,2
  Spiro
    0 618 {
    1000 618 v
    0 0 z
  EndSpiro
  Named: "G1Center"
736 1236 m 5,5,-1
 736 -764 l 1029
  Spiro
    736 1236 {
    736 -764 v
    0 0 z
  EndSpiro
  Named: "GCEnd"
264 1236 m 5,5,-1
 264 -764 l 1029
  Spiro
    264 1236 {
    264 -764 v
    0 0 z
  EndSpiro
  Named: "GCStart"
0 146 m 5,0,-1
 1000 146 l 1029,1,2
  Spiro
    0 146 {
    1000 146 v
    0 0 z
  EndSpiro
  Named: "G2Center"
0 -472 m 5,0,-1
 1000 -472 l 1029,1,2
  Spiro
    0 -472 {
    1000 -472 v
    0 0 z
  EndSpiro
  Named: "G2Bottom"
0 764 m 5,0,-1
 1000 764 l 1029,1,2
  Spiro
    0 764 {
    1000 764 v
    0 0 z
  EndSpiro
  Named: "G2Top"
118 1236 m 5,3,-1
 118 -764 l 1029
  Spiro
    118 1236 {
    118 -764 v
    0 0 z
  EndSpiro
  Named: "GLeft"
882 1236 m 5,5,-1
 882 -764 l 1029
  Spiro
    882 1236 {
    882 -764 v
    0 0 z
  EndSpiro
  Named: "GRight"
500 1236 m 5,0,-1
 500 -764 l 1029
  Spiro
    500 1236 {
    500 -764 v
    0 0 z
  EndSpiro
0 618 m 5,0,-1
 1000 618 l 1029,1,2
  Spiro
    0 618 {
    1000 618 v
    0 0 z
  EndSpiro
  Named: "G1Center"
590 1236 m 5,3,-1
 590 -764 l 1029
  Spiro
    590 1236 {
    590 -764 v
    0 0 z
  EndSpiro
  Named: "GLR"
410 1236 m 5,5,-1
 410 -764 l 1029
  Spiro
    410 1236 {
    410 -764 v
    0 0 z
  EndSpiro
  Named: "GRR"
0 236 m 5,0,-1
 1000 236 l 1029,1,2
  Spiro
    0 236 {
    1000 236 v
    0 0 z
  EndSpiro
  Named: "EMSquareCenter"
EndSplineSet
Fore
SplineSet
882 718 m 0,0,1
 882 696 882 696 858 672 c 2,2,-1
 262 92 l 1,3,-1
 826 92 l 2,4,5
 882 92 882 92 882 46 c 128,-1,6
 882 0 882 0 826 0 c 2,7,-1
 178 0 l 2,8,9
 118 0 118 0 118 46 c 0,10,11
 118 80 118 80 142 104 c 2,12,-1
 728 672 l 1,13,-1
 176 672 l 2,14,15
 120 672 120 672 120 718 c 128,-1,16
 120 764 120 764 176 764 c 2,17,-1
 824 764 l 2,18,19
 882 764 882 764 882 718 c 0,0,1
EndSplineSet
Validated: 1
EndChar

StartChar: braceleft
Encoding: 347 123 91
Width: 1000
VWidth: 1704
Flags: MW
LayerCount: 2
Back
SplineSet
736 1236 m 1,5,-1
 736 -764 l 1025
  Named: "GCEnd"
264 1236 m 1,5,-1
 264 -764 l 1025
  Named: "GCStart"
0 146 m 1,0,-1
 1000 146 l 1025,1,2
  Named: "G2Center"
0 -472 m 1,0,-1
 1000 -472 l 1025,1,2
  Named: "G2Bottom"
0 764 m 1,0,-1
 1000 764 l 1025,1,2
  Named: "G2Top"
118 1236 m 1,3,-1
 118 -764 l 1025
  Named: "GLeft"
882 1236 m 1,5,-1
 882 -764 l 1025
  Named: "GRight"
500 1236 m 1,0,-1
 500 -764 l 1025
0 618 m 1,0,-1
 1000 618 l 1025,1,2
  Named: "G1Center"
590 1236 m 1,3,-1
 590 -764 l 1025
  Named: "GLR"
410 1236 m 1,5,-1
 410 -764 l 1025
  Named: "GRR"
0 236 m 1,0,-1
 1000 236 l 1025,1,2
  Named: "EMSquareCenter"
EndSplineSet
Fore
SplineSet
410 572 m 2,0,1
 410 674 410 674 190 674 c 0,2,3
 118 674 118 674 118 720 c 256,4,5
 118 764 118 764 190 764 c 0,6,7
 410 764 410 764 410 850 c 2,8,-1
 410 1050 l 2,9,10
 410 1142 410 1142 500 1182 c 0,11,12
 620 1236 620 1236 782 1236 c 0,13,14
 882 1236 882 1236 882 1188 c 256,15,16
 882 1146 882 1146 790 1146 c 0,17,18
 664 1146 664 1146 562 1100 c 0,19,20
 500 1072 500 1072 500 1008 c 2,21,-1
 500 814 l 2,22,23
 500 766 500 766 410 720 c 1,24,25
 500 676 500 676 500 564 c 2,26,-1
 500 202 l 2,27,28
 500 166 500 166 562 136 c 0,29,30
 656 90 656 90 790 90 c 0,31,32
 882 90 882 90 882 46 c 256,33,34
 882 0 882 0 782 0 c 0,35,36
 616 0 616 0 501 54 c 0,37,38
 410 96 410 96 410 184 c 2,39,-1
 410 572 l 2,0,1
EndSplineSet
Validated: 1
EndChar

StartChar: bar
Encoding: 348 124 92
Width: 1000
VWidth: 1704
Flags: MW
LayerCount: 2
Back
SplineSet
736 1236 m 5,5,-1
 736 -764 l 1029
  Named: "GCEnd"
264 1236 m 5,5,-1
 264 -764 l 1029
  Named: "GCStart"
0 146 m 5,0,-1
 1000 146 l 1029,1,2
  Named: "G2Center"
0 -472 m 5,0,-1
 1000 -472 l 1029,1,2
  Named: "G2Bottom"
0 764 m 5,0,-1
 1000 764 l 1029,1,2
  Named: "G2Top"
118 1236 m 5,3,-1
 118 -764 l 1029
  Named: "GLeft"
882 1236 m 5,5,-1
 882 -764 l 1029
  Named: "GRight"
500 1236 m 5,0,-1
 500 -764 l 1029
0 618 m 5,0,-1
 1000 618 l 1029,1,2
  Named: "G1Center"
590 1236 m 5,3,-1
 590 -764 l 1029
  Named: "GLR"
410 1236 m 5,5,-1
 410 -764 l 1029
  Named: "GRR"
0 236 m 5,0,-1
 1000 236 l 1029,1,2
  Named: "EMSquareCenter"
EndSplineSet
Fore
SplineSet
546 -704 m 2,0,1
 546 -764 546 -764 500 -764 c 128,-1,2
 454 -764 454 -764 454 -704 c 2,3,-1
 454 1196 l 2,4,5
 454 1236 454 1236 500 1236 c 256,6,7
 546 1236 546 1236 546 1196 c 2,8,-1
 546 -704 l 2,0,1
EndSplineSet
Validated: 1
EndChar

StartChar: braceright
Encoding: 349 125 93
Width: 1000
VWidth: 1704
Flags: MW
LayerCount: 2
Back
SplineSet
736 1236 m 1,5,-1
 736 -764 l 1025
  Named: "GCEnd"
264 1236 m 1,5,-1
 264 -764 l 1025
  Named: "GCStart"
0 146 m 1,0,-1
 1000 146 l 1025,1,2
  Named: "G2Center"
0 -472 m 1,0,-1
 1000 -472 l 1025,1,2
  Named: "G2Bottom"
0 764 m 1,0,-1
 1000 764 l 1025,1,2
  Named: "G2Top"
118 1236 m 1,3,-1
 118 -764 l 1025
  Named: "GLeft"
882 1236 m 1,5,-1
 882 -764 l 1025
  Named: "GRight"
500 1236 m 1,0,-1
 500 -764 l 1025
0 618 m 1,0,-1
 1000 618 l 1025,1,2
  Named: "G1Center"
590 1236 m 1,3,-1
 590 -764 l 1025
  Named: "GLR"
410 1236 m 1,5,-1
 410 -764 l 1025
  Named: "GRR"
0 236 m 1,0,-1
 1000 236 l 1025,1,2
  Named: "EMSquareCenter"
EndSplineSet
Fore
SplineSet
590 192 m 2,0,1
 590 90 590 90 810 90 c 0,2,3
 882 90 882 90 882 44 c 256,4,5
 882 0 882 0 810 0 c 0,6,7
 590 0 590 0 590 -86 c 2,8,-1
 590 -286 l 2,9,10
 590 -378 590 -378 500 -418 c 0,11,12
 380 -472 380 -472 218 -472 c 0,13,14
 118 -472 118 -472 118 -424 c 256,15,16
 118 -382 118 -382 210 -382 c 0,17,18
 336 -382 336 -382 438 -336 c 0,19,20
 500 -308 500 -308 500 -244 c 2,21,-1
 500 -50 l 2,22,23
 500 -2 500 -2 590 44 c 1,24,25
 500 88 500 88 500 200 c 2,26,-1
 500 562 l 2,27,28
 500 598 500 598 438 628 c 0,29,30
 344 674 344 674 210 674 c 0,31,32
 118 674 118 674 118 718 c 256,33,34
 118 764 118 764 218 764 c 0,35,36
 384 764 384 764 500 710 c 0,37,38
 590 668 590 668 590 580 c 2,39,-1
 590 192 l 2,0,1
EndSplineSet
Validated: 1
EndChar

StartChar: asciitilde
Encoding: 350 126 94
Width: 1000
VWidth: 2340
Flags: MW
LayerCount: 2
Back
SplineSet
0 472 m 1,0,-1
 1000 472 l 1025,1,2
  Spiro
    0 472 {
    1000 472 v
    0 0 z
  EndSpiro
  Named: "G1GoldSplit"
0 618 m 1,0,-1
 1000 618 l 1025,1,2
  Spiro
    0 618 {
    1000 618 v
    0 0 z
  EndSpiro
  Named: "G1Center"
736 1236 m 1,5,-1
 736 -764 l 1025
  Spiro
    736 1236 {
    736 -764 v
    0 0 z
  EndSpiro
  Named: "GCEnd"
264 1236 m 1,5,-1
 264 -764 l 1025
  Spiro
    264 1236 {
    264 -764 v
    0 0 z
  EndSpiro
  Named: "GCStart"
0 146 m 1,0,-1
 1000 146 l 1025,1,2
  Spiro
    0 146 {
    1000 146 v
    0 0 z
  EndSpiro
  Named: "G2Center"
0 -472 m 1,0,-1
 1000 -472 l 1025,1,2
  Spiro
    0 -472 {
    1000 -472 v
    0 0 z
  EndSpiro
  Named: "G2Bottom"
0 764 m 1,0,-1
 1000 764 l 1025,1,2
  Spiro
    0 764 {
    1000 764 v
    0 0 z
  EndSpiro
  Named: "G2Top"
118 1236 m 1,3,-1
 118 -764 l 1025
  Spiro
    118 1236 {
    118 -764 v
    0 0 z
  EndSpiro
  Named: "GLeft"
882 1236 m 1,5,-1
 882 -764 l 1025
  Spiro
    882 1236 {
    882 -764 v
    0 0 z
  EndSpiro
  Named: "GRight"
500 1236 m 1,0,-1
 500 -764 l 1025
  Spiro
    500 1236 {
    500 -764 v
    0 0 z
  EndSpiro
0 618 m 1,0,-1
 1000 618 l 1025,1,2
  Spiro
    0 618 {
    1000 618 v
    0 0 z
  EndSpiro
  Named: "G1Center"
590 1236 m 1,3,-1
 590 -764 l 1025
  Spiro
    590 1236 {
    590 -764 v
    0 0 z
  EndSpiro
  Named: "GLR"
410 1236 m 1,5,-1
 410 -764 l 1025
  Spiro
    410 1236 {
    410 -764 v
    0 0 z
  EndSpiro
  Named: "GRR"
0 236 m 1,0,-1
 1000 236 l 1025,1,2
  Spiro
    0 236 {
    1000 236 v
    0 0 z
  EndSpiro
  Named: "EMSquareCenter"
EndSplineSet
Fore
SplineSet
558 508 m 0,0,1
 540 520 540 520 465 601 c 128,-1,2
 390 682 390 682 326 682 c 0,3,4
 216 682 216 682 206 590 c 1,5,-1
 206 576 l 2,6,7
 206 566 206 566 211 545 c 128,-1,8
 216 524 216 524 198 512 c 128,-1,9
 180 500 180 500 166 500 c 0,10,11
 130 500 130 500 120 564 c 0,12,13
 118 578 118 578 118 588 c 0,14,15
 118 660 118 660 164 704 c 0,16,17
 234 772 234 772 310 772 c 0,18,19
 388 772 388 772 444 726 c 0,20,21
 458 714 458 714 522 646 c 0,22,23
 608 552 608 552 686 552 c 0,24,25
 730 552 730 552 763 580 c 128,-1,26
 796 608 796 608 796 632 c 128,-1,27
 796 656 796 656 789 684 c 128,-1,28
 782 712 782 712 800 724 c 128,-1,29
 818 736 818 736 835 736 c 128,-1,30
 852 736 852 736 867 709 c 128,-1,31
 882 682 882 682 882 656 c 0,32,33
 882 574 882 574 836 530 c 0,34,35
 766 464 766 464 695 464 c 128,-1,36
 624 464 624 464 558 508 c 0,0,1
EndSplineSet
Validated: 1
EndChar
